<?xml version="1.0" standalone="no"?>
<!DOCTYPE svg PUBLIC "-//W3C//DTD SVG 1.1//EN" "http://www.w3.org/Graphics/SVG/1.1/DTD/svg11.dtd">
<svg xmlns="http://www.w3.org/2000/svg"><metadata>This SVG WebFont was generated by YouWorkForThem.
Â© 2012 - 2016 by Stawix Ruecha &amp; Foundry. All rights reserved. @KASE27.</metadata><defs><font horiz-adv-x="1024" id="ywftsvg"><font-face ascent="1536" bbox="-262 -555 2812 2408" cap-height="1434" descent="-512" font-family="" font-stretch="normal" font-weight="500" panose-1="2 11 6 4 3 2 0 1 1 2" underline-position="0" underline-thickness="0" unicode-range="U+000D-FB02" units-per-em="2048" x-height="901"/><missing-glyph d="M61 0v1446h1024v-1446h-1024zM618 723l377 -576v1151zM526 723l-374 575v-1151zM573 651l-368 -569h737zM205 1364l368 -569l369 569h-737z" horiz-adv-x="1146"/><glyph d="M61 0v1446h1024v-1446h-1024zM618 723l377 -576v1151zM526 723l-374 575v-1151zM573 651l-368 -569h737zM205 1364l368 -569l369 569h-737z" glyph-name=".notdef" horiz-adv-x="1146"/><glyph glyph-name="glyph1" horiz-adv-x="0"/><glyph glyph-name="glyph2" horiz-adv-x="681"/><glyph glyph-name="glyph3" horiz-adv-x="0"/><glyph glyph-name="glyph3" horiz-adv-x="0"/><glyph glyph-name="space" horiz-adv-x="468" unicode=" "/><glyph d="M369 436h-146q-43 436 -43 850v148h230v-148q0 -434 -41 -850zM154 129q0 59 39.5 100t101 41t101.5 -41t40 -100t-40 -100t-101.5 -41t-101 41t-39.5 100z" glyph-name="exclam" horiz-adv-x="591" unicode="!"/><glyph d="M162 1454h215l-23 -612h-170zM561 1454h215l-22 -612h-170z" glyph-name="quotedbl" horiz-adv-x="937" unicode="&quot;"/><glyph d="M182 905v168h250l68 361h192l-67 -361h333l68 361h193l-68 -361h201v-168h-232l-69 -377h221v-168h-254l-66 -360h-192l65 360h-333l-66 -360h-193l66 360h-199v168h232l69 377h-219zM594 905l-70 -377h334l70 377h-334z" glyph-name="numbersign" horiz-adv-x="1454" unicode="#"/><glyph d="M762 1638v-190q186 -20 292.5 -115.5t125.5 -249.5h-211q-25 139 -207 170v-446l86 -19q190 -41 282.5 -136t92.5 -249q0 -188 -123 -295.5t-338 -123.5v-189h-172v189q-215 16 -339 117.5t-140 275.5h211q23 -172 268 -201v465l-41 10q-412 90 -412 402q0 176 117 280.5 t336 118.5v186h172zM764 604h-2v-428q117 14 180.5 69.5t63.5 147.5q0 156 -242 211zM354 1055q0 -80 59.5 -129t176.5 -80v411q-236 -22 -236 -202z" glyph-name="dollar" horiz-adv-x="1341" unicode="$"/><glyph d="M668 0h-203l878 1434h203zM467 1446q164 0 271.5 -108.5t107.5 -270.5t-107.5 -271.5t-271.5 -109.5q-162 0 -270.5 109.5t-108.5 271.5q0 160 108.5 269.5t270.5 109.5zM467 850q88 0 145.5 61.5t57.5 155.5q0 92 -57.5 153.5t-145.5 61.5t-144.5 -61.5t-56.5 -153.5 q0 -94 56.5 -155.5t144.5 -61.5zM1544 748q162 0 270.5 -110t108.5 -271q0 -160 -108.5 -269.5t-270.5 -109.5q-164 0 -271.5 108.5t-107.5 270t107.5 271.5t271.5 110zM1544 152q88 0 144.5 61t56.5 154q0 94 -56.5 155.5t-144.5 61.5t-145.5 -61.5t-57.5 -155.5 q0 -92 57.5 -153.5t145.5 -61.5z" glyph-name="percent" horiz-adv-x="2011" unicode="%"/><glyph d="M1245 739l141 -121q-190 -231 -256 -303l279 -315h-244l-164 184q-225 -207 -458 -207q-184 0 -307 103.5t-123 288.5q0 66 20.5 124t43 96t75.5 87t83 70.5t99 70.5l4 2q-53 57 -80.5 93t-55.5 98.5t-28 124.5q0 150 94.5 234.5t254.5 84.5q150 0 246 -81t96 -220 q0 -115 -61.5 -192.5t-184.5 -163.5l-8 -6l297 -336q79 87 237 284zM553 166q156 0 328 156l-322 362l-10 -6q-68 -49 -94.5 -70.5t-63.5 -61.5t-50 -80t-13 -91q0 -96 64.5 -152.5t160.5 -56.5zM473 1139q0 -35 19.5 -75t40 -66.5t59.5 -71.5l6 4q59 41 89 65.5t56.5 64.5 t26.5 85q-2 63 -42 103t-103 40q-72 0 -112 -39.5t-40 -109.5z" glyph-name="ampersand" horiz-adv-x="1443" unicode="&amp;"/><glyph d="M162 1454h215l-23 -612h-170z" glyph-name="quotesingle" horiz-adv-x="540" unicode="'"/><glyph d="M139 577.5q0 370.5 181.5 636t486.5 332.5v-194q-209 -59 -329 -262t-120 -512.5t120 -512t329 -262.5v-194q-305 68 -486.5 333t-181.5 635.5z" glyph-name="parenleft" horiz-adv-x="880" unicode="("/><glyph d="M741 577.5q0 -370.5 -180 -636t-485 -332.5v194q209 59 327.5 261t118.5 514q0 309 -118.5 511.5t-327.5 262.5v194q305 -68 485 -333t180 -635.5z" glyph-name="parenright" horiz-adv-x="880" unicode=")"/><glyph d="M465 969l-148 -228l-139 101l170 207l-262 71l55 164l248 -96l-10 266h172l-10 -266l247 96l54 -164l-260 -71l170 -207l-142 -101z" glyph-name="asterisk" horiz-adv-x="929" unicode="*"/><glyph d="M717 84h-178v336h-336v170h336v338h178v-338h336v-170h-336v-336z" glyph-name="plus" horiz-adv-x="1255" unicode="+"/><glyph d="M74 -272l82 546h235l-153 -546h-164z" glyph-name="comma" horiz-adv-x="509" unicode=","/><glyph d="M90 362v177h633v-177h-633z" glyph-name="hyphen" horiz-adv-x="811" unicode="-"/><glyph d="M119 129q0 59 40 100t101.5 41t101 -41t39.5 -100t-39.5 -100t-101 -41t-101.5 41t-40 100z" glyph-name="period" horiz-adv-x="520" unicode="."/><glyph d="M1092 1638l-893 -1843h-209l893 1843h209z" glyph-name="slash" horiz-adv-x="1081" unicode="/"/><glyph d="M715 1456q270 0 431 -198.5t161 -540.5t-161 -541t-431 -199q-272 0 -432 199t-160 541t160 540.5t432 198.5zM715 172q174 0 272 142.5t98 402.5t-98 402.5t-272 142.5t-273.5 -143.5t-99.5 -401.5t99.5 -401.5t273.5 -143.5z" glyph-name="zero" horiz-adv-x="1429" unicode="0"/><glyph d="M487 0v1229l-335 -105l-62 172l426 144h186v-1440h-215z" glyph-name="one" horiz-adv-x="1026" unicode="1"/><glyph d="M631 1266q-289 0 -309 -275h-213q12 209 142 337t384 128q233 0 367.5 -122t134.5 -312q0 -156 -79 -266.5t-253 -257.5l-352 -305h710v-193h-1042v154l520 450q152 133 215.5 219t63.5 195q0 113 -77 180.5t-212 67.5z" glyph-name="two" horiz-adv-x="1277" unicode="2"/><glyph d="M631 1266q-147 0 -225 -66.5t-87 -183.5h-210q14 199 147 319.5t379 120.5q207 0 353.5 -103.5t146.5 -283.5q0 -123 -55.5 -204t-145.5 -111q109 -23 176.5 -111t67.5 -227q0 -203 -153 -321t-386 -118q-260 0 -397.5 120t-151.5 321h209q23 -250 338 -250 q152 0 238 66.5t86 189.5q0 227 -283 227h-160v176h141q258 0 259 226q0 100 -82 156.5t-205 56.5z" glyph-name="three" horiz-adv-x="1282" unicode="3"/><glyph d="M1075 1436v-906h230v-188h-230v-342h-213v342h-782v164l794 930h201zM330 530h532v623z" glyph-name="four" horiz-adv-x="1370" unicode="4"/><glyph d="M623 168q139 0 228 81t89 208q0 121 -84 200.5t-240 79.5q-184 0 -290 -78l-185 58l33 717h885v-193h-690l-19 -397q43 29 128 49t173 20q229 0 367.5 -125.5t138.5 -326.5q0 -217 -152.5 -350.5t-379.5 -133.5q-250 0 -388.5 121t-150.5 316h207q12 -109 97.5 -177.5 t232.5 -68.5z" glyph-name="five" horiz-adv-x="1255" unicode="5"/><glyph d="M721 946q215 0 358.5 -136t143.5 -335q0 -221 -147.5 -359.5t-377.5 -138.5q-252 0 -413.5 174.5t-161.5 524.5q0 123 18.5 231.5t61.5 211t108.5 176t167 117.5t230.5 44q193 0 320.5 -105.5t148.5 -248.5h-207q-16 76 -89 123t-177 47q-340 0 -365 -496 q125 170 381 170zM688 164q145 0 233.5 84t88.5 223q0 131 -89.5 214t-232.5 83q-139 0 -234.5 -84t-95.5 -211q0 -133 96.5 -221t233.5 -88z" glyph-name="six" horiz-adv-x="1316" unicode="6"/><glyph d="M1124 1278l-643 -1278h-229l627 1241h-773v193h1018v-156z" glyph-name="seven" horiz-adv-x="1236" unicode="7"/><glyph d="M670 -23q-252 0 -408 112t-156 298q0 129 73 221t202 127q-109 35 -170 122t-61 200q0 176 142 287.5t378 111.5q238 0 380 -111.5t142 -287.5q0 -113 -61.5 -200t-172.5 -122q129 -35 203 -127t74 -221q0 -186 -156.5 -298t-408.5 -112zM669.5 637 q-159.5 0 -253.5 -66.5t-94 -173.5q0 -111 93 -173t254.5 -62t255 62.5t93.5 172.5q0 106 -94.5 173t-254 67zM670 813q143 0 225 64.5t82 164.5q0 109 -85 170.5t-222.5 61.5t-222.5 -61.5t-85 -170.5q0 -100 83.5 -164.5t224.5 -64.5z" glyph-name="eight" horiz-adv-x="1339" unicode="8"/><glyph d="M596 487q-213 0 -356.5 136.5t-143.5 334.5q0 221 146.5 359.5t375.5 138.5q252 0 415 -174t163 -524q0 -154 -30.5 -287t-96 -247.5t-183.5 -180.5t-278 -66q-193 0 -319.5 105.5t-147.5 249.5h205q16 -76 89 -123t177 -47q338 0 367 497q-127 -172 -383 -172zM629 1270 q-145 0 -233.5 -84t-88.5 -223q0 -131 89 -214t233 -83q139 0 235.5 84t96.5 211q0 133 -96.5 221t-235.5 88z" glyph-name="nine" horiz-adv-x="1316" unicode="9"/><glyph d="M127 129q0 59 40 100t101.5 41t101.5 -41t40 -100t-40 -100t-101.5 -41t-101.5 41t-40 100zM127 774.5q0 59.5 40 100t101.5 40.5t101.5 -40.5t40 -100t-40 -100.5t-101.5 -41t-101.5 41t-40 100.5z" glyph-name="colon" horiz-adv-x="536" unicode=":"/><glyph d="M127 774.5q0 59.5 40 100t101.5 40.5t101.5 -40.5t40 -100t-40 -100.5t-101.5 -41t-101.5 41t-40 100.5zM76 -272l82 546h235l-153 -546h-164z" glyph-name="semicolon" horiz-adv-x="536" unicode=";"/><glyph d="M211 418v170l823 403v-211l-596 -276l596 -279v-211z" glyph-name="less" horiz-adv-x="1255" unicode="&lt;"/><glyph d="M1049 788v-170h-840v170h840zM1049 391v-170h-840v170h840z" glyph-name="equal" horiz-adv-x="1255" unicode="="/><glyph d="M1044 588v-170l-823 -404v211l596 279l-596 276v211z" glyph-name="greater" horiz-adv-x="1255" unicode=">"/><glyph d="M1114 1036q0 -82 -36 -154.5t-96 -123.5t-119.5 -86t-127.5 -62l-16 -174h-164l-18 262q360 131 360 324q0 113 -76 178.5t-219 65.5q-303 0 -319 -275h-211q12 209 143 337t391 128q240 0 374 -118t134 -302zM494 129q0 59 39.5 100t101 41t101.5 -41t40 -100t-40 -100 t-101.5 -41t-101 41t-39.5 100z" glyph-name="question" horiz-adv-x="1226" unicode="?"/><glyph d="M1393 -117v-153q-168 -76 -404 -76q-373 0 -616.5 238.5t-243.5 590.5q0 365 247 605.5t630 240.5q379 0 615.5 -222t236.5 -572q0 -209 -98.5 -334t-258.5 -125q-176 0 -235 162q-111 -160 -295 -160q-166 0 -278.5 117.5t-112.5 296.5q0 174 113.5 292.5t277.5 118.5 q156 0 260 -119v105h166v-471q0 -102 26.5 -147.5t85.5 -45.5q78 0 125 81t47 229q0 293 -185 466t-490 173q-309 0 -505 -193t-196 -498q0 -291 192.5 -482t491.5 -191q224 -1 404 73zM760 489.5q0 -114.5 64.5 -185.5t170.5 -71q98 0 167 72t69 184.5t-68.5 184 t-167.5 71.5q-106 0 -170.5 -70.5t-64.5 -185z" glyph-name="at" horiz-adv-x="1986" unicode="@"/><glyph d="M1274 0l-154 358h-702l-152 -358h-219l629 1438h192l627 -1438h-221zM770 1188l-268 -631h534z" glyph-name="A" horiz-adv-x="1542" unicode="A"/><glyph d="M178 1434h627q231 0 362 -100.5t131 -280.5q0 -125 -61 -209t-160 -111q119 -16 194 -108.5t75 -225.5q0 -193 -134.5 -296t-382.5 -103h-651v1434zM393 625v-432h424q156 0 231.5 52t75.5 167q0 113 -76.5 163t-238.5 50h-416zM393 1239v-420h389q295 0 295 217 q0 106 -70.5 154.5t-213.5 48.5h-400z" glyph-name="B" horiz-adv-x="1449" unicode="B"/><glyph d="M123 717q0 311 215 525t534 214q264 0 456 -143.5t233 -372.5h-226q-35 137 -156.5 224t-304.5 87q-231 0 -379.5 -150.5t-148.5 -384t148.5 -384t379.5 -150.5q182 0 304 87t159 227h226q-41 -231 -232.5 -375t-458.5 -144q-319 0 -534 214.5t-215 525.5z" glyph-name="C" horiz-adv-x="1669" unicode="C"/><glyph d="M1440 719q0 -309 -211 -514t-541 -205h-510v1434h510q330 0 541 -203t211 -512zM393 201h289q248 0 391.5 144t143.5 373.5t-143.5 372t-389.5 142.5h-291v-1032z" glyph-name="D" horiz-adv-x="1562" unicode="D"/><glyph d="M1208 0h-1030v1434h1022v-197h-807v-418h756v-194h-756v-428h815v-197z" glyph-name="E" horiz-adv-x="1335" unicode="E"/><glyph d="M393 0h-215v1434h1008v-199h-793v-457h731v-198h-731v-580z" glyph-name="F" horiz-adv-x="1290" unicode="F"/><glyph d="M866 180q209 0 342 119t144 301h-480v188h695q8 -55 8 -102q0 -324 -203 -516.5t-508 -192.5q-319 0 -530 213t-211 527q0 311 215 525t532 214q252 0 437.5 -136t232.5 -351h-227q-39 127 -155 205.5t-286 78.5q-229 0 -377.5 -152.5t-148.5 -383.5q0 -233 146.5 -385 t373.5 -152z" glyph-name="G" horiz-adv-x="1691" unicode="G"/><glyph d="M393 823h785v611h215v-1434h-215v621h-785v-621h-215v1434h215v-611z" glyph-name="H" horiz-adv-x="1570" unicode="H"/><glyph d="M401 1434v-1434h-217v1434h217z" glyph-name="I" horiz-adv-x="585" unicode="I"/><glyph d="M1057 1434v-926q0 -256 -136.5 -393.5t-363.5 -137.5q-223 0 -347 112t-142 300h208q31 -207 277 -207q289 0 289 350v902h215z" glyph-name="J" horiz-adv-x="1222" unicode="J"/><glyph d="M1391 1434l-615 -641l647 -793h-264l-524 645l-242 -252v-393h-215v1434h215v-762l727 762h271z" glyph-name="K" horiz-adv-x="1447" unicode="K"/><glyph d="M1169 0h-991v1434h215v-1233h776v-201z" glyph-name="L" horiz-adv-x="1232" unicode="L"/><glyph d="M866 262l-475 803v-1065h-213v1436h211l559 -940l559 940h209v-1436h-217v1063l-473 -801h-160z" glyph-name="M" horiz-adv-x="1894" unicode="M"/><glyph d="M178 1436h201l829 -1096v1094h211v-1436h-198l-830 1092v-1090h-213v1436z" glyph-name="N" horiz-adv-x="1597" unicode="N"/><glyph d="M868.5 1456q311.5 0 528.5 -215t217 -524t-217 -524.5t-528.5 -215.5t-528.5 215.5t-217 524.5t217 524t528.5 215zM868 182q219 0 370 152.5t151 382t-151 382t-370 152.5t-370.5 -152.5t-151.5 -382t151.5 -382t370.5 -152.5z" glyph-name="O" horiz-adv-x="1736" unicode="O"/><glyph d="M393 700h375q324 0 324 271q0 266 -324 266h-375v-537zM393 504v-504h-215v1434h615q250 0 385 -124t135 -337t-139.5 -340t-385.5 -129h-395z" glyph-name="P" horiz-adv-x="1413" unicode="P"/><glyph d="M868 0q-311 0 -528 213t-217 516q0 301 217 514t528.5 213t528.5 -212t217 -509q0 -334 -266 -542h276v-193h-756zM868 205q219 0 370 150.5t151 373.5q0 221 -151 371.5t-370 150.5t-370.5 -150.5t-151.5 -371.5q0 -223 151.5 -373.5t370.5 -150.5z" glyph-name="Q" horiz-adv-x="1740" unicode="Q"/><glyph d="M393 512v-512h-215v1434h637q248 0 384 -124t136 -333q0 -178 -104.5 -299t-292.5 -154l408 -524h-246l-400 512h-307zM393 707h395q160 0 243 68.5t83 197.5q0 264 -326 264h-395v-530z" glyph-name="R" horiz-adv-x="1449" unicode="R"/><glyph d="M657 172q145 0 231.5 58.5t86.5 162.5q0 80 -59.5 132.5t-190.5 80.5l-184 41q-416 90 -416 406q0 188 135 294.5t373 106.5q225 0 359 -99.5t155 -271.5h-209q-14 86 -95 132.5t-210 46.5q-137 0 -214 -52.5t-77 -154.5q0 -88 68.5 -138.5t214.5 -82.5l184 -41 q201 -43 292 -138.5t91 -251.5q0 -205 -146.5 -314t-388.5 -109q-246 0 -395 104t-168 293h211q28 -205 352 -205z" glyph-name="S" horiz-adv-x="1302" unicode="S"/><glyph d="M1204 1434v-199h-467v-1235h-215v1235h-467v199h1149z" glyph-name="T" horiz-adv-x="1259" unicode="T"/><glyph d="M776 -23q-268 0 -437 157t-169 448v852h217v-824q0 -213 103.5 -321.5t288 -108.5t287.5 108.5t103 321.5v824h215v-852q0 -291 -170 -448t-438 -157z" glyph-name="U" horiz-adv-x="1552" unicode="U"/><glyph d="M283 1434l473 -1160l473 1160h227l-600 -1438h-209l-600 1438h236z" glyph-name="V" horiz-adv-x="1503" unicode="V"/><glyph d="M1239 1434l373 -1125l379 1125h219l-494 -1438h-207l-372 1104l-373 -1104h-205l-493 1438h229l369 -1117l378 1117h197z" glyph-name="W" horiz-adv-x="2275" unicode="W"/><glyph d="M1409 1434l-530 -707l544 -727h-256l-426 573l-426 -573h-249l542 723l-528 711h256l409 -555l414 555h250z" glyph-name="X" horiz-adv-x="1488" unicode="X"/><glyph d="M268 1434l439 -684l440 684h244l-578 -887v-547h-215v545l-575 889h245z" glyph-name="Y" horiz-adv-x="1413" unicode="Y"/><glyph d="M1264 197v-197h-1139v156l840 1081h-830v197h1118v-156l-837 -1081h848z" glyph-name="Z" horiz-adv-x="1392" unicode="Z"/><glyph d="M188 1528h541v-185h-328v-1531h328v-185h-541v1901z" glyph-name="bracketleft" horiz-adv-x="804" unicode="["/><glyph d="M199 1638l893 -1843h-209l-893 1843h209z" glyph-name="backslash" horiz-adv-x="1081" unicode="\"/><glyph d="M616 -373h-540v185h325v1531h-325v185h540v-1901z" glyph-name="bracketright" horiz-adv-x="804" unicode="]"/><glyph d="M723 1434l418 -727h-234l-286 510l-285 -510h-236l418 727h205z" glyph-name="asciicircum" horiz-adv-x="1241" unicode="^"/><glyph d="M0 -262v151h877v-151h-877z" glyph-name="underscore" horiz-adv-x="876" unicode="_"/><glyph d="M215 1296l139 144l277 -310l-90 -90z" glyph-name="grave" unicode="`"/><glyph d="M84 451q0 199 127 335t317 136q188 0 306 -142v121h190v-901h-190v121q-117 -141 -306 -141q-193 0 -318.5 135t-125.5 336zM287 450.5q0 -131.5 75.5 -214t192.5 -82.5q115 0 193.5 84t78.5 213t-78.5 213t-193.5 84q-117 0 -192.5 -83t-75.5 -214.5z" glyph-name="a" horiz-adv-x="1163" unicode="a"/><glyph d="M1079 450.5q0 -198.5 -127 -334.5t-319 -136q-186 0 -303 141v-121h-191v1434h197v-648q119 135 299 136q190 0 317 -136.5t127 -335zM877 450.5q0 131.5 -76 214.5t-192.5 83t-194.5 -83t-78 -214q0 -129 78 -213t194.5 -84t192.5 82.5t76 214z" glyph-name="b" horiz-adv-x="1163" unicode="b"/><glyph d="M84 450.5q0 198.5 135 335t336 136.5q190 0 308 -102.5t134 -244.5h-198q-18 76 -79 122t-161 46q-121 0 -196.5 -80.5t-75.5 -211.5q0 -129 75.5 -211t196.5 -82q100 0 160.5 47t79.5 123h198q-14 -143 -131.5 -245.5t-310.5 -102.5q-201 0 -336 136t-135 334.5z" glyph-name="c" horiz-adv-x="1069" unicode="c"/><glyph d="M84 450.5q0 198.5 127 335t317 136.5q180 0 299 -136v648h197v-1434h-190v121q-117 -141 -306 -141q-190 0 -317 136t-127 334.5zM287 450.5q0 -131.5 75.5 -214t192.5 -82.5q115 0 193.5 84t78.5 213q0 131 -78.5 214t-193.5 83q-117 0 -192.5 -83t-75.5 -214.5z" glyph-name="d" horiz-adv-x="1163" unicode="d"/><glyph d="M545 -20q-201 0 -331 133t-130 338q0 203 129 337t325.5 134t322.5 -133.5t126 -329.5q0 -51 -4 -78h-700q18 -111 90.5 -173.5t179.5 -62.5q88 0 148.5 36t76.5 95h189q-27 -129 -140.5 -212.5t-281.5 -83.5zM543 756q-102 0 -171 -61.5t-87 -170.5h506 q-14 111 -82 171.5t-166 60.5z" glyph-name="e" horiz-adv-x="1067" unicode="e"/><glyph d="M57 901h164v148q0 401 340 401q92 0 158 -20v-168q-49 8 -119 8q-100 0 -141 -58.5t-41 -187.5v-123h280v-174h-280v-727h-197v727h-164v174z" glyph-name="f" horiz-adv-x="741" unicode="f"/><glyph d="M834 29v108q-119 -139 -306 -139q-190 0 -317 134t-127 326.5t127 328t317 135.5q186 0 306 -140v119h192v-895q0 -203 -127 -322.5t-338 -119.5q-199 0 -316.5 93t-129.5 228h194q29 -154 248 -153q277 0 277 297zM829 459q0 123 -78.5 207t-195.5 84q-119 0 -194.5 -84 t-75.5 -207t75.5 -206t194.5 -83q117 0 195.5 84t78.5 205z" glyph-name="g" horiz-adv-x="1165" unicode="g"/><glyph d="M631 922q166 0 265 -102.5t99 -268.5v-551h-196v496q0 115 -58.5 181t-165 66t-173 -69.5t-66.5 -186.5v-487h-197v1434h197v-650q100 138 295 138z" glyph-name="h" horiz-adv-x="1124" unicode="h"/><glyph d="M338 901v-901h-197v901h197zM117 1196q0 55 33.5 90t89 35t90.5 -35t35 -90q0 -53 -35 -88t-90.5 -35t-89 35t-33.5 88z" glyph-name="i" horiz-adv-x="479" unicode="i"/><glyph d="M147 -98v999h197v-1024q0 -332 -287 -332q-45 0 -127 15v172q43 -6 80 -6q74 0 105.5 42t31.5 134zM123 1196q0 55 33.5 90t89 35t90.5 -35t35 -90q0 -53 -35 -88t-90.5 -35t-89 35t-33.5 88z" glyph-name="j" horiz-adv-x="485" unicode="j"/><glyph d="M995 901l-407 -377l413 -524h-233l-313 399l-119 -108v-291h-197v1434h197v-914l405 381h254z" glyph-name="k" horiz-adv-x="1026" unicode="k"/><glyph d="M338 1434v-1434h-197v1434h197z" glyph-name="l" horiz-adv-x="479" unicode="l"/><glyph d="M1270 922q162 0 260 -102.5t98 -266.5v-553h-196v498q0 113 -57.5 179t-160 66t-168 -69.5t-65.5 -184.5v-489h-197v498q0 113 -56 179t-158.5 66t-168 -69.5t-65.5 -184.5v-489h-197v901h191v-121q45 63 123.5 102.5t171.5 39.5q209 0 309 -166q49 78 141.5 122 t194.5 44z" glyph-name="m" horiz-adv-x="1755" unicode="m"/><glyph d="M631 922q166 0 265 -102.5t99 -268.5v-551h-196v496q0 115 -58.5 181t-165 66t-173 -69.5t-66.5 -186.5v-487h-197v901h191v-125q98 146 301 146z" glyph-name="n" horiz-adv-x="1124" unicode="n"/><glyph d="M559 922q199 0 337 -136.5t138 -334.5q0 -197 -138 -334t-337 -137t-337 137t-138 334q0 199 138 335t337 136zM559 156q117 0 194.5 83t77.5 212t-77.5 211.5t-194.5 82.5t-194.5 -82.5t-77.5 -211.5t77.5 -212t194.5 -83z" glyph-name="o" horiz-adv-x="1118" unicode="o"/><glyph d="M1079 450.5q0 -198.5 -127 -334.5t-319 -136q-180 0 -297 133v-555h-197v1343h191v-123q117 143 305 144q190 0 317 -136.5t127 -335zM877 450.5q0 131.5 -76 214.5t-192.5 83t-194.5 -83t-78 -214q0 -129 78 -213t194.5 -84t192.5 82.5t76 214z" glyph-name="p" horiz-adv-x="1163" unicode="p"/><glyph d="M84 450.5q0 198.5 127 335t317 136.5q188 0 306 -142v121h190v-1343h-197v555q-117 -133 -299 -133q-190 0 -317 136t-127 334.5zM287 450.5q0 -131.5 75.5 -214t192.5 -82.5q115 0 193.5 84t78.5 213q0 131 -78.5 214t-193.5 83q-117 0 -192.5 -83t-75.5 -214.5z" glyph-name="q" horiz-adv-x="1163" unicode="q"/><glyph d="M694 903v-184q-27 6 -80 6q-135 0 -206.5 -82t-71.5 -221v-422h-197v901h191v-153q88 162 295 161q42 0 69 -6z" glyph-name="r" horiz-adv-x="743" unicode="r"/><glyph d="M430 139q78 0 125 29t47 82q0 51 -32.5 75.5t-125.5 43.5l-90 20q-272 53 -272 262q0 123 92 196t246 73q328 0 354 -265h-180q-14 106 -168 107q-70 0 -112 -27.5t-42 -77.5q0 -53 38 -77.5t124 -40.5l88 -19q272 -51 273 -264q0 -127 -96.5 -200.5t-266.5 -73.5 q-174 0 -268 74.5t-107 197.5h181q16 -115 192 -115z" glyph-name="s" horiz-adv-x="856" unicode="s"/><glyph d="M55 901h172v277h191v-277h315v-174h-315v-397q0 -94 41 -130t131 -36q74 0 149 22v-172q-80 -31 -188 -30q-160 0 -245 72.5t-85 242.5v428h-166v174z" glyph-name="t" horiz-adv-x="815" unicode="t"/><glyph d="M492 -20q-164 0 -263.5 102t-99.5 268v551h197v-495q0 -115 56 -180.5t163 -65.5q109 0 174 68.5t65 185.5v487h197v-901h-190v127q-94 -147 -299 -147z" glyph-name="u" horiz-adv-x="1120" unicode="u"/><glyph d="M424 -2l-387 903h213l264 -655l268 655h207l-389 -903h-176z" glyph-name="v" unicode="v"/><glyph d="M1030 -2l-231 639l-240 -639h-170l-342 903h211l225 -635l240 635h174l221 -639l236 639h192l-342 -903h-174z" glyph-name="w" horiz-adv-x="1593" unicode="w"/><glyph d="M977 901l-350 -444l358 -457h-231l-244 319l-242 -319h-225l356 455l-348 446h230l233 -311l238 311h225z" glyph-name="x" horiz-adv-x="1026" unicode="x"/><glyph d="M250 901l276 -577l262 577h213l-630 -1343h-211l264 557l-389 786h215z" glyph-name="y" horiz-adv-x="1034" unicode="y"/><glyph d="M115 729v172h770v-135l-516 -592h520v-174h-795v137l518 592h-497z" glyph-name="z" horiz-adv-x="980" unicode="z"/><glyph d="M109 485v193q113 0 174 67.5t51 184.5l-12 164q-10 219 89 326.5t332 107.5h93v-185h-82q-121 0 -172.5 -56t-46.5 -181l10 -164q8 -143 -41 -236.5t-152 -123.5q102 -31 151.5 -124t41.5 -237l-10 -164q-4 -125 47 -181t172 -56h82v-185h-93q-233 0 -332.5 107.5 t-88.5 327.5l12 163q10 117 -51 184.5t-174 67.5z" glyph-name="braceleft" horiz-adv-x="909" unicode="{"/><glyph d="M451 1434v-1770h-205v1770h205z" glyph-name="bar" horiz-adv-x="694" unicode="|"/><glyph d="M801 678v-193q-113 0 -174.5 -67.5t-51.5 -184.5l13 -163q12 -219 -87.5 -327t-332.5 -108h-92v185h82q121 0 171 55t46 182l-10 164q-18 297 194 361q-213 63 -194 360l10 164q4 127 -46 182t-171 55h-82v185h92q233 0 332.5 -107.5t87.5 -326.5l-13 -164 q-10 -117 51.5 -184.5t174.5 -67.5z" glyph-name="braceright" horiz-adv-x="909" unicode="}"/><glyph d="M774 594l129 -19q-16 -104 -70.5 -170.5t-144.5 -66.5q-66 0 -180 49q-109 47 -146 47q-86 0 -110 -98l-129 18q16 104 70.5 171t144.5 67q66 0 180 -49q109 -47 146 -47q85 0 110 98z" glyph-name="asciitilde" horiz-adv-x="1026" unicode="~"/><glyph glyph-name="uni00A0" horiz-adv-x="468" unicode=" "/><glyph d="M223 465h146q41 -416 41 -848v-149h-230v149q0 412 43 848zM154 772q0 59 39.5 100t101 41t101.5 -41t40 -100t-40 -100t-101.5 -41t-101 41t-39.5 100z" glyph-name="exclamdown" horiz-adv-x="591" unicode="¡"/><glyph d="M782 1106v-193q156 -23 251 -119t108 -219h-199q-31 123 -160 158v-565q129 31 162 160h199q-14 -125 -109.5 -221.5t-251.5 -118.5v-193h-172v191q-174 29 -285.5 158.5t-111.5 306.5q0 178 111.5 307t285.5 157v191h172zM418 450.5q0 -104.5 52 -179t140 -101.5v561 q-88 -25 -140 -100.5t-52 -180z" glyph-name="cent" horiz-adv-x="1341" unicode="¢"/><glyph d="M92 788h160v111q0 244 135 400.5t383 156.5q225 0 345 -124t132 -308h-207q-8 106 -75.5 174t-190.5 68q-309 0 -309 -379v-99h444v-182h-444v-413h782v-193h-1155v193h160v413h-160v182z" glyph-name="sterling" horiz-adv-x="1341" unicode="£"/><glyph d="M295 1186l119 -121q117 80 252 80q137 0 249 -80l121 121l101 -101l-121 -120q80 -109 80 -248q0 -141 -80 -250l121 -119l-101 -100l-121 119q-111 -78 -250 -78t-251 78l-119 -119l-100 100l118 119q-78 111 -77 250q0 137 77 248l-118 120zM666 408q125 0 208.5 88 t83.5 221t-83.5 221t-208.5 88t-209 -88t-84 -221t84 -221t209 -88z" glyph-name="currency" horiz-adv-x="1331" unicode="¤"/><glyph d="M172 453h391v61l-51 88h-340v172h240l-383 660h235l408 -725l407 725h234l-385 -660h241v-172h-342l-49 -86v-63h391v-172h-391v-281h-215v281h-391v172z" glyph-name="yen" horiz-adv-x="1341" unicode="¥"/><glyph d="M451 1434v-691h-205v691h205zM451 354v-690h-205v690h205z" glyph-name="brokenbar" horiz-adv-x="694" unicode="¦"/><glyph d="M657 -172q125 0 195 45t70 129q0 119 -191 162l-176 45q-379 88 -379 344q0 201 211 285q-172 86 -172 274q0 160 120 252t333 92t327.5 -87t132.5 -239h-200q-27 147 -258 148q-117 0 -180.5 -42t-63.5 -120q0 -72 55.5 -110.5t163.5 -61.5l180 -41q166 -35 253 -120 t87 -216q0 -207 -198 -286q166 -88 166 -273q0 -170 -127 -264t-347 -94q-223 0 -350 91t-143 249h205q18 -162 286 -162zM387 565q0 -78 60.5 -123t175.5 -67l79 -19q117 8 183.5 60.5t66.5 134.5q0 141 -198 184l-113 25q-115 -6 -184.5 -58.5t-69.5 -136.5z" glyph-name="section" horiz-adv-x="1341" unicode="§"/><glyph d="M182 1184q0 53 34 88t89 35t90 -35t35 -88q0 -55 -35 -90t-90 -35t-89 35t-34 90zM594 1184q0 53 35 88t90 35t89 -35t34 -88q0 -55 -34 -90t-89 -35t-90 35t-35 90z" glyph-name="dieresis" unicode="¨"/><glyph d="M860 1456q311 0 528.5 -215t217.5 -524t-217.5 -524.5t-528.5 -215.5t-528 215.5t-217 524.5t217 524t528 215zM860 135q244 0 411 168t167 414t-167 413.5t-411 167.5t-409.5 -167.5t-165.5 -413.5t165.5 -414t409.5 -168zM479 717q0 166 113 278.5t278 112.5 q158 0 254.5 -84t108.5 -201h-172q-14 57 -62.5 93t-124.5 36q-100 0 -161.5 -65.5t-61.5 -170t62.5 -170t160.5 -65.5q78 0 126.5 37t62.5 94h172q-14 -117 -110.5 -201.5t-254.5 -84.5q-166 0 -278.5 113.5t-112.5 277.5z" glyph-name="copyright" horiz-adv-x="1720" unicode="©"/><glyph d="M66 1047q0 170 110.5 286.5t267.5 116.5q156 0 261 -121v105h165v-775h-165v105q-104 -121 -261 -121q-158 0 -268 117t-110 287zM246 1046.5q0 -108.5 63.5 -177t167.5 -68.5q96 0 162 69.5t66 176t-66 175t-162 68.5q-104 0 -167.5 -67.5t-63.5 -176z" glyph-name="ordfeminine" horiz-adv-x="978" unicode="ª"/><glyph d="M516 846l-223 -379l223 -377h-207l-225 377l225 379h207zM936 846l-223 -379l223 -377h-207l-225 377l225 379h207z" glyph-name="guillemotleft" horiz-adv-x="1026" unicode="«"/><glyph d="M86 850h924v-533h-199v355h-725v178z" glyph-name="logicalnot" horiz-adv-x="1150" unicode="¬"/><glyph d="M90 362v177h633v-177h-633z" glyph-name="uni00AD" horiz-adv-x="811" unicode="­"/><glyph d="M502 1456q180 0 306 -125t126 -303t-126 -303t-306 -125t-305 125t-125 303t125 303t305 125zM501.5 698q139.5 0 233.5 94.5t94 235.5q0 139 -94 234.5t-233 95.5q-137 0 -231.5 -95.5t-94.5 -234.5q0 -141 93 -235.5t232.5 -94.5zM451 963v-134h-107v402h188 q78 0 120 -36t42 -95q0 -98 -98 -129l102 -142h-112l-94 134h-41zM451 1047h77q59 0 60 51q0 49 -60 49h-77v-100z" glyph-name="registered" horiz-adv-x="1005" unicode="®"/><glyph d="M838 1243v-160h-652v160h652z" glyph-name="macron" unicode="¯"/><glyph d="M387 1460q133 0 225.5 -93t92.5 -228q0 -133 -92.5 -226.5t-225.5 -93.5q-135 0 -227 92.5t-92 227.5t92 228t227 93zM387 958q76 0 125 51.5t49 129.5q0 80 -49 131t-125 51t-125 -51t-49 -131q0 -78 49 -129.5t125 -51.5z" glyph-name="degree" horiz-adv-x="772" unicode="°"/><glyph d="M717 250h-178v285h-336v170h336v284h178v-284h336v-170h-336v-285zM1053 160v-160h-850v160h850z" glyph-name="plusminus" horiz-adv-x="1255" unicode="±"/><glyph d="M399 1679q-141 0 -151 -135h-160q6 129 85 207t233 78q139 0 217.5 -68.5t78.5 -177.5q0 -145 -176 -272l-143 -109h338v-147h-621v116l299 222q76 57 107 96t31 86t-37.5 75.5t-100.5 28.5z" glyph-name="uni00B2" horiz-adv-x="806" unicode="²"/><glyph d="M395 1683q-147 0 -153 -120h-158q6 125 88 195.5t229 70.5q129 0 213 -58.5t84 -166.5q0 -57 -26.5 -97.5t-67.5 -52.5q117 -35 117 -176q0 -109 -88 -174.5t-225 -65.5q-313 0 -334 267h159q10 -121 166 -121q154 0 154 106q0 92 -123 92h-82v127h82q104 0 105 78 q-1 96 -140 96z" glyph-name="uni00B3" horiz-adv-x="806" unicode="³"/><glyph d="M670 1440l139 -144l-326 -256l-90 90z" glyph-name="acute" unicode="´"/><glyph d="M545 -20q-141 0 -209 77v-497h-197v1341h197v-498q0 -117 57.5 -180t161.5 -63q109 0 174.5 68.5t65.5 185.5v487h196v-901h-190v125q-43 -68 -113.5 -106.5t-142.5 -38.5z" glyph-name="uni00B5" horiz-adv-x="1128" unicode="µ"/><glyph d="M608 1434h522v-179h-159q-68 0 -94.5 -27.5t-26.5 -94.5v-1252q0 -162 -76 -250t-221 -88q-57 0 -150 17v180q53 -8 93 -8q80 0 112.5 43t32.5 139v479h-33q-217 0 -366.5 149.5t-149.5 370.5q0 223 149.5 372t366.5 149z" glyph-name="paragraph" horiz-adv-x="1196" unicode="¶"/><glyph d="M119 452.5q0 59.5 40 99.5t101.5 40t101 -40t39.5 -99.5t-39.5 -100.5t-101 -41t-101.5 41t-40 100.5z" glyph-name="periodcentered" horiz-adv-x="520" unicode="·"/><glyph d="M545 -330h-199l125 334h172z" glyph-name="cedilla" unicode="¸"/><glyph d="M391 1055v585l-201 -63l-45 141l275 97h135v-760h-164z" glyph-name="uni00B9" horiz-adv-x="806" unicode="¹"/><glyph d="M473 1450q172 0 291 -116.5t119 -286.5t-119 -287t-291 -117q-170 0 -288.5 117t-118.5 287t118.5 286.5t288.5 116.5zM473 801q98 0 163.5 68.5t65.5 177t-65.5 176t-163.5 67.5t-162.5 -67.5t-64.5 -176t64.5 -177t162.5 -68.5z" glyph-name="ordmasculine" horiz-adv-x="948" unicode="º"/><glyph d="M90 90l223 377l-223 379h207l223 -379l-223 -377h-207zM510 90l223 377l-223 379h207l223 -379l-223 -377h-207z" glyph-name="guillemotright" horiz-adv-x="1026" unicode="»"/><glyph d="M1722 760v-461h121v-143h-121v-156h-163v156h-418v123l440 481h141zM1325 299h236v254zM639 0h-193l881 1434h193zM391 676v586l-201 -64l-45 141l275 97h135v-760h-164z" glyph-name="onequarter" horiz-adv-x="1888" unicode="¼"/><glyph d="M584 0h-193l881 1434h192zM1479 625q-141 0 -152 -136h-160q6 129 85 207t233 78q139 0 218 -68.5t79 -177.5q0 -145 -176 -272l-144 -109h338v-147h-620v117l299 221q76 57 106.5 96t30.5 86t-37 76t-100 29zM391 676v586l-201 -64l-45 141l275 97h135v-760h-164z" glyph-name="onehalf" horiz-adv-x="1888" unicode="½"/><glyph d="M395 1305q-147 0 -153 -121h-158q6 125 88 195.5t229 70.5q129 0 213 -58.5t84 -166.5q0 -57 -26.5 -97.5t-67.5 -52.5q117 -35 117 -176q0 -109 -88 -174.5t-225 -65.5q-313 0 -334 267h159q10 -121 166 -121q154 0 154 106q0 92 -123 93h-82v126h82q104 0 105 78 q-1 97 -140 97zM668 0h-193l881 1434h192zM1722 760v-461h121v-143h-121v-156h-163v156h-418v123l440 481h141zM1325 299h236v254z" glyph-name="threequarters" horiz-adv-x="1888" unicode="¾"/><glyph d="M113 -133q0 82 35.5 153.5t96 123t120 86t127.5 61.5l16 174h162l20 -262q-72 -27 -127 -53.5t-112.5 -65.5t-89 -90t-31.5 -113q0 -113 75.5 -178t219.5 -65q299 0 319 272h211q-12 -207 -144 -336t-390 -129q-238 0 -373 119t-135 303zM449 772q0 59 39.5 100t103.5 41 q61 0 101 -41t40 -100t-40 -100t-101 -41q-63 0 -103 41t-40 100z" glyph-name="questiondown" horiz-adv-x="1171" unicode="¿"/><glyph d="M1274 0l-154 358h-702l-152 -358h-219l629 1438h192l627 -1438h-221zM770 1188l-268 -631h534zM457 1769l139 148l262 -285l-90 -92z" glyph-name="Agrave" horiz-adv-x="1542" unicode="À"/><glyph d="M1274 0l-154 358h-702l-152 -358h-219l629 1438h192l627 -1438h-221zM770 1188l-268 -631h534zM942 1917l139 -148l-311 -229l-90 92z" glyph-name="Aacute" horiz-adv-x="1542" unicode="Á"/><glyph d="M1274 0l-154 358h-702l-152 -358h-219l629 1438h192l627 -1438h-221zM770 1188l-268 -631h534zM666 1847h208l252 -299h-192l-164 156l-164 -156h-192z" glyph-name="Acircumflex" horiz-adv-x="1542" unicode="Â"/><glyph d="M1274 0l-154 358h-702l-152 -358h-219l629 1438h192l627 -1438h-221zM770 1188l-268 -631h534zM989 1778l129 -23q-45 -215 -207 -215q-55 0 -143 40t-127 40q-66 0 -90 -76l-129 21q45 217 207 217q55 0 143 -40t127 -40q65 0 90 76z" glyph-name="Atilde" horiz-adv-x="1542" unicode="Ã"/><glyph d="M1274 0l-154 358h-702l-152 -358h-219l629 1438h192l627 -1438h-221zM770 1188l-268 -631h534zM422 1663q0 53 35 89t90 36t91 -36t36 -89q0 -55 -35 -91t-92 -36q-55 0 -90 36t-35 91zM866 1663q0 53 36 89t91.5 36t90 -36t34.5 -89q0 -55 -34.5 -91t-90.5 -36 q-57 0 -92 36t-35 91z" glyph-name="Adieresis" horiz-adv-x="1542" unicode="Ä"/><glyph d="M1274 0l-154 358h-702l-152 -358h-219l629 1438h192l627 -1438h-221zM770 1188l-268 -631h534zM770 1540q-96 0 -160.5 62.5t-64.5 154.5q0 94 64.5 156.5t160.5 62.5t160.5 -62.5t64.5 -156.5q0 -92 -64.5 -154.5t-160.5 -62.5zM770 1649q47 0 78 30.5t31 77.5t-31 78 t-78 31t-76.5 -31t-29.5 -78t29.5 -77.5t76.5 -30.5z" glyph-name="Aring" horiz-adv-x="1542" unicode="Å"/><glyph d="M2157 1434v-197h-803v-418h753v-194h-753v-428h813v-197h-1030v352h-619l-250 -352h-245l1028 1434h1106zM653 545h484v680z" glyph-name="AE" horiz-adv-x="2293" unicode="Æ"/><glyph d="M870 -340h-208l120 322q-287 31 -473 238.5t-186 496.5q0 311 215 525t534 214q264 0 456 -143.5t233 -372.5h-226q-35 137 -156.5 224t-304.5 87q-231 0 -379.5 -150.5t-148.5 -384t148.5 -384t379.5 -150.5q182 0 304 87t159 227h226q-39 -209 -202 -348.5t-396 -163.5 z" glyph-name="Ccedilla" horiz-adv-x="1669" unicode="Ç"/><glyph d="M1208 0h-1030v1434h1022v-197h-807v-418h756v-194h-756v-428h815v-197zM403 1769l140 148l262 -285l-90 -92z" glyph-name="Egrave" horiz-adv-x="1335" unicode="È"/><glyph d="M1208 0h-1030v1434h1022v-197h-807v-418h756v-194h-756v-428h815v-197zM889 1917l139 -148l-311 -229l-90 92z" glyph-name="Eacute" horiz-adv-x="1335" unicode="É"/><glyph d="M1208 0h-1030v1434h1022v-197h-807v-418h756v-194h-756v-428h815v-197zM612 1847h209l252 -299h-192l-164 156l-164 -156h-193z" glyph-name="Ecircumflex" horiz-adv-x="1335" unicode="Ê"/><glyph d="M1208 0h-1030v1434h1022v-197h-807v-418h756v-194h-756v-428h815v-197zM369 1663q0 53 34.5 89t90 36t91.5 -36t36 -89q0 -55 -35 -91t-92 -36q-55 0 -90 36t-35 91zM813 1663q0 53 36 89t91 36t90 -36t35 -89q0 -55 -35 -91t-90 -36q-57 0 -92 36t-35 91z" glyph-name="Edieresis" horiz-adv-x="1335" unicode="Ë"/><glyph d="M401 1434v-1434h-217v1434h217zM-18 1769l139 148l262 -285l-90 -92z" glyph-name="Igrave" horiz-adv-x="585" unicode="Ì"/><glyph d="M401 1434v-1434h-217v1434h217zM465 1917l139 -148l-311 -229l-90 92z" glyph-name="Iacute" horiz-adv-x="585" unicode="Í"/><glyph d="M401 1434v-1434h-217v1434h217zM188 1847h209l252 -299h-192l-164 156l-164 -156h-192z" glyph-name="Icircumflex" horiz-adv-x="585" unicode="Î"/><glyph d="M401 1434v-1434h-217v1434h217zM-55 1663q0 53 34.5 89t90.5 36q57 0 92 -36t35 -89q0 -55 -35 -91t-92 -36q-55 0 -90 36t-35 91zM389 1663q0 53 35 89t92 36q55 0 90 -36t35 -89q0 -55 -35 -91t-90 -36q-57 0 -92 36t-35 91z" glyph-name="Idieresis" horiz-adv-x="585" unicode="Ï"/><glyph d="M1442 719q0 -309 -211 -514t-541 -205h-510v639h-160v162h160v633h510q330 0 541 -203t211 -512zM395 201h289q248 0 391.5 144t143.5 373.5t-143.5 372t-389.5 142.5h-291v-432h371v-162h-371v-438z" glyph-name="Eth" horiz-adv-x="1564" unicode="Ð"/><glyph d="M178 1436h201l829 -1096v1094h211v-1436h-198l-830 1092v-1090h-213v1436zM1018 1778l129 -23q-45 -215 -207 -215q-55 0 -143 40t-127 40q-66 0 -90 -76l-129 21q45 217 206 217q55 0 143.5 -40t127.5 -40q65 0 90 76z" glyph-name="Ntilde" horiz-adv-x="1597" unicode="Ñ"/><glyph d="M868.5 1456q311.5 0 528.5 -215t217 -524t-217 -524.5t-528.5 -215.5t-528.5 215.5t-217 524.5t217 524t528.5 215zM868 182q219 0 370 152.5t151 382t-151 382t-370 152.5t-370.5 -152.5t-151.5 -382t151.5 -382t370.5 -152.5zM555 1769l139 148l262 -285l-90 -92z" glyph-name="Ograve" horiz-adv-x="1736" unicode="Ò"/><glyph d="M868.5 1456q311.5 0 528.5 -215t217 -524t-217 -524.5t-528.5 -215.5t-528.5 215.5t-217 524.5t217 524t528.5 215zM868 182q219 0 370 152.5t151 382t-151 382t-370 152.5t-370.5 -152.5t-151.5 -382t151.5 -382t370.5 -152.5zM1040 1917l140 -148l-312 -229l-90 92z " glyph-name="Oacute" horiz-adv-x="1736" unicode="Ó"/><glyph d="M868.5 1456q311.5 0 528.5 -215t217 -524t-217 -524.5t-528.5 -215.5t-528.5 215.5t-217 524.5t217 524t528.5 215zM868 182q219 0 370 152.5t151 382t-151 382t-370 152.5t-370.5 -152.5t-151.5 -382t151.5 -382t370.5 -152.5zM764 1847h209l252 -299h-193l-164 156 l-163 -156h-193z" glyph-name="Ocircumflex" horiz-adv-x="1736" unicode="Ô"/><glyph d="M868.5 1456q311.5 0 528.5 -215t217 -524t-217 -524.5t-528.5 -215.5t-528.5 215.5t-217 524.5t217 524t528.5 215zM868 182q219 0 370 152.5t151 382t-151 382t-370 152.5t-370.5 -152.5t-151.5 -382t151.5 -382t370.5 -152.5zM1087 1778l130 -23q-45 -215 -207 -215 q-55 0 -143.5 40t-127.5 40q-66 0 -90 -76l-129 21q45 217 207 217q55 0 143 -40t127 -40q65 0 90 76z" glyph-name="Otilde" horiz-adv-x="1736" unicode="Õ"/><glyph d="M868.5 1456q311.5 0 528.5 -215t217 -524t-217 -524.5t-528.5 -215.5t-528.5 215.5t-217 524.5t217 524t528.5 215zM868 182q219 0 370 152.5t151 382t-151 382t-370 152.5t-370.5 -152.5t-151.5 -382t151.5 -382t370.5 -152.5zM520 1663q0 53 35 89t90 36t91 -36t36 -89 q0 -55 -35 -91t-92 -36q-55 0 -90 36t-35 91zM965 1663q0 53 35.5 89t91 36t90.5 -36t35 -89q0 -55 -35 -91t-90 -36q-57 0 -92 36t-35 91z" glyph-name="Odieresis" horiz-adv-x="1736" unicode="Ö"/><glyph d="M250 760l123 123l254 -256l256 256l125 -123l-256 -256l256 -254l-125 -123l-256 254l-254 -254l-123 123l254 254z" glyph-name="multiply" horiz-adv-x="1255" unicode="×"/><glyph d="M870 1456q250 0 451 -147l135 143l117 -113l-135 -141q178 -207 178 -481q0 -309 -217 -524.5t-529 -215.5q-252 0 -452 148l-133 -143l-119 112l133 142q-174 207 -174 481q0 309 217 524t528 215zM870 182q219 0 370 152.5t151 382.5q0 184 -105 327l-725 -763 q133 -99 309 -99zM350 717q0 -186 103 -328l725 764q-137 98 -308 98q-219 0 -369.5 -152.5t-150.5 -381.5z" glyph-name="Oslash" horiz-adv-x="1740" unicode="Ø"/><glyph d="M776 -23q-268 0 -437 157t-169 448v852h217v-824q0 -213 103.5 -321.5t288 -108.5t287.5 108.5t103 321.5v824h215v-852q0 -291 -170 -448t-438 -157zM465 1769l139 148l262 -285l-90 -92z" glyph-name="Ugrave" horiz-adv-x="1552" unicode="Ù"/><glyph d="M776 -23q-268 0 -437 157t-169 448v852h217v-824q0 -213 103.5 -321.5t288 -108.5t287.5 108.5t103 321.5v824h215v-852q0 -291 -170 -448t-438 -157zM950 1917l140 -148l-312 -229l-90 92z" glyph-name="Uacute" horiz-adv-x="1552" unicode="Ú"/><glyph d="M776 -23q-268 0 -437 157t-169 448v852h217v-824q0 -213 103.5 -321.5t288 -108.5t287.5 108.5t103 321.5v824h215v-852q0 -291 -170 -448t-438 -157zM674 1847h209l252 -299h-193l-164 156l-164 -156h-192z" glyph-name="Ucircumflex" horiz-adv-x="1552" unicode="Û"/><glyph d="M776 -23q-268 0 -437 157t-169 448v852h217v-824q0 -213 103.5 -321.5t288 -108.5t287.5 108.5t103 321.5v824h215v-852q0 -291 -170 -448t-438 -157zM430 1663q0 53 35 89t90 36t91 -36t36 -89q0 -55 -35 -91t-92 -36q-55 0 -90 36t-35 91zM874 1663q0 53 36 89t91.5 36 t90 -36t34.5 -89q0 -55 -34.5 -91t-90.5 -36q-57 0 -92 36t-35 91z" glyph-name="Udieresis" horiz-adv-x="1552" unicode="Ü"/><glyph d="M268 1434l439 -684l440 684h244l-578 -887v-547h-215v545l-575 889h245zM879 1917l139 -148l-311 -229l-91 92z" glyph-name="Yacute" horiz-adv-x="1413" unicode="Ý"/><glyph d="M393 324v-324h-215v1434h215v-224h393q246 0 381.5 -118.5t135.5 -321.5t-138.5 -324.5t-384.5 -121.5h-387zM393 518h367q322 0 321.5 248t-321.5 248h-367v-496z" glyph-name="Thorn" horiz-adv-x="1404" unicode="Þ"/><glyph d="M139 911q0 244 146.5 394.5t412.5 150.5q231 0 370.5 -114.5t139.5 -284.5q0 -129 -60.5 -215t-150.5 -113q111 -16 192 -104t81 -234q0 -205 -128 -309.5t-354 -104.5q-172 0 -272 35v166q119 -29 250 -28q152 0 227.5 59t75.5 188q0 240 -326 240h-120v166h94 q145 0 220 56t75 185q0 109 -83 175.5t-229 66.5q-184 0 -274 -101.5t-90 -287.5v-897h-197v911z" glyph-name="germandbls" horiz-adv-x="1355" unicode="ß"/><glyph d="M84 451q0 199 127 335t317 136q188 0 306 -142v121h190v-901h-190v121q-117 -141 -306 -141q-193 0 -318.5 135t-125.5 336zM287 450.5q0 -131.5 75.5 -214t192.5 -82.5q115 0 193.5 84t78.5 213t-78.5 213t-193.5 84q-117 0 -192.5 -83t-75.5 -214.5zM225 1296l140 144 l276 -310l-90 -90z" glyph-name="agrave" horiz-adv-x="1163" unicode="à"/><glyph d="M84 451q0 199 127 335t317 136q188 0 306 -142v121h190v-901h-190v121q-117 -141 -306 -141q-193 0 -318.5 135t-125.5 336zM287 450.5q0 -131.5 75.5 -214t192.5 -82.5q115 0 193.5 84t78.5 213t-78.5 213t-193.5 84q-117 0 -192.5 -83t-75.5 -214.5zM737 1440l140 -144 l-326 -256l-90 90z" glyph-name="aacute" horiz-adv-x="1163" unicode="á"/><glyph d="M84 451q0 199 127 335t317 136q188 0 306 -142v121h190v-901h-190v121q-117 -141 -306 -141q-193 0 -318.5 135t-125.5 336zM287 450.5q0 -131.5 75.5 -214t192.5 -82.5q115 0 193.5 84t78.5 213t-78.5 213t-193.5 84q-117 0 -192.5 -83t-75.5 -214.5zM446 1362h209 l246 -305h-190l-160 166l-160 -166h-190z" glyph-name="acircumflex" horiz-adv-x="1163" unicode="â"/><glyph d="M84 451q0 199 127 335t317 136q188 0 306 -142v121h190v-901h-190v121q-117 -141 -306 -141q-193 0 -318.5 135t-125.5 336zM287 450.5q0 -131.5 75.5 -214t192.5 -82.5q115 0 193.5 84t78.5 213t-78.5 213t-193.5 84q-117 0 -192.5 -83t-75.5 -214.5zM891 1268 q-45 -219 -203 -219q-51 0 -138 40.5t-124 40.5q-63 0 -88 -75l-127 20q45 217 203 217q51 0 138 -41t124 -41q63 0 88 76z" glyph-name="atilde" horiz-adv-x="1163" unicode="ã"/><glyph d="M84 451q0 199 127 335t317 136q188 0 306 -142v121h190v-901h-190v121q-117 -141 -306 -141q-193 0 -318.5 135t-125.5 336zM287 450.5q0 -131.5 75.5 -214t192.5 -82.5q115 0 193.5 84t78.5 213t-78.5 213t-193.5 84q-117 0 -192.5 -83t-75.5 -214.5zM221 1184 q0 53 34 88t89 35t90 -35t35 -88q0 -55 -35 -90t-90 -35t-89 35t-34 90zM633 1184q0 53 34.5 88t90 35t89.5 -35t34 -88q0 -55 -34 -90t-89.5 -35t-90 35t-34.5 90z" glyph-name="adieresis" horiz-adv-x="1163" unicode="ä"/><glyph d="M84 451q0 199 127 335t317 136q188 0 306 -142v121h190v-901h-190v121q-117 -141 -306 -141q-193 0 -318.5 135t-125.5 336zM287 450.5q0 -131.5 75.5 -214t192.5 -82.5q115 0 193.5 84t78.5 213t-78.5 213t-193.5 84q-117 0 -192.5 -83t-75.5 -214.5zM551 1032 q-94 0 -158.5 62.5t-64.5 154.5t64.5 154.5t158.5 62.5q96 0 159.5 -62.5t63.5 -154.5t-63.5 -154.5t-159.5 -62.5zM551 1141q47 0 77.5 30.5t30.5 77.5t-30.5 78t-77.5 31t-78 -31t-31 -78t31 -77.5t78 -30.5z" glyph-name="aring" horiz-adv-x="1163" unicode="å"/><glyph d="M1599 373h-684q20 -106 92 -166t169 -60q86 0 144 36t75 96h188q-27 -129 -138.5 -214t-277.5 -85q-219 0 -348 170q-119 -166 -385 -166q-152 0 -252 66.5t-100 203.5q0 125 89 193.5t255 68.5h299q2 20 10 57q-16 180 -213 181q-174 0 -200 -111h-191q12 119 115.5 198 t279.5 79q221 0 320 -140q129 141 319 142q188 0 313.5 -135.5t125.5 -331.5q-1 -29 -5 -82zM1169 754q-100 0 -169.5 -63.5t-86.5 -174.5h494q-14 111 -82 174.5t-156 63.5zM735 326q-4 14 -8 47h-264q-100 0 -144.5 -29t-44.5 -88q0 -115 175 -115q125 0 201.5 47.5 t84.5 137.5z" glyph-name="ae" horiz-adv-x="1683" unicode="æ"/><glyph d="M551 -334h-199l119 322q-170 29 -278.5 157.5t-108.5 305.5q0 199 135 335t336 136q190 0 308 -102.5t134 -244.5h-198q-18 76 -79 122t-161 46q-121 0 -196.5 -80.5t-75.5 -211.5q0 -129 75.5 -211t196.5 -82q100 0 160.5 47t79.5 123h198q-12 -125 -105 -221.5 t-247 -118.5z" glyph-name="ccedilla" horiz-adv-x="1069" unicode="ç"/><glyph d="M545 -20q-201 0 -331 133t-130 338q0 203 129 337t325.5 134t322.5 -133.5t126 -329.5q0 -51 -4 -78h-700q18 -111 90.5 -173.5t179.5 -62.5q88 0 148.5 36t76.5 95h189q-27 -129 -140.5 -212.5t-281.5 -83.5zM543 756q-102 0 -171 -61.5t-87 -170.5h506 q-14 111 -82 171.5t-166 60.5zM213 1296l139 144l277 -310l-90 -90z" glyph-name="egrave" horiz-adv-x="1067" unicode="è"/><glyph d="M545 -20q-201 0 -331 133t-130 338q0 203 129 337t325.5 134t322.5 -133.5t126 -329.5q0 -51 -4 -78h-700q18 -111 90.5 -173.5t179.5 -62.5q88 0 148.5 36t76.5 95h189q-27 -129 -140.5 -212.5t-281.5 -83.5zM543 756q-102 0 -171 -61.5t-87 -170.5h506 q-14 111 -82 171.5t-166 60.5zM727 1440l139 -144l-325 -256l-90 90z" glyph-name="eacute" horiz-adv-x="1067" unicode="é"/><glyph d="M545 -20q-201 0 -331 133t-130 338q0 203 129 337t325.5 134t322.5 -133.5t126 -329.5q0 -51 -4 -78h-700q18 -111 90.5 -173.5t179.5 -62.5q88 0 148.5 36t76.5 95h189q-27 -129 -140.5 -212.5t-281.5 -83.5zM436 1362h209l246 -305h-191l-159 166l-160 -166h-191z M543 756q-102 0 -171 -61.5t-87 -170.5h506q-14 111 -82 171.5t-166 60.5z" glyph-name="ecircumflex" horiz-adv-x="1067" unicode="ê"/><glyph d="M545 -20q-201 0 -331 133t-130 338q0 203 129 337t325.5 134t322.5 -133.5t126 -329.5q0 -51 -4 -78h-700q18 -111 90.5 -173.5t179.5 -62.5q88 0 148.5 36t76.5 95h189q-27 -129 -140.5 -212.5t-281.5 -83.5zM543 756q-102 0 -171 -61.5t-87 -170.5h506 q-14 111 -82 171.5t-166 60.5zM211 1184q0 53 34 88t89 35t90 -35t35 -88q0 -55 -35 -90t-90 -35t-89 35t-34 90zM623 1184q0 53 34.5 88t90 35t89 -35t33.5 -88q0 -55 -33.5 -90t-89 -35t-90 35t-34.5 90z" glyph-name="edieresis" horiz-adv-x="1067" unicode="ë"/><glyph d="M338 901v-901h-197v901h197zM-86 1296l139 144l277 -310l-90 -90z" glyph-name="igrave" horiz-adv-x="479" unicode="ì"/><glyph d="M338 901v-901h-197v901h197zM428 1440l139 -144l-325 -256l-90 90z" glyph-name="iacute" horiz-adv-x="479" unicode="í"/><glyph d="M338 901v-901h-197v901h197zM137 1362h205l219 -303h-186l-135 166l-136 -166h-186z" glyph-name="icircumflex" horiz-adv-x="479" unicode="î"/><glyph d="M338 901v-901h-197v901h197zM-76 1184q0 53 35 88t90 35t89 -35t34 -88q0 -55 -34 -90t-89 -35t-90 35t-35 90zM307 1184q0 53 34 88t89 35t90 -35t35 -88q0 -55 -35 -90t-90 -35t-89 35t-34 90z" glyph-name="idieresis" horiz-adv-x="479" unicode="ï"/><glyph d="M868 1440l78 -123l-237 -137q326 -332 325 -697q0 -229 -135 -366t-344 -137q-197 0 -334 134t-137 326q0 197 136 327t335 130q102 0 213 -55q-84 137 -205 252l-239 -138l-76 123l196 115q-94 70 -196 119l98 135q127 -66 250 -166zM555 156q115 0 192.5 79.5 t77.5 202.5q0 125 -77.5 204t-192.5 79t-191.5 -79t-76.5 -204q0 -123 77.5 -202.5t190.5 -79.5z" glyph-name="eth" horiz-adv-x="1120" unicode="ð"/><glyph d="M631 922q166 0 265 -102.5t99 -268.5v-551h-196v496q0 115 -58.5 181t-165 66t-173 -69.5t-66.5 -186.5v-487h-197v901h191v-125q98 146 301 146zM920 1268q-45 -219 -203 -219q-51 0 -138 40.5t-124 40.5q-63 0 -88 -75l-127 20q45 217 202 217q51 0 138.5 -41 t124.5 -41q63 0 88 76z" glyph-name="ntilde" horiz-adv-x="1124" unicode="ñ"/><glyph d="M559 922q199 0 337 -136.5t138 -334.5q0 -197 -138 -334t-337 -137t-337 137t-138 334q0 199 138 335t337 136zM559 156q117 0 194.5 83t77.5 212t-77.5 211.5t-194.5 82.5t-194.5 -82.5t-77.5 -211.5t77.5 -212t194.5 -83zM233 1296l140 144l276 -310l-90 -90z" glyph-name="ograve" horiz-adv-x="1118" unicode="ò"/><glyph d="M559 922q199 0 337 -136.5t138 -334.5q0 -197 -138 -334t-337 -137t-337 137t-138 334q0 199 138 335t337 136zM559 156q117 0 194.5 83t77.5 212t-77.5 211.5t-194.5 82.5t-194.5 -82.5t-77.5 -211.5t77.5 -212t194.5 -83zM745 1440l140 -144l-326 -256l-90 90z" glyph-name="oacute" horiz-adv-x="1118" unicode="ó"/><glyph d="M559 922q199 0 337 -136.5t138 -334.5q0 -197 -138 -334t-337 -137t-337 137t-138 334q0 199 138 335t337 136zM559 156q117 0 194.5 83t77.5 212t-77.5 211.5t-194.5 82.5t-194.5 -82.5t-77.5 -211.5t77.5 -212t194.5 -83zM455 1362h209l245 -305h-190l-160 166 l-160 -166h-190z" glyph-name="ocircumflex" horiz-adv-x="1118" unicode="ô"/><glyph d="M559 922q199 0 337 -136.5t138 -334.5q0 -197 -138 -334t-337 -137t-337 137t-138 334q0 199 138 335t337 136zM559 156q117 0 194.5 83t77.5 212t-77.5 211.5t-194.5 82.5t-194.5 -82.5t-77.5 -211.5t77.5 -212t194.5 -83zM899 1268q-45 -219 -203 -219q-51 0 -138 40.5 t-124 40.5q-63 0 -88 -75l-127 20q45 217 203 217q51 0 138 -41t124 -41q63 0 88 76z" glyph-name="otilde" horiz-adv-x="1118" unicode="õ"/><glyph d="M559 922q199 0 337 -136.5t138 -334.5q0 -197 -138 -334t-337 -137t-337 137t-138 334q0 199 138 335t337 136zM559 156q117 0 194.5 83t77.5 212t-77.5 211.5t-194.5 82.5t-194.5 -82.5t-77.5 -211.5t77.5 -212t194.5 -83zM229 1184q0 53 34 88t89.5 35t90 -35t34.5 -88 q0 -55 -34.5 -90t-90 -35t-89.5 35t-34 90zM641 1184q0 53 35 88t90 35t89 -35t34 -88q0 -55 -34 -90t-89 -35t-90 35t-35 90z" glyph-name="odieresis" horiz-adv-x="1118" unicode="ö"/><glyph d="M1049 590v-170h-840v170h840zM487 864.5q0 59.5 40 99.5t102 40q59 0 99 -40t40 -99.5t-40 -99.5t-99 -40q-61 0 -101.5 40t-40.5 99.5zM487 145.5q0 59.5 40 100.5t102 41q59 0 99 -41t40 -100.5t-40 -99.5t-99 -40q-61 0 -101.5 40t-40.5 99.5z" glyph-name="divide" horiz-adv-x="1255" unicode="÷"/><glyph d="M559 922q152 0 277 -86l69 73l92 -86l-69 -73q106 -125 106 -299q0 -197 -138 -334t-337 -137q-152 0 -274 83l-70 -73l-92 86l70 74q-106 129 -107 301q0 199 137 335t336 136zM289 451q0 -92 41 -164l385 409q-72 49 -156 49q-117 0 -193.5 -82.5t-76.5 -211.5z M559 156q117 0 194.5 83t77.5 212q0 86 -40 161l-383 -409q65 -47 151 -47z" glyph-name="oslash" horiz-adv-x="1120" unicode="ø"/><glyph d="M492 -20q-164 0 -263.5 102t-99.5 268v551h197v-495q0 -115 56 -180.5t163 -65.5q109 0 174 68.5t65 185.5v487h197v-901h-190v127q-94 -147 -299 -147zM229 1296l140 144l276 -310l-90 -90z" glyph-name="ugrave" horiz-adv-x="1120" unicode="ù"/><glyph d="M492 -20q-164 0 -263.5 102t-99.5 268v551h197v-495q0 -115 56 -180.5t163 -65.5q109 0 174 68.5t65 185.5v487h197v-901h-190v127q-94 -147 -299 -147zM741 1440l140 -144l-326 -256l-90 90z" glyph-name="uacute" horiz-adv-x="1120" unicode="ú"/><glyph d="M492 -20q-164 0 -263.5 102t-99.5 268v551h197v-495q0 -115 56 -180.5t163 -65.5q109 0 174 68.5t65 185.5v487h197v-901h-190v127q-94 -147 -299 -147zM451 1362h208l246 -305h-190l-160 166l-160 -166h-190z" glyph-name="ucircumflex" horiz-adv-x="1120" unicode="û"/><glyph d="M492 -20q-164 0 -263.5 102t-99.5 268v551h197v-495q0 -115 56 -180.5t163 -65.5q109 0 174 68.5t65 185.5v487h197v-901h-190v127q-94 -147 -299 -147zM637 1184q0 53 35 88t90 35t89 -35t34 -88q0 -55 -34 -90t-89 -35t-90 35t-35 90zM225 1184q0 53 34 88t89 35 t90 -35t35 -88q0 -55 -35 -90t-90 -35t-89 35t-34 90z" glyph-name="udieresis" horiz-adv-x="1120" unicode="ü"/><glyph d="M250 901l276 -577l262 577h213l-630 -1343h-211l264 557l-389 786h215zM715 1440l139 -144l-326 -256l-90 90z" glyph-name="yacute" horiz-adv-x="1034" unicode="ý"/><glyph d="M1079 450.5q0 -198.5 -127 -334.5t-319 -136q-180 0 -297 133v-555h-197v1876h197v-648q119 135 299 136q190 0 317 -136.5t127 -335zM877 450.5q0 131.5 -76 214.5t-192.5 83t-194.5 -83t-78 -214q0 -129 78 -213t194.5 -84t192.5 82.5t76 214z" glyph-name="thorn" horiz-adv-x="1163" unicode="þ"/><glyph d="M250 901l276 -577l262 577h213l-630 -1343h-211l264 557l-389 786h215zM608 1184q0 53 35 88t90 35t89 -35t34 -88q0 -55 -34 -90t-89 -35t-90 35t-35 90zM197 1184q0 53 33.5 88t89 35t90 -35t34.5 -88q0 -55 -34.5 -90t-90 -35t-89 35t-33.5 90z" glyph-name="ydieresis" horiz-adv-x="1034" unicode="ÿ"/><glyph d="M1274 0l-154 358h-702l-152 -358h-219l629 1438h192l627 -1438h-221zM770 1188l-268 -631h534zM1106 1708v-160h-672v160h672z" glyph-name="Amacron" horiz-adv-x="1542" unicode="Ā"/><glyph d="M84 451q0 199 127 335t317 136q188 0 306 -142v121h190v-901h-190v121q-117 -141 -306 -141q-193 0 -318.5 135t-125.5 336zM287 450.5q0 -131.5 75.5 -214t192.5 -82.5q115 0 193.5 84t78.5 213t-78.5 213t-193.5 84q-117 0 -192.5 -83t-75.5 -214.5zM877 1243v-160 h-652v160h652z" glyph-name="amacron" horiz-adv-x="1163" unicode="ā"/><glyph d="M1274 0l-154 358h-702l-152 -358h-219l629 1438h192l627 -1438h-221zM770 1188l-268 -631h534zM770 1540q-160 0 -246 86t-104 205h170q8 -59 56 -96t124 -37q78 0 125 37t55 96h170q-18 -119 -104 -205t-246 -86z" glyph-name="Abreve" horiz-adv-x="1542" unicode="Ă"/><glyph d="M84 451q0 199 127 335t317 136q188 0 306 -142v121h190v-901h-190v121q-117 -141 -306 -141q-193 0 -318.5 135t-125.5 336zM287 450.5q0 -131.5 75.5 -214t192.5 -82.5q115 0 193.5 84t78.5 213t-78.5 213t-193.5 84q-117 0 -192.5 -83t-75.5 -214.5zM551 1051 q-160 0 -244 88t-100 209h168q8 -61 55 -101.5t121 -40.5t121 40t55 102h168q-16 -121 -100 -209t-244 -88z" glyph-name="abreve" horiz-adv-x="1163" unicode="ă"/><glyph d="M1274 0l-154 358h-702l-152 -358h-219l629 1438h192l623 -1430l6 -8q-190 -82 -190 -180q0 -63 88 -64q66 0 118 29l52 -109q-86 -74 -217 -73q-96 0 -158 43t-62 125q0 133 179 229h-33zM770 1188l-268 -631h534z" glyph-name="Aogonek" horiz-adv-x="1542" unicode="Ą"/><glyph d="M84 451q0 199 127 335t317 136q188 0 306 -142v121h190v-901h-8q-184 -86 -185 -182q0 -61 82 -62q57 0 113 31l51 -109q-84 -72 -211 -71q-92 0 -152.5 43t-60.5 121q0 135 181 235v115q-117 -141 -306 -141q-193 0 -318.5 135t-125.5 336zM287 450.5 q0 -131.5 75.5 -214t192.5 -82.5q115 0 193.5 84t78.5 213t-78.5 213t-193.5 84q-117 0 -192.5 -83t-75.5 -214.5z" glyph-name="aogonek" horiz-adv-x="1163" unicode="ą"/><glyph d="M123 717q0 311 215 525t534 214q264 0 456 -143.5t233 -372.5h-226q-35 137 -156.5 224t-304.5 87q-231 0 -379.5 -150.5t-148.5 -384t148.5 -384t379.5 -150.5q182 0 304 87t159 227h226q-41 -231 -232.5 -375t-458.5 -144q-319 0 -534 214.5t-215 525.5zM1044 1917 l140 -148l-312 -229l-90 92z" glyph-name="Cacute" horiz-adv-x="1669" unicode="Ć"/><glyph d="M84 450.5q0 198.5 135 335t336 136.5q190 0 308 -102.5t134 -244.5h-198q-18 76 -79 122t-161 46q-121 0 -196.5 -80.5t-75.5 -211.5q0 -129 75.5 -211t196.5 -82q100 0 160.5 47t79.5 123h198q-14 -143 -131.5 -245.5t-310.5 -102.5q-201 0 -336 136t-135 334.5z M741 1440l140 -144l-326 -256l-90 90z" glyph-name="cacute" horiz-adv-x="1069" unicode="ć"/><glyph d="M123 717q0 311 215 525t534 214q264 0 456 -143.5t233 -372.5h-226q-35 137 -156.5 224t-304.5 87q-231 0 -379.5 -150.5t-148.5 -384t148.5 -384t379.5 -150.5q182 0 304 87t159 227h226q-41 -231 -232.5 -375t-458.5 -144q-319 0 -534 214.5t-215 525.5zM768 1847h209 l252 -299h-193l-164 156l-163 -156h-193z" glyph-name="Ccircumflex" horiz-adv-x="1669" unicode="Ĉ"/><glyph d="M84 450.5q0 198.5 135 335t336 136.5q190 0 308 -102.5t134 -244.5h-198q-18 76 -79 122t-161 46q-121 0 -196.5 -80.5t-75.5 -211.5q0 -129 75.5 -211t196.5 -82q100 0 160.5 47t79.5 123h198q-14 -143 -131.5 -245.5t-310.5 -102.5q-201 0 -336 136t-135 334.5z M451 1362h208l246 -305h-190l-160 166l-160 -166h-190z" glyph-name="ccircumflex" horiz-adv-x="1069" unicode="ĉ"/><glyph d="M123 717q0 311 215 525t534 214q264 0 456 -143.5t233 -372.5h-226q-35 137 -156.5 224t-304.5 87q-231 0 -379.5 -150.5t-148.5 -384t148.5 -384t379.5 -150.5q182 0 304 87t159 227h226q-41 -231 -232.5 -375t-458.5 -144q-319 0 -534 214.5t-215 525.5zM743 1669 q0 57 36 94t93.5 37t93 -37t35.5 -94q0 -55 -35.5 -92t-93 -37t-93.5 37t-36 92z" glyph-name="Cdotaccent" horiz-adv-x="1669" unicode="Ċ"/><glyph d="M84 450.5q0 198.5 135 335t336 136.5q190 0 308 -102.5t134 -244.5h-198q-18 76 -79 122t-161 46q-121 0 -196.5 -80.5t-75.5 -211.5q0 -129 75.5 -211t196.5 -82q100 0 160.5 47t79.5 123h198q-14 -143 -131.5 -245.5t-310.5 -102.5q-201 0 -336 136t-135 334.5z M430 1192q0 55 35 90t90 35t90 -35t35 -90q0 -53 -35 -89t-90 -36t-90 36t-35 89z" glyph-name="cdotaccent" horiz-adv-x="1069" unicode="ċ"/><glyph d="M123 717q0 311 215 525t534 214q264 0 456 -143.5t233 -372.5h-226q-35 137 -156.5 224t-304.5 87q-231 0 -379.5 -150.5t-148.5 -384t148.5 -384t379.5 -150.5q182 0 304 87t159 227h226q-41 -231 -232.5 -375t-458.5 -144q-319 0 -534 214.5t-215 525.5zM977 1548h-209 l-252 299h193l163 -155l164 155h193z" glyph-name="Ccaron" horiz-adv-x="1669" unicode="Č"/><glyph d="M84 450.5q0 198.5 135 335t336 136.5q190 0 308 -102.5t134 -244.5h-198q-18 76 -79 122t-161 46q-121 0 -196.5 -80.5t-75.5 -211.5q0 -129 75.5 -211t196.5 -82q100 0 160.5 47t79.5 123h198q-14 -143 -131.5 -245.5t-310.5 -102.5q-201 0 -336 136t-135 334.5z M659 1057h-208l-246 305h190l160 -166l160 166h190z" glyph-name="ccaron" horiz-adv-x="1069" unicode="č"/><glyph d="M1440 719q0 -309 -211 -514t-541 -205h-510v1434h510q330 0 541 -203t211 -512zM393 201h289q248 0 391.5 144t143.5 373.5t-143.5 372t-389.5 142.5h-291v-1032zM885 1548h-209l-252 299h192l164 -155l164 155h193z" glyph-name="Dcaron" horiz-adv-x="1562" unicode="Ď"/><glyph d="M84 450.5q0 198.5 127 335t317 136.5q180 0 299 -136v648h197v-1434h-190v121q-117 -141 -306 -141q-190 0 -317 136t-127 334.5zM287 450.5q0 -131.5 75.5 -214t192.5 -82.5q115 0 193.5 84t78.5 213q0 131 -78.5 214t-193.5 83q-117 0 -192.5 -83t-75.5 -214.5z M1126 1010l15 424h207l-70 -424h-152z" glyph-name="dcaron" horiz-adv-x="1247" unicode="ď"/><glyph d="M1442 719q0 -309 -211 -514t-541 -205h-510v639h-160v162h160v633h510q330 0 541 -203t211 -512zM395 201h289q248 0 391.5 144t143.5 373.5t-143.5 372t-389.5 142.5h-291v-432h371v-162h-371v-438z" glyph-name="Dcroat" horiz-adv-x="1564" unicode="Đ"/><glyph d="M1159 1227v-158h-135v-1069h-190v121q-117 -141 -306 -141q-190 0 -317 136t-127 334.5t127 335t317 136.5q180 0 299 -136v283h-401v158h401v207h197v-207h135zM287 450.5q0 -131.5 75.5 -214t192.5 -82.5q115 0 193.5 84t78.5 213q0 131 -78.5 214t-193.5 83 q-117 0 -192.5 -83t-75.5 -214.5z" glyph-name="dcroat" horiz-adv-x="1163" unicode="đ"/><glyph d="M1208 0h-1030v1434h1022v-197h-807v-418h756v-194h-756v-428h815v-197zM1053 1708v-160h-672v160h672z" glyph-name="Emacron" horiz-adv-x="1335" unicode="Ē"/><glyph d="M545 -20q-201 0 -331 133t-130 338q0 203 129 337t325.5 134t322.5 -133.5t126 -329.5q0 -51 -4 -78h-700q18 -111 90.5 -173.5t179.5 -62.5q88 0 148.5 36t76.5 95h189q-27 -129 -140.5 -212.5t-281.5 -83.5zM866 1243v-160h-651v160h651zM543 756q-102 0 -171 -61.5 t-87 -170.5h506q-14 111 -82 171.5t-166 60.5z" glyph-name="emacron" horiz-adv-x="1067" unicode="ē"/><glyph d="M1208 0h-1030v1434h1022v-197h-807v-418h756v-194h-756v-428h815v-197zM717 1540q-160 0 -246 86t-104 205h170q8 -59 56 -96t124 -37q78 0 125 37t55 96h170q-18 -119 -104 -205t-246 -86z" glyph-name="Ebreve" horiz-adv-x="1335" unicode="Ĕ"/><glyph d="M545 -20q-201 0 -331 133t-130 338q0 203 129 337t325.5 134t322.5 -133.5t126 -329.5q0 -51 -4 -78h-700q18 -111 90.5 -173.5t179.5 -62.5q88 0 148.5 36t76.5 95h189q-27 -129 -140.5 -212.5t-281.5 -83.5zM540.5 1051q-159.5 0 -243.5 88t-100 209h168 q8 -61 55 -101.5t120.5 -40.5t121 40t55.5 102h168q-16 -121 -100.5 -209t-244 -88zM543 756q-102 0 -171 -61.5t-87 -170.5h506q-14 111 -82 171.5t-166 60.5z" glyph-name="ebreve" horiz-adv-x="1067" unicode="ĕ"/><glyph d="M1208 0h-1030v1434h1022v-197h-807v-418h756v-194h-756v-428h815v-197zM588 1669q0 57 35.5 94t93 37t93.5 -37t36 -94q0 -55 -36 -92t-93.5 -37t-93 37t-35.5 92z" glyph-name="Edotaccent" horiz-adv-x="1335" unicode="Ė"/><glyph d="M545 -20q-201 0 -331 133t-130 338q0 203 129 337t325.5 134t322.5 -133.5t126 -329.5q0 -51 -4 -78h-700q18 -111 90.5 -173.5t179.5 -62.5q88 0 148.5 36t76.5 95h189q-27 -129 -140.5 -212.5t-281.5 -83.5zM543 756q-102 0 -171 -61.5t-87 -170.5h506 q-14 111 -82 171.5t-166 60.5zM416 1192q0 55 34.5 90t90 35t90.5 -35t35 -90q0 -53 -35 -89t-90.5 -36t-90 36t-34.5 89z" glyph-name="edotaccent" horiz-adv-x="1067" unicode="ė"/><glyph d="M1169 -215l52 -109q-86 -74 -217 -73q-96 0 -158 43t-62 125q0 133 179 229h-785v1434h1022v-197h-807v-418h756v-194h-756v-428h815v-197h-55q-190 -82 -190 -180q0 -63 88 -64q65 0 118 29z" glyph-name="Eogonek" horiz-adv-x="1335" unicode="Ę"/><glyph d="M915 -307q-100 -86 -233 -86q-109 0 -177.5 55t-68.5 141q0 100 92 177q-195 6 -319.5 139t-124.5 332q0 203 129 337t325.5 134t322.5 -133.5t126 -329.5q0 -51 -4 -78h-700q18 -111 90.5 -173.5t179.5 -62.5q88 0 148.5 36t76.5 95h189q-37 -172 -203 -249 q-158 -84 -158 -179q0 -45 33 -68.5t82 -23.5q70 0 125 43zM543 756q-102 0 -171 -61.5t-87 -170.5h506q-14 111 -82 171.5t-166 60.5z" glyph-name="eogonek" horiz-adv-x="1067" unicode="ę"/><glyph d="M1208 0h-1030v1434h1022v-197h-807v-418h756v-194h-756v-428h815v-197zM821 1546h-209l-252 299h193l164 -155l164 155h192z" glyph-name="Ecaron" horiz-adv-x="1335" unicode="Ě"/><glyph d="M545 -20q-201 0 -331 133t-130 338q0 203 129 337t325.5 134t322.5 -133.5t126 -329.5q0 -51 -4 -78h-700q18 -111 90.5 -173.5t179.5 -62.5q88 0 148.5 36t76.5 95h189q-27 -129 -140.5 -212.5t-281.5 -83.5zM645 1057h-209l-246 305h191l160 -166l159 166h191zM543 756 q-102 0 -171 -61.5t-87 -170.5h506q-14 111 -82 171.5t-166 60.5z" glyph-name="ecaron" horiz-adv-x="1067" unicode="ě"/><glyph d="M866 180q209 0 342 119t144 301h-480v188h695q8 -55 8 -102q0 -324 -203 -516.5t-508 -192.5q-319 0 -530 213t-211 527q0 311 215 525t532 214q252 0 437.5 -136t232.5 -351h-227q-39 127 -155 205.5t-286 78.5q-229 0 -377.5 -152.5t-148.5 -383.5q0 -233 146.5 -385 t373.5 -152zM758 1849h209l252 -299h-193l-164 156l-164 -156h-192z" glyph-name="Gcircumflex" horiz-adv-x="1691" unicode="Ĝ"/><glyph d="M834 29v108q-119 -139 -306 -139q-190 0 -317 134t-127 326.5t127 328t317 135.5q186 0 306 -140v119h192v-895q0 -203 -127 -322.5t-338 -119.5q-199 0 -316.5 93t-129.5 228h194q29 -154 248 -153q277 0 277 297zM829 459q0 123 -78.5 207t-195.5 84q-119 0 -194.5 -84 t-75.5 -207t75.5 -206t194.5 -83q117 0 195.5 84t78.5 205zM449 1362h208l246 -305h-190l-160 166l-160 -166h-190z" glyph-name="gcircumflex" horiz-adv-x="1165" unicode="ĝ"/><glyph d="M866 180q209 0 342 119t144 301h-480v188h695q8 -55 8 -102q0 -324 -203 -516.5t-508 -192.5q-319 0 -530 213t-211 527q0 311 215 525t532 214q252 0 437.5 -136t232.5 -351h-227q-39 127 -155 205.5t-286 78.5q-229 0 -377.5 -152.5t-148.5 -383.5q0 -233 146.5 -385 t373.5 -152zM862 1542q-160 0 -246 86t-104 205h170q8 -59 56 -96t124 -37q78 0 125 37t55 96h170q-18 -119 -104 -205t-246 -86z" glyph-name="Gbreve" horiz-adv-x="1691" unicode="Ğ"/><glyph d="M834 29v108q-119 -139 -306 -139q-190 0 -317 134t-127 326.5t127 328t317 135.5q186 0 306 -140v119h192v-895q0 -203 -127 -322.5t-338 -119.5q-199 0 -316.5 93t-129.5 228h194q29 -154 248 -153q277 0 277 297zM829 459q0 123 -78.5 207t-195.5 84q-119 0 -194.5 -84 t-75.5 -207t75.5 -206t194.5 -83q117 0 195.5 84t78.5 205zM553 1051q-160 0 -244 88t-100 209h168q8 -61 55 -101.5t121 -40.5t121 40t55 102h168q-16 -121 -100 -209t-244 -88z" glyph-name="gbreve" horiz-adv-x="1165" unicode="ğ"/><glyph d="M866 180q209 0 342 119t144 301h-480v188h695q8 -55 8 -102q0 -324 -203 -516.5t-508 -192.5q-319 0 -530 213t-211 527q0 311 215 525t532 214q252 0 437.5 -136t232.5 -351h-227q-39 127 -155 205.5t-286 78.5q-229 0 -377.5 -152.5t-148.5 -383.5q0 -233 146.5 -385 t373.5 -152zM733 1671q0 57 36 94t93.5 37t93 -36.5t35.5 -94.5q0 -55 -35.5 -92t-93 -37t-93.5 37t-36 92z" glyph-name="Gdotaccent" horiz-adv-x="1691" unicode="Ġ"/><glyph d="M834 29v108q-119 -139 -306 -139q-190 0 -317 134t-127 326.5t127 328t317 135.5q186 0 306 -140v119h192v-895q0 -203 -127 -322.5t-338 -119.5q-199 0 -316.5 93t-129.5 228h194q29 -154 248 -153q277 0 277 297zM829 459q0 123 -78.5 207t-195.5 84q-119 0 -194.5 -84 t-75.5 -207t75.5 -206t194.5 -83q117 0 195.5 84t78.5 205zM428 1192q0 55 35 90t90 35t90 -35t35 -90q0 -53 -35 -89t-90 -36t-90 36t-35 89z" glyph-name="gdotaccent" horiz-adv-x="1165" unicode="ġ"/><glyph d="M866 180q209 0 342 119t144 301h-480v188h695q8 -55 8 -102q0 -324 -203 -516.5t-508 -192.5q-319 0 -530 213t-211 527q0 311 215 525t532 214q252 0 437.5 -136t232.5 -351h-227q-39 127 -155 205.5t-286 78.5q-229 0 -377.5 -152.5t-148.5 -383.5q0 -233 146.5 -385 t373.5 -152zM983 -88l-90 -369h-168l45 369h213z" glyph-name="Gcommaaccent" horiz-adv-x="1691" unicode="Ģ"/><glyph d="M834 29v108q-119 -139 -306 -139q-190 0 -317 134t-127 326.5t127 328t317 135.5q186 0 306 -140v119h192v-895q0 -203 -127 -322.5t-338 -119.5q-199 0 -316.5 93t-129.5 228h194q29 -154 248 -153q277 0 277 297zM829 459q0 123 -78.5 207t-195.5 84q-119 0 -194.5 -84 t-75.5 -207t75.5 -206t194.5 -83q117 0 195.5 84t78.5 205zM449 1059l86 360h161l-45 -360h-202z" glyph-name="gcommaaccent" horiz-adv-x="1165" unicode="ģ"/><glyph d="M393 823h785v611h215v-1434h-215v621h-785v-621h-215v1434h215v-611zM680 1847h209l252 -299h-193l-164 156l-163 -156h-193z" glyph-name="Hcircumflex" horiz-adv-x="1570" unicode="Ĥ"/><glyph d="M631 922q166 0 265 -102.5t99 -268.5v-551h-196v496q0 115 -58.5 181t-165 66t-173 -69.5t-66.5 -186.5v-487h-197v1434h197v-650q100 138 295 138zM475 1847h209l252 -299h-193l-163 156l-164 -156h-193z" glyph-name="hcircumflex" horiz-adv-x="1124" unicode="ĥ"/><glyph d="M1552 1221v-162h-157v-1059h-215v621h-785v-621h-215v1059h-157v162h157v213h215v-213h785v213h215v-213h157zM395 823h785v236h-785v-236z" glyph-name="Hbar" horiz-adv-x="1574" unicode="Ħ"/><glyph d="M735 1227v-158h-399v-285q100 137 295 138q166 0 265 -102.5t99 -268.5v-551h-196v496q0 115 -58.5 181t-165 66t-173 -69.5t-66.5 -186.5v-487h-197v1069h-137v158h137v207h197v-207h399z" glyph-name="hbar" horiz-adv-x="1124" unicode="ħ"/><glyph d="M401 1434v-1434h-217v1434h217zM512 1778l129 -23q-45 -215 -207 -215q-55 0 -143 40t-127 40q-66 0 -90 -76l-129 21q45 217 207 217q55 0 143 -40t127 -40q65 0 90 76z" glyph-name="Itilde" horiz-adv-x="585" unicode="Ĩ"/><glyph d="M338 901v-901h-197v901h197zM557 1268q-45 -215 -195 -215q-45 0 -122.5 36.5t-110.5 36.5q-53 0 -78 -71l-129 20q45 213 195 213q45 0 123.5 -37t109.5 -37q53 0 80 72z" glyph-name="itilde" horiz-adv-x="479" unicode="ĩ"/><glyph d="M401 1434v-1434h-217v1434h217zM629 1708v-160h-672v160h672z" glyph-name="Imacron" horiz-adv-x="585" unicode="Ī"/><glyph d="M338 901v-901h-197v901h197zM528 1249v-157h-577v157h577z" glyph-name="imacron" horiz-adv-x="479" unicode="ī"/><glyph d="M401 1434v-1434h-217v1434h217zM293 1540q-160 0 -246 86t-104 205h170q8 -59 56 -96t124 -37q78 0 125 37t55 96h170q-18 -119 -104 -205t-246 -86z" glyph-name="Ibreve" horiz-adv-x="585" unicode="Ĭ"/><glyph d="M338 901v-901h-197v901h197zM239.5 1049q-145.5 0 -226.5 89t-91 208h168q4 -59 44 -100.5t105.5 -41.5t105.5 41t44 101h168q-10 -119 -91 -208t-226.5 -89z" glyph-name="ibreve" horiz-adv-x="479" unicode="ĭ"/><glyph d="M410 -219l51 -109q-88 -70 -211 -69q-96 0 -157.5 45t-61.5 127q0 131 153 225v1434h217v-1434h-30q-160 -70 -160 -176q0 -68 86 -68q64 0 113 25z" glyph-name="Iogonek" horiz-adv-x="585" unicode="Į"/><glyph d="M397 -215l52 -102q-84 -76 -205 -76q-94 0 -153.5 47t-59.5 129q0 119 137 217h-27v901h197v-901q-137 -68 -137 -166q0 -78 88 -78q63 0 108 29zM117 1196q0 55 33.5 90t89 35t90.5 -35t35 -90q0 -53 -35 -88t-90.5 -35t-89 35t-33.5 88z" glyph-name="iogonek" horiz-adv-x="479" unicode="į"/><glyph d="M401 1434v-1434h-217v1434h217zM164 1669q0 57 36 94t93 37t93 -37t36 -94q0 -55 -36 -92t-93 -37t-93 37t-36 92z" glyph-name="Idotaccent" horiz-adv-x="585" unicode="İ"/><glyph d="M338 901v-901h-197v901h197z" glyph-name="dotlessi" horiz-adv-x="479" unicode="ı"/><glyph d="M401 1434v-1434h-217v1434h217zM1642 1434v-926q0 -256 -136 -393.5t-363 -137.5q-223 0 -347 112t-143 300h209q31 -207 277 -207q289 0 288 350v902h215z" glyph-name="IJ" horiz-adv-x="1806" unicode="Ĳ"/><glyph d="M338 901v-901h-197v901h197zM117 1196q0 55 33.5 90t89 35t90.5 -35t35 -90q0 -53 -35 -88t-90.5 -35t-89 35t-33.5 88zM627 -98v999h196v-1024q0 -332 -286 -332q-45 0 -127 15v172q43 -6 79 -6q74 0 106 42t32 134zM602 1196q0 55 34 90t89 35t90 -35t35 -90 q0 -53 -35 -88t-90 -35t-89 35t-34 88z" glyph-name="ij" horiz-adv-x="966" unicode="ĳ"/><glyph d="M1057 1434v-926q0 -256 -136.5 -393.5t-363.5 -137.5q-223 0 -347 112t-142 300h208q31 -207 277 -207q289 0 289 350v902h215zM844 1847h209l252 -299h-193l-164 156l-164 -156h-192z" glyph-name="Jcircumflex" horiz-adv-x="1222" unicode="Ĵ"/><glyph d="M147 -98v999h197v-1024q0 -332 -287 -332q-45 0 -127 15v172q43 -6 80 -6q74 0 105.5 42t31.5 134zM141 1362h209l246 -305h-190l-160 166l-160 -166h-190z" glyph-name="jcircumflex" horiz-adv-x="485" unicode="ĵ"/><glyph d="M1391 1434l-615 -641l647 -793h-264l-524 645l-242 -252v-393h-215v1434h215v-762l727 762h271zM883 -88l-90 -369h-168l45 369h213z" glyph-name="Kcommaaccent" horiz-adv-x="1447" unicode="Ķ"/><glyph d="M995 901l-407 -377l413 -524h-233l-313 399l-119 -108v-291h-197v1434h197v-914l405 381h254zM668 -88l-88 -361h-162l45 361h205z" glyph-name="kcommaaccent" horiz-adv-x="1026" unicode="ķ"/><glyph d="M995 901l-407 -377l413 -524h-233l-313 399l-119 -108v-291h-197v901h197v-381l405 381h254z" glyph-name="kgreenlandic" horiz-adv-x="1026" unicode="ĸ"/><glyph d="M1169 0h-991v1434h215v-1233h776v-201zM461 1917l139 -148l-311 -229l-90 92z" glyph-name="Lacute" horiz-adv-x="1232" unicode="Ĺ"/><glyph d="M338 1434v-1434h-197v1434h197zM414 1907l139 -148l-311 -229l-90 92z" glyph-name="lacute" horiz-adv-x="479" unicode="ĺ"/><glyph d="M1169 0h-991v1434h215v-1233h776v-201zM827 -88l-90 -369h-168l45 369h213z" glyph-name="Lcommaaccent" horiz-adv-x="1232" unicode="Ļ"/><glyph d="M338 1434v-1434h-197v1434h197zM344 -88l-88 -361h-162l45 361h205z" glyph-name="lcommaaccent" horiz-adv-x="479" unicode="ļ"/><glyph d="M1169 0h-991v1434h215v-1233h776v-201zM612 1004l15 430h211l-72 -430h-154z" glyph-name="Lcaron" horiz-adv-x="1232" unicode="Ľ"/><glyph d="M338 1434v-1434h-197v1434h197zM440 1010l15 424h207l-70 -424h-152z" glyph-name="lcaron" horiz-adv-x="563" unicode="ľ"/><glyph d="M1169 0h-991v1434h215v-1233h776v-201zM686 729q0 59 40 99t101.5 40t101.5 -40t40 -99t-40 -100t-101.5 -41t-101.5 41t-40 100z" glyph-name="Ldot" horiz-adv-x="1232" unicode="Ŀ"/><glyph d="M338 1434v-1434h-197v1434h197zM444 520.5q0 59.5 39 97t98.5 37.5t98.5 -37.5t39 -97t-39 -99.5t-98.5 -40t-98.5 40t-39 99.5z" glyph-name="ldot" horiz-adv-x="686" unicode="ŀ"/><glyph d="M760 1008l82 -140l-443 -254v-413h777v-201h-992v489l-90 -51l-82 140l172 98v758h215v-633z" glyph-name="Lslash" horiz-adv-x="1239" unicode="Ł"/><glyph d="M483 918l80 -138l-182 -106v-674h-197v559l-104 -59l-80 139l184 106v689h197v-576z" glyph-name="lslash" horiz-adv-x="563" unicode="ł"/><glyph d="M178 1436h201l829 -1096v1094h211v-1436h-198l-830 1092v-1090h-213v1436zM973 1917l139 -148l-311 -229l-90 92z" glyph-name="Nacute" horiz-adv-x="1597" unicode="Ń"/><glyph d="M631 922q166 0 265 -102.5t99 -268.5v-551h-196v496q0 115 -58.5 181t-165 66t-173 -69.5t-66.5 -186.5v-487h-197v901h191v-125q98 146 301 146zM766 1440l139 -144l-325 -256l-91 90z" glyph-name="nacute" horiz-adv-x="1124" unicode="ń"/><glyph d="M178 1436h201l829 -1096v1094h211v-1436h-198l-830 1092v-1090h-213v1436zM907 -88l-90 -369h-168l45 369h213z" glyph-name="Ncommaaccent" horiz-adv-x="1597" unicode="Ņ"/><glyph d="M631 922q166 0 265 -102.5t99 -268.5v-551h-196v496q0 115 -58.5 181t-165 66t-173 -69.5t-66.5 -186.5v-487h-197v901h191v-125q98 146 301 146zM674 -88l-88 -361h-162l45 361h205z" glyph-name="ncommaaccent" horiz-adv-x="1124" unicode="ņ"/><glyph d="M178 1436h201l829 -1096v1094h211v-1436h-198l-830 1092v-1090h-213v1436zM903 1546h-209l-252 299h193l164 -155l164 155h192z" glyph-name="Ncaron" horiz-adv-x="1597" unicode="Ň"/><glyph d="M631 922q166 0 265 -102.5t99 -268.5v-551h-196v496q0 115 -58.5 181t-165 66t-173 -69.5t-66.5 -186.5v-487h-197v901h191v-125q98 146 301 146zM684 1057h-209l-246 305h191l160 -166l159 166h191z" glyph-name="ncaron" horiz-adv-x="1124" unicode="ň"/><glyph d="M942 922q166 0 265.5 -102.5t99.5 -268.5v-551h-197v496q0 115 -58.5 181t-165 66t-173 -69.5t-66.5 -186.5v-487h-196v901h190v-125q98 146 301 146zM51 846l94 608h236l-166 -608h-164z" glyph-name="napostrophe" horiz-adv-x="1435" unicode="ŉ"/><glyph d="M1219 -2l-828 1092v-1090h-213v1436h201l829 -1096v1094h211v-1536q0 -170 -84 -261.5t-245 -91.5q-133 0 -209 25v170q68 -14 149 -14q100 0 144.5 46t44.5 148v78z" glyph-name="Eng" horiz-adv-x="1597" unicode="Ŋ"/><glyph d="M799 -98v594q0 115 -58.5 181t-165 66t-173 -69.5t-66.5 -186.5v-487h-197v901h191v-125q98 145 301 146q166 0 265 -102.5t99 -268.5v-674q0 -332 -286 -332q-45 0 -127 15v172q39 -6 80 -6q74 0 105.5 42t31.5 134z" glyph-name="eng" horiz-adv-x="1124" unicode="ŋ"/><glyph d="M868.5 1456q311.5 0 528.5 -215t217 -524t-217 -524.5t-528.5 -215.5t-528.5 215.5t-217 524.5t217 524t528.5 215zM868 182q219 0 370 152.5t151 382t-151 382t-370 152.5t-370.5 -152.5t-151.5 -382t151.5 -382t370.5 -152.5zM1204 1708v-160h-672v160h672z" glyph-name="Omacron" horiz-adv-x="1736" unicode="Ō"/><glyph d="M559 922q199 0 337 -136.5t138 -334.5q0 -197 -138 -334t-337 -137t-337 137t-138 334q0 199 138 335t337 136zM559 156q117 0 194.5 83t77.5 212t-77.5 211.5t-194.5 82.5t-194.5 -82.5t-77.5 -211.5t77.5 -212t194.5 -83zM885 1243v-160h-652v160h652z" glyph-name="omacron" horiz-adv-x="1118" unicode="ō"/><glyph d="M868.5 1456q311.5 0 528.5 -215t217 -524t-217 -524.5t-528.5 -215.5t-528.5 215.5t-217 524.5t217 524t528.5 215zM868 182q219 0 370 152.5t151 382t-151 382t-370 152.5t-370.5 -152.5t-151.5 -382t151.5 -382t370.5 -152.5zM868.5 1540q-159.5 0 -245.5 86t-105 205 h170q8 -59 56.5 -96t123.5 -37q78 0 125 37t56 96h170q-18 -119 -104.5 -205t-246 -86z" glyph-name="Obreve" horiz-adv-x="1736" unicode="Ŏ"/><glyph d="M559 922q199 0 337 -136.5t138 -334.5q0 -197 -138 -334t-337 -137t-337 137t-138 334q0 199 138 335t337 136zM559 156q117 0 194.5 83t77.5 212t-77.5 211.5t-194.5 82.5t-194.5 -82.5t-77.5 -211.5t77.5 -212t194.5 -83zM559 1051q-160 0 -244 88t-100 209h168 q8 -61 55 -101.5t121 -40.5t121 40t55 102h168q-16 -121 -100 -209t-244 -88z" glyph-name="obreve" horiz-adv-x="1118" unicode="ŏ"/><glyph d="M868.5 1456q311.5 0 528.5 -215t217 -524t-217 -524.5t-528.5 -215.5t-528.5 215.5t-217 524.5t217 524t528.5 215zM868 182q219 0 370 152.5t151 382t-151 382t-370 152.5t-370.5 -152.5t-151.5 -382t151.5 -382t370.5 -152.5zM918 1825l-216 -287l-114 64l157 325z M1309 1825l-215 -287l-115 64l158 325z" glyph-name="Ohungarumlaut" horiz-adv-x="1736" unicode="Ő"/><glyph d="M559 922q199 0 337 -136.5t138 -334.5q0 -197 -138 -334t-337 -137t-337 137t-138 334q0 199 138 335t337 136zM559 156q117 0 194.5 83t77.5 212t-77.5 211.5t-194.5 82.5t-194.5 -82.5t-77.5 -211.5t77.5 -212t194.5 -83zM627 1354l-224 -305l-112 63l168 342z M999 1354l-223 -305l-112 63l167 342z" glyph-name="ohungarumlaut" horiz-adv-x="1118" unicode="ő"/><glyph d="M2189 0h-1315q-330 0 -540.5 205t-210.5 514q0 307 210 511t539 204h1309v-197h-805v-418h754v-194h-754v-428h813v-197zM881 201h278v1032h-280q-246 0 -389.5 -142.5t-143.5 -372t143.5 -373.5t391.5 -144z" glyph-name="OE" horiz-adv-x="2318" unicode="Œ"/><glyph d="M1286 -20q-227 0 -360 180q-137 -180 -367 -180q-199 0 -337 137t-138 334q0 199 138 335t337 136q229 0 369 -183q129 182 358 183q186 0 311 -135.5t125 -327.5q0 -27 -4 -80h-688q20 -109 92 -170.5t172 -61.5q86 0 144.5 35t74.5 97h189q-27 -131 -137.5 -215 t-278.5 -84zM559 156q117 0 194.5 83t77.5 212t-77.5 211.5t-194.5 82.5t-194.5 -82.5t-77.5 -211.5t77.5 -212t194.5 -83zM1284 754q-96 0 -165.5 -61.5t-88.5 -168.5h494q-16 106 -83 168t-157 62z" glyph-name="oe" horiz-adv-x="1802" unicode="œ"/><glyph d="M393 512v-512h-215v1434h637q248 0 384 -124t136 -333q0 -178 -104.5 -299t-292.5 -154l408 -524h-246l-400 512h-307zM393 707h395q160 0 243 68.5t83 197.5q0 264 -326 264h-395v-530zM901 1917l139 -148l-311 -229l-90 92z" glyph-name="Racute" horiz-adv-x="1449" unicode="Ŕ"/><glyph d="M694 903v-184q-27 6 -80 6q-135 0 -206.5 -82t-71.5 -221v-422h-197v901h191v-153q88 162 295 161q42 0 69 -6zM625 1440l139 -144l-326 -256l-90 90z" glyph-name="racute" horiz-adv-x="743" unicode="ŕ"/><glyph d="M393 512v-512h-215v1434h637q248 0 384 -124t136 -333q0 -178 -104.5 -299t-292.5 -154l408 -524h-246l-400 512h-307zM393 707h395q160 0 243 68.5t83 197.5q0 264 -326 264h-395v-530zM834 -88l-91 -369h-168l46 369h213z" glyph-name="Rcommaaccent" horiz-adv-x="1449" unicode="Ŗ"/><glyph d="M694 903v-184q-27 6 -80 6q-135 0 -206.5 -82t-71.5 -221v-422h-197v901h191v-153q88 162 295 161q42 0 69 -6zM342 -90l-88 -361h-162l45 361h205z" glyph-name="rcommaaccent" horiz-adv-x="743" unicode="ŗ"/><glyph d="M393 512v-512h-215v1434h637q248 0 384 -124t136 -333q0 -178 -104.5 -299t-292.5 -154l408 -524h-246l-400 512h-307zM393 707h395q160 0 243 68.5t83 197.5q0 264 -326 264h-395v-530zM831 1548h-208l-252 299h192l164 -155l164 155h192z" glyph-name="Rcaron" horiz-adv-x="1449" unicode="Ř"/><glyph d="M694 903v-184q-27 6 -80 6q-135 0 -206.5 -82t-71.5 -221v-422h-197v901h191v-153q88 162 295 161q42 0 69 -6zM541 1057h-209l-246 305h190l160 -166l160 166h190z" glyph-name="rcaron" horiz-adv-x="743" unicode="ř"/><glyph d="M657 172q145 0 231.5 58.5t86.5 162.5q0 80 -59.5 132.5t-190.5 80.5l-184 41q-416 90 -416 406q0 188 135 294.5t373 106.5q225 0 359 -99.5t155 -271.5h-209q-14 86 -95 132.5t-210 46.5q-137 0 -214 -52.5t-77 -154.5q0 -88 68.5 -138.5t214.5 -82.5l184 -41 q201 -43 292 -138.5t91 -251.5q0 -205 -146.5 -314t-388.5 -109q-246 0 -395 104t-168 293h211q28 -205 352 -205zM801 1919l139 -147l-311 -230l-90 92z" glyph-name="Sacute" horiz-adv-x="1302" unicode="Ś"/><glyph d="M430 139q78 0 125 29t47 82q0 51 -32.5 75.5t-125.5 43.5l-90 20q-272 53 -272 262q0 123 92 196t246 73q328 0 354 -265h-180q-14 106 -168 107q-70 0 -112 -27.5t-42 -77.5q0 -53 38 -77.5t124 -40.5l88 -19q272 -51 273 -264q0 -127 -96.5 -200.5t-266.5 -73.5 q-174 0 -268 74.5t-107 197.5h181q16 -115 192 -115zM606 1440l139 -144l-325 -256l-90 90z" glyph-name="sacute" horiz-adv-x="856" unicode="ś"/><glyph d="M657 172q145 0 231.5 58.5t86.5 162.5q0 80 -59.5 132.5t-190.5 80.5l-184 41q-416 90 -416 406q0 188 135 294.5t373 106.5q225 0 359 -99.5t155 -271.5h-209q-14 86 -95 132.5t-210 46.5q-137 0 -214 -52.5t-77 -154.5q0 -88 68.5 -138.5t214.5 -82.5l184 -41 q201 -43 292 -138.5t91 -251.5q0 -205 -146.5 -314t-388.5 -109q-246 0 -395 104t-168 293h211q28 -205 352 -205zM532 1847h209l252 -299h-192l-164 156l-164 -156h-192z" glyph-name="Scircumflex" horiz-adv-x="1302" unicode="Ŝ"/><glyph d="M430 139q78 0 125 29t47 82q0 51 -32.5 75.5t-125.5 43.5l-90 20q-272 53 -272 262q0 123 92 196t246 73q328 0 354 -265h-180q-14 106 -168 107q-70 0 -112 -27.5t-42 -77.5q0 -53 38 -77.5t124 -40.5l88 -19q272 -51 273 -264q0 -127 -96.5 -200.5t-266.5 -73.5 q-174 0 -268 74.5t-107 197.5h181q16 -115 192 -115zM315 1362h209l246 -305h-190l-160 166l-160 -166h-190z" glyph-name="scircumflex" horiz-adv-x="856" unicode="ŝ"/><glyph d="M649 -340h-209l123 324q-207 18 -329.5 120.5t-139.5 272.5h211q29 -205 352 -205q145 0 231.5 58.5t86.5 162.5q0 80 -59.5 132.5t-190.5 80.5l-184 41q-416 90 -416 406q0 188 135 294.5t373 106.5q225 0 359 -99.5t155 -271.5h-209q-14 86 -95 132.5t-210 46.5 q-137 0 -214 -52.5t-77 -154.5q0 -88 68.5 -138.5t214.5 -82.5l184 -41q201 -43 292 -138.5t91 -251.5q0 -184 -121 -292.5t-328 -126.5z" glyph-name="Scedilla" horiz-adv-x="1302" unicode="Ş"/><glyph d="M428 -334h-199l119 322q-133 16 -206.5 86.5t-84.5 179.5h181q16 -115 192 -115q78 0 125 29t47 82q0 51 -32.5 75.5t-125.5 43.5l-90 20q-272 53 -272 262q0 123 92 196t246 73q328 0 354 -265h-180q-14 106 -168 107q-70 0 -112 -27.5t-42 -77.5q0 -53 38 -77.5 t124 -40.5l88 -19q272 -51 273 -264q0 -109 -72 -179.5t-201 -88.5z" glyph-name="scedilla" horiz-adv-x="856" unicode="ş"/><glyph d="M657 172q145 0 231.5 58.5t86.5 162.5q0 80 -59.5 132.5t-190.5 80.5l-184 41q-416 90 -416 406q0 188 135 294.5t373 106.5q225 0 359 -99.5t155 -271.5h-209q-14 86 -95 132.5t-210 46.5q-137 0 -214 -52.5t-77 -154.5q0 -88 68.5 -138.5t214.5 -82.5l184 -41 q201 -43 292 -138.5t91 -251.5q0 -205 -146.5 -314t-388.5 -109q-246 0 -395 104t-168 293h211q28 -205 352 -205zM741 1548h-209l-251 299h192l164 -155l164 155h192z" glyph-name="Scaron" horiz-adv-x="1302" unicode="Š"/><glyph d="M430 139q78 0 125 29t47 82q0 51 -32.5 75.5t-125.5 43.5l-90 20q-272 53 -272 262q0 123 92 196t246 73q328 0 354 -265h-180q-14 106 -168 107q-70 0 -112 -27.5t-42 -77.5q0 -53 38 -77.5t124 -40.5l88 -19q272 -51 273 -264q0 -127 -96.5 -200.5t-266.5 -73.5 q-174 0 -268 74.5t-107 197.5h181q16 -115 192 -115zM524 1057h-209l-245 305h190l160 -166l160 166h190z" glyph-name="scaron" horiz-adv-x="856" unicode="š"/><glyph d="M1204 1434v-199h-467v-1235h-215v1235h-467v199h1149zM737 -88l-90 -369h-168l45 369h213z" glyph-name="Tcommaaccent" horiz-adv-x="1259" unicode="Ţ"/><glyph d="M55 901h172v277h191v-277h315v-174h-315v-397q0 -94 41 -130t131 -36q74 0 149 22v-172q-80 -31 -188 -30q-160 0 -245 72.5t-85 242.5v428h-166v174zM627 -88l-88 -361h-162l45 361h205z" glyph-name="tcommaaccent" horiz-adv-x="815" unicode="ţ"/><glyph d="M1204 1434v-199h-467v-1235h-215v1235h-467v199h1149zM733 1548h-209l-252 299h193l164 -155l164 155h192z" glyph-name="Tcaron" horiz-adv-x="1259" unicode="Ť"/><glyph d="M55 901h172v277h191v-277h315v-174h-315v-397q0 -94 41 -130t131 -36q74 0 149 22v-172q-80 -31 -188 -30q-160 0 -245 72.5t-85 242.5v428h-166v174zM553 1036l14 424h207l-69 -424h-152z" glyph-name="tcaron" horiz-adv-x="815" unicode="ť"/><glyph d="M1001 772v-162h-264v-610h-215v610h-266v162h266v463h-467v199h1149v-199h-467v-463h264z" glyph-name="Tbar" horiz-adv-x="1259" unicode="Ŧ"/><glyph d="M418 1178v-277h315v-174h-315v-190h276v-152h-276v-55q0 -94 41 -130t131 -36q74 0 149 22v-172q-80 -31 -188 -30q-160 0 -245 72.5t-85 242.5v86h-162v152h162v190h-166v174h172v277h191z" glyph-name="tbar" horiz-adv-x="815" unicode="ŧ"/><glyph d="M776 -23q-268 0 -437 157t-169 448v852h217v-824q0 -213 103.5 -321.5t288 -108.5t287.5 108.5t103 321.5v824h215v-852q0 -291 -170 -448t-438 -157zM997 1778l129 -23q-45 -215 -206 -215q-55 0 -143.5 40t-127.5 40q-66 0 -90 -76l-129 21q45 217 207 217 q55 0 143 -40t127 -40q65 0 90 76z" glyph-name="Utilde" horiz-adv-x="1552" unicode="Ũ"/><glyph d="M492 -20q-164 0 -263.5 102t-99.5 268v551h197v-495q0 -115 56 -180.5t163 -65.5q109 0 174 68.5t65 185.5v487h197v-901h-190v127q-94 -147 -299 -147zM895 1268q-45 -219 -203 -219q-51 0 -138 40.5t-124 40.5q-63 0 -88 -75l-127 20q45 217 203 217q51 0 138 -41 t124 -41q63 0 88 76z" glyph-name="utilde" horiz-adv-x="1120" unicode="ũ"/><glyph d="M776 -23q-268 0 -437 157t-169 448v852h217v-824q0 -213 103.5 -321.5t288 -108.5t287.5 108.5t103 321.5v824h215v-852q0 -291 -170 -448t-438 -157zM1114 1708v-160h-672v160h672z" glyph-name="Umacron" horiz-adv-x="1552" unicode="Ū"/><glyph d="M492 -20q-164 0 -263.5 102t-99.5 268v551h197v-495q0 -115 56 -180.5t163 -65.5q109 0 174 68.5t65 185.5v487h197v-901h-190v127q-94 -147 -299 -147zM881 1243v-160h-652v160h652z" glyph-name="umacron" horiz-adv-x="1120" unicode="ū"/><glyph d="M776 -23q-268 0 -437 157t-169 448v852h217v-824q0 -213 103.5 -321.5t288 -108.5t287.5 108.5t103 321.5v824h215v-852q0 -291 -170 -448t-438 -157zM778 1540q-160 0 -246 86t-104 205h170q8 -59 56 -96t124 -37q78 0 125 37t55 96h170q-18 -119 -104 -205t-246 -86z " glyph-name="Ubreve" horiz-adv-x="1552" unicode="Ŭ"/><glyph d="M492 -20q-164 0 -263.5 102t-99.5 268v551h197v-495q0 -115 56 -180.5t163 -65.5q109 0 174 68.5t65 185.5v487h197v-901h-190v127q-94 -147 -299 -147zM555 1051q-160 0 -244 88t-100 209h168q8 -61 55 -101.5t121 -40.5t121 40t55 102h168q-16 -121 -100 -209t-244 -88 z" glyph-name="ubreve" horiz-adv-x="1120" unicode="ŭ"/><glyph d="M776 -23q-268 0 -437 157t-169 448v852h217v-824q0 -213 103.5 -321.5t288 -108.5t287.5 108.5t103 321.5v824h215v-852q0 -291 -170 -448t-438 -157zM778 1649q47 0 78 30.5t31 77.5t-31 78t-78 31t-76.5 -31t-29.5 -78t29.5 -77.5t76.5 -30.5zM778 1540 q-96 0 -160.5 62.5t-64.5 154.5q0 94 64.5 156.5t160.5 62.5t161 -62.5t65 -156.5q0 -92 -65 -154.5t-161 -62.5z" glyph-name="Uring" horiz-adv-x="1552" unicode="Ů"/><glyph d="M492 -20q-164 0 -263.5 102t-99.5 268v551h197v-495q0 -115 56 -180.5t163 -65.5q109 0 174 68.5t65 185.5v487h197v-901h-190v127q-94 -147 -299 -147zM555 1032q-94 0 -158.5 62.5t-64.5 154.5t64.5 154.5t158.5 62.5q96 0 159.5 -62.5t63.5 -154.5t-63.5 -154.5 t-159.5 -62.5zM555 1141q47 0 78 30.5t31 77.5t-31 78t-78 31t-78 -31t-31 -78t31 -77.5t78 -30.5z" glyph-name="uring" horiz-adv-x="1120" unicode="ů"/><glyph d="M776 -23q-268 0 -437 157t-169 448v852h217v-824q0 -213 103.5 -321.5t288 -108.5t287.5 108.5t103 321.5v824h215v-852q0 -291 -170 -448t-438 -157zM827 1825l-215 -287l-114 64l157 325zM1219 1825l-215 -287l-115 64l158 325z" glyph-name="Uhungarumlaut" horiz-adv-x="1552" unicode="Ű"/><glyph d="M492 -20q-164 0 -263.5 102t-99.5 268v551h197v-495q0 -115 56 -180.5t163 -65.5q109 0 174 68.5t65 185.5v487h197v-901h-190v127q-94 -147 -299 -147zM961 1354l-224 -305l-112 63l168 342zM588 1354l-223 -305l-113 63l168 342z" glyph-name="uhungarumlaut" horiz-adv-x="1120" unicode="ű"/><glyph d="M776 -23q-268 0 -437 157t-169 448v852h217v-824q0 -213 103.5 -321.5t288 -108.5t287.5 108.5t103 321.5v824h215v-852q0 -215 -96 -358.5t-264 -205.5q-158 -80 -158 -182q0 -80 88 -80q61 0 123 31l51 -106q-94 -78 -221 -78q-98 0 -159.5 48t-61.5 136q0 106 98 190 h-8z" glyph-name="Uogonek" horiz-adv-x="1552" unicode="Ų"/><glyph d="M991 -213l51 -109q-84 -72 -211 -71q-92 0 -152.5 43t-60.5 121q0 133 173 229v127q-94 -147 -299 -147q-164 0 -263.5 102t-99.5 268v551h197v-495q0 -115 56 -180.5t163 -65.5q109 0 174 68.5t65 185.5v487h197v-901q-184 -86 -184 -182q0 -61 82 -62q57 0 112 31z" glyph-name="uogonek" horiz-adv-x="1120" unicode="ų"/><glyph d="M1239 1434l373 -1125l379 1125h219l-494 -1438h-207l-372 1104l-373 -1104h-205l-493 1438h229l369 -1117l378 1117h197zM1034 1847h209l252 -299h-192l-164 156l-164 -156h-193z" glyph-name="Wcircumflex" horiz-adv-x="2275" unicode="Ŵ"/><glyph d="M1030 -2l-231 639l-240 -639h-170l-342 903h211l225 -635l240 635h174l221 -639l236 639h192l-342 -903h-174zM694 1362h209l246 -305h-191l-159 166l-160 -166h-190z" glyph-name="wcircumflex" horiz-adv-x="1593" unicode="ŵ"/><glyph d="M268 1434l439 -684l440 684h244l-578 -887v-547h-215v545l-575 889h245zM602 1847h209l252 -299h-193l-163 156l-164 -156h-193z" glyph-name="Ycircumflex" horiz-adv-x="1413" unicode="Ŷ"/><glyph d="M250 901l276 -577l262 577h213l-630 -1343h-211l264 557l-389 786h215zM422 1362h209l246 -305h-191l-160 166l-159 -166h-191z" glyph-name="ycircumflex" horiz-adv-x="1034" unicode="ŷ"/><glyph d="M268 1434l439 -684l440 684h244l-578 -887v-547h-215v545l-575 889h245zM358 1663q0 53 35 89t90 36q57 0 92 -36t35 -89q0 -55 -34.5 -91t-92.5 -36q-55 0 -90 36t-35 91zM803 1663q0 53 34.5 89t92.5 36q55 0 90 -36t35 -89q0 -55 -35 -91t-90 -36q-57 0 -92 36t-35 91 z" glyph-name="Ydieresis" horiz-adv-x="1413" unicode="Ÿ"/><glyph d="M1264 197v-197h-1139v156l840 1081h-830v197h1118v-156l-837 -1081h848zM864 1917l140 -148l-312 -229l-90 92z" glyph-name="Zacute" horiz-adv-x="1392" unicode="Ź"/><glyph d="M115 729v172h770v-135l-516 -592h520v-174h-795v137l518 592h-497zM690 1440l139 -144l-325 -256l-90 90z" glyph-name="zacute" horiz-adv-x="980" unicode="ź"/><glyph d="M1264 197v-197h-1139v156l840 1081h-830v197h1118v-156l-837 -1081h848zM561 1669q0 57 36 94t93.5 37t93 -37t35.5 -94q0 -55 -35.5 -92t-93 -37t-93.5 37t-36 92z" glyph-name="Zdotaccent" horiz-adv-x="1392" unicode="Ż"/><glyph d="M115 729v172h770v-135l-516 -592h520v-174h-795v137l518 592h-497zM377 1192q0 55 34.5 90t90 35t90.5 -35t35 -90q0 -53 -35 -89t-90.5 -36t-90 36t-34.5 89z" glyph-name="zdotaccent" horiz-adv-x="980" unicode="ż"/><glyph d="M1264 197v-197h-1139v156l840 1081h-830v197h1118v-156l-837 -1081h848zM795 1548h-209l-252 299h192l164 -155l164 155h193z" glyph-name="Zcaron" horiz-adv-x="1392" unicode="Ž"/><glyph d="M115 729v172h770v-135l-516 -592h520v-174h-795v137l518 592h-497zM606 1057h-209l-245 305h190l160 -166l160 166h190z" glyph-name="zcaron" horiz-adv-x="980" unicode="ž"/><glyph d="M336 1024v-1024h-197v1049q0 401 340 401q90 0 156 -20v-168q-49 8 -117 8q-100 0 -141 -58.5t-41 -187.5z" glyph-name="longs" horiz-adv-x="532" unicode="ſ"/><glyph d="M825 1456q324 0 533 -209t209 -530q0 -319 -207 -529.5t-526 -210.5q-313 0 -514 200t-201 528q0 61 8 108h1208q-27 207 -165 323.5t-349 116.5q-174 0 -290.5 -73.5t-155.5 -198.5h-225q47 209 235 342t440 133zM834 180q199 0 337 120t164 325h-995 q14 -199 148.5 -322t345.5 -123z" glyph-name="uni018F" horiz-adv-x="1689" unicode="Ə"/><glyph d="M385 723h197l43 328q27 207 118 303t267 96q92 0 157 -20l-20 -177q-61 10 -115 11q-100 0 -146 -53.5t-63 -182.5l-39 -305h281l-21 -176h-282l-86 -670q-43 -332 -324 -332q-47 0 -133 15l23 178q41 -6 77 -6q74 0 110 40t48 134l82 641h-197z" glyph-name="florin" horiz-adv-x="1341" unicode="ƒ"/><glyph d="M1274 0l-154 358h-702l-152 -358h-219l629 1438h192l627 -1438h-221zM770 1188l-268 -631h534zM770 1530q-96 0 -160.5 62.5t-64.5 154.5q0 94 64.5 156.5t160.5 62.5t160.5 -62.5t64.5 -156.5q0 -92 -64.5 -154.5t-160.5 -62.5zM942 2408l139 -147l-311 -229l-90 92z M770 1638q47 0 78 31t31 78t-31 77.5t-78 30.5t-76.5 -30.5t-29.5 -77.5t29.5 -78t76.5 -31z" glyph-name="Aringacute" horiz-adv-x="1542" unicode="Ǻ"/><glyph d="M84 451q0 199 127 335t317 136q188 0 306 -142v121h190v-901h-190v121q-117 -141 -306 -141q-193 0 -318.5 135t-125.5 336zM287 450.5q0 -131.5 75.5 -214t192.5 -82.5q115 0 193.5 84t78.5 213t-78.5 213t-193.5 84q-117 0 -192.5 -83t-75.5 -214.5zM551 1026 q-94 0 -158.5 62.5t-64.5 154.5t64.5 154.5t158.5 62.5q96 0 159.5 -62.5t63.5 -154.5t-63.5 -154.5t-159.5 -62.5zM737 1931l140 -143l-326 -256l-90 90zM551 1135q47 0 77.5 30.5t30.5 77.5t-30.5 78t-77.5 31t-78 -31t-31 -78t31 -77.5t78 -30.5z" glyph-name="aringacute" horiz-adv-x="1163" unicode="ǻ"/><glyph d="M2157 1434v-197h-803v-418h753v-194h-753v-428h813v-197h-1030v352h-619l-250 -352h-245l1028 1434h1106zM653 545h484v680zM1358 1917l139 -148l-311 -229l-90 92z" glyph-name="AEacute" horiz-adv-x="2293" unicode="Ǽ"/><glyph d="M1599 373h-684q20 -106 92 -166t169 -60q86 0 144 36t75 96h188q-27 -129 -138.5 -214t-277.5 -85q-219 0 -348 170q-119 -166 -385 -166q-152 0 -252 66.5t-100 203.5q0 125 89 193.5t255 68.5h299q2 20 10 57q-16 180 -213 181q-174 0 -200 -111h-191q12 119 115.5 198 t279.5 79q221 0 320 -140q129 141 319 142q188 0 313.5 -135.5t125.5 -331.5q-1 -29 -5 -82zM1169 754q-100 0 -169.5 -63.5t-86.5 -174.5h494q-14 111 -82 174.5t-156 63.5zM735 326q-4 14 -8 47h-264q-100 0 -144.5 -29t-44.5 -88q0 -115 175 -115q125 0 201.5 47.5 t84.5 137.5zM1038 1440l140 -144l-326 -256l-90 90z" glyph-name="aeacute" horiz-adv-x="1683" unicode="ǽ"/><glyph d="M870 1456q250 0 451 -147l135 143l117 -113l-135 -141q178 -207 178 -481q0 -309 -217 -524.5t-529 -215.5q-252 0 -452 148l-133 -143l-119 112l133 142q-174 207 -174 481q0 309 217 524t528 215zM870 182q219 0 370 152.5t151 382.5q0 184 -105 327l-725 -763 q133 -99 309 -99zM350 717q0 -186 103 -328l725 764q-137 98 -308 98q-219 0 -369.5 -152.5t-150.5 -381.5zM1042 1919l140 -147l-312 -230l-90 92z" glyph-name="Oslashacute" horiz-adv-x="1740" unicode="Ǿ"/><glyph d="M559 922q152 0 277 -86l69 73l92 -86l-69 -73q106 -125 106 -299q0 -197 -138 -334t-337 -137q-152 0 -274 83l-70 -73l-92 86l70 74q-106 129 -107 301q0 199 137 335t336 136zM289 451q0 -92 41 -164l385 409q-72 49 -156 49q-117 0 -193.5 -82.5t-76.5 -211.5z M559 156q117 0 194.5 83t77.5 212q0 86 -40 161l-383 -409q65 -47 151 -47zM754 1448l139 -143l-326 -256l-90 90z" glyph-name="oslashacute" horiz-adv-x="1120" unicode="ǿ"/><glyph d="M657 172q145 0 231.5 58.5t86.5 162.5q0 80 -59.5 132.5t-190.5 80.5l-184 41q-416 90 -416 406q0 188 135 294.5t373 106.5q225 0 359 -99.5t155 -271.5h-209q-14 86 -95 132.5t-210 46.5q-137 0 -214 -52.5t-77 -154.5q0 -88 68.5 -138.5t214.5 -82.5l184 -41 q201 -43 292 -138.5t91 -251.5q0 -205 -146.5 -314t-388.5 -109q-246 0 -395 104t-168 293h211q28 -205 352 -205zM764 -88l-90 -369h-168l45 369h213z" glyph-name="Scommaaccent" horiz-adv-x="1302" unicode="Ș"/><glyph d="M430 139q78 0 125 29t47 82q0 51 -32.5 75.5t-125.5 43.5l-90 20q-272 53 -272 262q0 123 92 196t246 73q328 0 354 -265h-180q-14 106 -168 107q-70 0 -112 -27.5t-42 -77.5q0 -53 38 -77.5t124 -40.5l88 -19q272 -51 273 -264q0 -127 -96.5 -200.5t-266.5 -73.5 q-174 0 -268 74.5t-107 197.5h181q16 -115 192 -115zM549 -88l-88 -361h-162l45 361h205z" glyph-name="scommaaccent" horiz-adv-x="856" unicode="ș"/><glyph d="M1204 1434v-199h-467v-1235h-215v1235h-467v199h1149zM737 -88l-90 -369h-168l45 369h213z" glyph-name="uni021A" horiz-adv-x="1259" unicode="Ț"/><glyph d="M55 901h172v277h191v-277h315v-174h-315v-397q0 -94 41 -130t131 -36q74 0 149 22v-172q-80 -31 -188 -30q-160 0 -245 72.5t-85 242.5v428h-166v174zM627 -88l-88 -361h-162l45 361h205z" glyph-name="uni021B" horiz-adv-x="815" unicode="ț"/><glyph d="M147 -98v999h197v-1024q0 -332 -287 -332q-45 0 -127 15v172q43 -6 80 -6q74 0 105.5 42t31.5 134z" glyph-name="uni0237" horiz-adv-x="485" unicode="ȷ"/><glyph d="M522 922q201 0 331 -133.5t130 -337.5q0 -203 -129 -337t-325.5 -134t-322.5 133t-126 329q0 51 4 78h698q-18 111 -89.5 173.5t-178.5 62.5q-88 0 -148.5 -36t-76.5 -95h-189q27 129 140.5 213t281.5 84zM524 145q102 0 171 60.5t87 171.5h-506q14 -111 82 -171.5 t166 -60.5z" glyph-name="uni0259" horiz-adv-x="1067" unicode="ə"/><glyph d="M408 1362h208l246 -305h-190l-160 166l-160 -166h-190z" glyph-name="circumflex" unicode="ˆ"/><glyph d="M616 1057h-208l-246 305h190l160 -166l160 166h190z" glyph-name="caron" unicode="ˇ"/><glyph d="M821 1245v-158h-618v158h618z" glyph-name="uni02C9" unicode="ˉ"/><glyph d="M512 1053q-160 0 -244 88t-100 209h168q8 -61 55 -101.5t121 -40.5t121 40t55 102h168q-16 -121 -100 -209t-244 -88z" glyph-name="breve" unicode="˘"/><glyph d="M387 1192q0 55 35 90t90 35t90 -35t35 -90q0 -53 -35 -89t-90 -36t-90 36t-35 89z" glyph-name="dotaccent" unicode="˙"/><glyph d="M512 1141q47 0 78 30.5t31 77.5t-31 78t-78 31t-78 -31t-31 -78t31 -77.5t78 -30.5zM512 1032q-94 0 -158.5 62.5t-64.5 154.5t64.5 154.5t158.5 62.5q96 0 159.5 -62.5t63.5 -154.5t-63.5 -154.5t-159.5 -62.5z" glyph-name="ring" unicode="˚"/><glyph d="M668 -213l51 -109q-84 -72 -211 -71q-92 0 -152.5 43t-60.5 121q0 98 84 167.5t229 131.5l49 -70q-184 -86 -184 -182q0 -61 82 -62q58 0 113 31z" glyph-name="ogonek" unicode="˛"/><glyph d="M852 1268q-45 -219 -203 -219q-51 0 -138 40.5t-124 40.5q-63 0 -88 -75l-127 20q45 217 203 217q51 0 138 -41t124 -41q63 0 88 76z" glyph-name="tilde" unicode="˜"/><glyph d="M508 1354l-223 -305l-113 63l168 342zM881 1354l-224 -305l-112 63l168 342z" glyph-name="hungarumlaut" unicode="˝"/><glyph d="M843.5 1456q323.5 0 527.5 -190.5t204 -479.5q0 -197 -88 -355.5t-219 -246.5h268v-184h-551v141q367 264 367 594q0 225 -139.5 371.5t-369 146.5t-367.5 -146t-138 -372q0 -330 367 -594v-141h-551v184h268q-131 88 -219 247t-88 355q0 289 202.5 479.5t526 190.5z" glyph-name="Omega" horiz-adv-x="1689" unicode="Ω"/><glyph d="M545 -20q-141 0 -209 77v-497h-197v1341h197v-498q0 -117 57.5 -180t161.5 -63q109 0 174.5 68.5t65.5 185.5v487h196v-901h-190v125q-43 -68 -113.5 -106.5t-142.5 -38.5z" glyph-name="mu" horiz-adv-x="1128" unicode="μ"/><glyph d="M74 901h1220v-174h-286v-401q0 -92 37.5 -130t111.5 -38t141 22v-168q-76 -29 -180 -28q-307 0 -307 315v428h-276l-121 -727h-203l121 727h-258v174z" glyph-name="pi" horiz-adv-x="1388" unicode="π"/><glyph d="M1239 1434l373 -1125l379 1125h219l-494 -1438h-207l-372 1104l-373 -1104h-205l-493 1438h229l369 -1117l378 1117h197zM825 1769l140 148l262 -285l-90 -92z" glyph-name="Wgrave" horiz-adv-x="2275" unicode="Ẁ"/><glyph d="M1030 -2l-231 639l-240 -639h-170l-342 903h211l225 -635l240 635h174l221 -639l236 639h192l-342 -903h-174zM473 1296l139 144l277 -310l-90 -90z" glyph-name="wgrave" horiz-adv-x="1593" unicode="ẁ"/><glyph d="M1239 1434l373 -1125l379 1125h219l-494 -1438h-207l-372 1104l-373 -1104h-205l-493 1438h229l369 -1117l378 1117h197zM1311 1917l139 -148l-311 -229l-90 92z" glyph-name="Wacute" horiz-adv-x="2275" unicode="Ẃ"/><glyph d="M1030 -2l-231 639l-240 -639h-170l-342 903h211l225 -635l240 635h174l221 -639l236 639h192l-342 -903h-174zM985 1440l139 -144l-325 -256l-90 90z" glyph-name="wacute" horiz-adv-x="1593" unicode="ẃ"/><glyph d="M1239 1434l373 -1125l379 1125h219l-494 -1438h-207l-372 1104l-373 -1104h-205l-493 1438h229l369 -1117l378 1117h197zM791 1663q0 53 34.5 89t90 36t91 -36t35.5 -89q0 -55 -34.5 -91t-92.5 -36q-55 0 -89.5 36t-34.5 91zM1235 1663q0 53 36 89t91 36t90 -36t35 -89 q0 -55 -35 -91t-90 -36q-57 0 -92 36t-35 91z" glyph-name="Wdieresis" horiz-adv-x="2275" unicode="Ẅ"/><glyph d="M1030 -2l-231 639l-240 -639h-170l-342 903h211l225 -635l240 635h174l221 -639l236 639h192l-342 -903h-174zM469 1184q0 53 34 88t89 35t90 -35t35 -88q0 -55 -35 -90t-90 -35t-89 35t-34 90zM881 1184q0 53 34.5 88t90 35t89 -35t33.5 -88q0 -55 -33.5 -90t-89 -35 t-90 35t-34.5 90z" glyph-name="wdieresis" horiz-adv-x="1593" unicode="ẅ"/><glyph d="M268 1434l439 -684l440 684h244l-578 -887v-547h-215v545l-575 889h245zM393 1769l139 148l263 -285l-90 -92z" glyph-name="Ygrave" horiz-adv-x="1413" unicode="Ỳ"/><glyph d="M250 901l276 -577l262 577h213l-630 -1343h-211l264 557l-389 786h215zM201 1296l139 144l276 -310l-90 -90z" glyph-name="ygrave" horiz-adv-x="1034" unicode="ỳ"/><glyph glyph-name="uni2002" unicode=" "/><glyph glyph-name="uni2003" horiz-adv-x="1937" unicode=" "/><glyph d="M57 365v172h861v-172h-861z" glyph-name="endash" horiz-adv-x="972" unicode="–"/><glyph d="M31 365v172h1136v-172h-1136z" glyph-name="emdash" horiz-adv-x="1198" unicode="—"/><glyph d="M453 1454l-95 -608h-235l166 608h164z" glyph-name="quoteleft" horiz-adv-x="528" unicode="‘"/><glyph d="M78 846l94 608h236l-166 -608h-164z" glyph-name="quoteright" horiz-adv-x="530" unicode="’"/><glyph d="M78 -313l94 608h236l-166 -608h-164z" glyph-name="quotesinglbase" horiz-adv-x="530" unicode="‚"/><glyph d="M453 1454l-95 -608h-235l166 608h164zM858 1454l-94 -608h-236l166 608h164z" glyph-name="quotedblleft" horiz-adv-x="933" unicode="“"/><glyph d="M78 846l94 608h236l-166 -608h-164zM483 846l95 608h235l-166 -608h-164z" glyph-name="quotedblright" horiz-adv-x="933" unicode="”"/><glyph d="M78 -313l94 608h236l-166 -608h-164zM483 -313l95 608h235l-166 -608h-164z" glyph-name="quotedblbase" horiz-adv-x="933" unicode="„"/><glyph d="M1061 1028v-178h-395v-1186h-197v1186h-393v178h393v406h197v-406h395z" glyph-name="dagger" horiz-adv-x="1134" unicode="†"/><glyph d="M1061 238v-179h-395v-395h-197v395h-393v179h393v632h-393v179h393v395h197v-395h395v-179h-395v-632h395z" glyph-name="daggerdbl" horiz-adv-x="1134" unicode="‡"/><glyph d="M324 371q-88 57 -88 164q0 55 30 102q55 84 160 84q59 0 109 -31q88 -59 88 -164q0 -55 -31 -102q-57 -86 -160 -86q-61 0 -108 33z" glyph-name="bullet" horiz-adv-x="858" unicode="•"/><glyph d="M119 129q0 59 40 100t101.5 41t101 -41t39.5 -100t-39.5 -100t-101 -41t-101.5 41t-40 100z" glyph-name="onedotenleader" horiz-adv-x="520" unicode="․"/><glyph d="M694 129q0 59 40 100t101.5 41t102.5 -41t41 -100t-41 -100t-102.5 -41t-101.5 41t-40 100zM137 129q0 59 40 100t101.5 41t101.5 -41t40 -100t-40 -100t-101.5 -41t-101.5 41t-40 100z" glyph-name="twodotenleader" horiz-adv-x="1116" unicode="‥"/><glyph d="M137 129q0 59 40 100t101.5 41t101.5 -41t40 -100t-40 -100t-101.5 -41t-101.5 41t-40 100zM694 129q0 59 40 100t101.5 41t102.5 -41t41 -100t-41 -100t-102.5 -41t-101.5 41t-40 100zM1253 129q0 59 40 100t101.5 41t101.5 -41t40 -100t-40 -100t-101.5 -41t-101.5 41 t-40 100z" glyph-name="ellipsis" horiz-adv-x="1673" unicode="…"/><glyph d="M668 0h-203l878 1434h203zM467 1446q164 0 271.5 -108.5t107.5 -270.5t-107.5 -271.5t-271.5 -109.5q-162 0 -270.5 109.5t-108.5 271.5q0 160 108.5 269.5t270.5 109.5zM467 850q88 0 145.5 61.5t57.5 155.5q0 92 -57.5 153.5t-145.5 61.5t-144.5 -61.5t-56.5 -153.5 q0 -94 56.5 -155.5t144.5 -61.5zM1544 748q162 0 270.5 -110t108.5 -271q0 -160 -108.5 -269.5t-270.5 -109.5q-164 0 -271.5 108.5t-107.5 270t107.5 271.5t271.5 110zM1544 152q88 0 144.5 61t56.5 154q0 94 -56.5 155.5t-144.5 61.5t-145.5 -61.5t-57.5 -155.5 q0 -92 57.5 -153.5t145.5 -61.5zM2433 748q162 0 270.5 -110t108.5 -271q0 -160 -108.5 -269.5t-270.5 -109.5t-270.5 109.5t-108.5 269.5q0 162 108.5 271.5t270.5 109.5zM2433 152q88 0 145.5 61t57.5 154q0 94 -57.5 155.5t-145.5 61.5t-145.5 -61.5t-57.5 -155.5 q0 -92 57.5 -153.5t145.5 -61.5z" glyph-name="perthousand" horiz-adv-x="2899" unicode="‰"/><glyph d="M221 1434h205l-137 -668h-197z" glyph-name="minute" horiz-adv-x="518" unicode="′"/><glyph d="M221 1434h205l-137 -668h-197zM596 1434h205l-137 -668h-197z" glyph-name="second" horiz-adv-x="892" unicode="″"/><glyph d="M221 1434h205l-137 -668h-197zM596 1434h205l-137 -668h-197zM971 1434h205l-138 -668h-196z" glyph-name="uni2034" horiz-adv-x="1267" unicode="‴"/><glyph d="M516 846l-223 -379l223 -377h-207l-225 377l225 379h207z" glyph-name="guilsinglleft" horiz-adv-x="606" unicode="‹"/><glyph d="M90 90l223 377l-223 379h207l223 -379l-223 -377h-207z" glyph-name="guilsinglright" horiz-adv-x="606" unicode="›"/><glyph d="M-59 0h-203l878 1434h203z" glyph-name="fraction" horiz-adv-x="557" unicode="⁄"/><glyph d="M403.5 1829q157.5 0 258 -111.5t100.5 -283.5t-100.5 -284t-258 -112t-257 112t-99.5 284t99.5 283.5t257 111.5zM403 1188q84 0 136.5 68.5t52.5 177t-52.5 177t-136.5 68.5t-136 -68.5t-52 -177t52 -177t136 -68.5z" glyph-name="uni2070" horiz-adv-x="806" unicode="⁰"/><glyph d="M643 1815v-461h121v-144h-121v-155h-164v155h-418v123l441 482h141zM246 1354h235v254z" glyph-name="uni2074" horiz-adv-x="806" unicode="⁴"/><glyph d="M410 1184q70 0 108.5 30.5t38.5 85.5q0 123 -156 123q-90 0 -141 -39l-143 31l24 397h535v-147h-395l-11 -154q63 35 164 35q139 0 215 -67.5t76 -178.5q0 -125 -86 -193.5t-229 -68.5q-150 0 -229 66.5t-85 185.5h156q11 -106 158 -106z" glyph-name="uni2075" horiz-adv-x="806" unicode="⁵"/><glyph d="M461 1561q125 0 206 -72t81 -182q0 -119 -88.5 -194t-227.5 -75q-152 0 -247 92.5t-95 266.5q0 209 90 320.5t262 111.5q125 0 198 -60.5t89 -154.5h-156q-16 78 -129 78q-172 0 -186 -205q64 74 203 74zM428 1178q72 0 115 34.5t43 94t-42 93.5t-116 34t-117 -34 t-43 -93.5t44 -94t116 -34.5z" glyph-name="uni2076" horiz-adv-x="806" unicode="⁶"/><glyph d="M707 1683l-347 -628h-192l336 610h-406v147h609v-129z" glyph-name="uni2077" horiz-adv-x="806" unicode="⁷"/><glyph d="M403.5 1829q145.5 0 228.5 -59.5t83 -157.5q0 -121 -117 -164q57 -18 98 -66.5t41 -113.5q0 -106 -90 -168t-243.5 -62t-243.5 61.5t-90 168.5q0 66 41 114t100 66q-117 41 -117 164q0 98 82 157.5t227.5 59.5zM403.5 1180q167.5 0 167.5 98t-167.5 98t-167.5 -98 t167.5 -98zM403 1501q70 0 109 25.5t39 68.5q0 92 -148 93q-145 0 -145 -93q0 -43 38.5 -68.5t106.5 -25.5z" glyph-name="uni2078" horiz-adv-x="806" unicode="⁸"/><glyph d="M348 1307q-125 0 -206 71.5t-81 182.5q0 119 88.5 193.5t225.5 74.5q154 0 249 -92t95 -267q0 -209 -91 -320.5t-263 -111.5q-123 0 -196 60.5t-89 154.5h153q16 -78 132 -77q174 0 184 204q-62 -73 -201 -73zM381 1690q-72 0 -116 -35t-44 -94.5t43 -93t117 -33.5 q72 0 115 33.5t43 93t-43 94.5t-115 35z" glyph-name="uni2079" horiz-adv-x="806" unicode="⁹"/><glyph d="M102 1433.5q0 182.5 115 325t301 178.5v-147q-113 -27 -179.5 -124t-66.5 -232.5t67 -232.5t179 -124v-147q-186 37 -301 179t-115 324.5z" glyph-name="uni207D" horiz-adv-x="579" unicode="⁽"/><glyph d="M477 1433.5q0 -182.5 -114.5 -324.5t-301.5 -179v147q113 27 179.5 124t66.5 232.5t-66.5 232.5t-179.5 124v147q186 -37 301 -179t115 -324.5z" glyph-name="uni207E" horiz-adv-x="579" unicode="⁾"/><glyph d="M514 1831q141 0 227 -85t86 -228v-463h-165v415q0 207 -193 207q-96 0 -153.5 -60.5t-57.5 -160.5v-401h-166v757h162v-104q80 123 260 123z" glyph-name="uni207F" horiz-adv-x="911" unicode="ⁿ"/><glyph d="M403.5 395q157.5 0 258 -111.5t100.5 -283.5t-100.5 -283.5t-258 -111.5t-257 111.5t-99.5 283.5t99.5 283.5t257 111.5zM403 -246q84 0 136.5 68.5t52.5 177.5t-52.5 177.5t-136.5 68.5t-136 -68.5t-52 -177.5t52 -177.5t136 -68.5z" glyph-name="uni2080" horiz-adv-x="806" unicode="₀"/><glyph d="M391 -379v586l-201 -64l-45 142l275 96h135v-760h-164z" glyph-name="uni2081" horiz-adv-x="806" unicode="₁"/><glyph d="M399 246q-141 0 -151 -135h-160q6 129 85 206.5t233 77.5q139 0 217.5 -68.5t78.5 -176.5q0 -145 -176 -273l-143 -108h338v-148h-621v117l299 221q76 57 107 96t31 86t-37.5 76t-100.5 29z" glyph-name="uni2082" horiz-adv-x="806" unicode="₂"/><glyph d="M395 250q-147 0 -153 -121h-158q6 125 88 195.5t229 70.5q129 0 213 -58t84 -167q0 -57 -26.5 -97t-67.5 -53q117 -35 117 -176q0 -109 -88 -174t-225 -65q-313 0 -334 266h159q10 -121 166 -121q154 0 154 107q0 92 -123 92h-82v127h82q104 0 105 78q-1 96 -140 96z" glyph-name="uni2083" horiz-adv-x="806" unicode="₃"/><glyph d="M643 381v-461h121v-143h-121v-156h-164v156h-418v123l441 481h141zM246 -80h235v254z" glyph-name="uni2084" horiz-adv-x="806" unicode="₄"/><glyph d="M410 -250q70 0 108.5 31t38.5 86q0 123 -156 123q-90 0 -141 -39l-143 31l24 397h535v-148h-395l-11 -153q63 35 164 35q139 0 215 -68t76 -178q0 -125 -86 -193.5t-229 -68.5q-150 0 -229 66.5t-85 185.5h156q11 -107 158 -107z" glyph-name="uni2085" horiz-adv-x="806" unicode="₅"/><glyph d="M461 127q125 0 206 -71.5t81 -182.5q0 -119 -88.5 -193.5t-227.5 -74.5q-152 0 -247 92t-95 266q0 209 90 320.5t262 111.5q125 0 198 -60.5t89 -154.5h-156q-16 78 -129 78q-172 0 -186 -205q64 74 203 74zM428 -256q72 0 115 35t43 94t-42 93t-116 34t-117 -34t-43 -93 t44 -94t116 -35z" glyph-name="uni2086" horiz-adv-x="806" unicode="₆"/><glyph d="M707 250l-347 -629h-192l336 610h-406v148h609v-129z" glyph-name="uni2087" horiz-adv-x="806" unicode="₇"/><glyph d="M403.5 395q145.5 0 228.5 -59.5t83 -157.5q0 -121 -117 -164q57 -18 98 -66t41 -114q0 -106 -90 -167.5t-243.5 -61.5t-243.5 61.5t-90 167.5q0 66 41 114t100 66q-117 41 -117 164q0 98 82 157.5t227.5 59.5zM403.5 -254q167.5 0 167.5 98.5t-167.5 98.5t-167.5 -98.5 t167.5 -98.5zM403 68q70 0 109 25.5t39 68.5q0 92 -148 92q-145 0 -145 -92q0 -43 38.5 -68.5t106.5 -25.5z" glyph-name="uni2088" horiz-adv-x="806" unicode="₈"/><glyph d="M348 -127q-125 0 -206 71.5t-81 182.5q0 119 88.5 193.5t225.5 74.5q154 0 249 -92t95 -266q0 -209 -91 -320.5t-263 -111.5q-123 0 -196 60.5t-89 154.5h153q16 -78 132 -78q174 0 184 205q-62 -74 -201 -74zM381 256q-72 0 -116 -35t-44 -94t43 -93t117 -34 q72 0 115 34t43 93t-43 94t-115 35z" glyph-name="uni2089" horiz-adv-x="806" unicode="₉"/><glyph d="M102 0q0 182 115 324.5t301 179.5v-148q-113 -27 -179.5 -124t-66.5 -232t67 -232.5t179 -123.5v-148q-186 37 -301 179.5t-115 324.5z" glyph-name="uni208D" horiz-adv-x="579" unicode="₍"/><glyph d="M477 0q0 -182 -114.5 -324.5t-301.5 -179.5v148q113 27 179.5 124t66.5 232t-66.5 232.5t-179.5 123.5v148q186 -37 301 -179.5t115 -324.5z" glyph-name="uni208E" horiz-adv-x="579" unicode="₎"/><glyph d="M14 647h142q-2 23 -2 70t2 69h-142v168h174q70 225 255.5 363.5t433.5 138.5q244 0 423 -104l-94 -174q-121 74 -317 73q-164 0 -286 -79.5t-179 -217.5h649v-168h-692q-2 -23 -2 -69.5t2 -69.5h510v-168h-467q57 -139 178 -218t287 -79q201 0 321 74l93 -174 q-176 -104 -424 -105q-250 0 -435.5 138.5t-255.5 363.5h-174v168z" glyph-name="Euro" horiz-adv-x="1341" unicode="€"/><glyph d="M907 1118q0 -209 -146.5 -391t-375.5 -287v-12q0 -139 54.5 -192.5t172.5 -53.5q102 0 207 64l68 -160q-139 -100 -318 -100q-385 0 -379 403v569q0 223 97.5 362.5t285.5 139.5q162 0 248 -95t86 -247zM385 926v-305q143 80 238.5 208.5t95.5 266.5q0 186 -146 186 q-188 0 -188 -356z" glyph-name="afii61289" horiz-adv-x="1028" unicode="ℓ"/><glyph d="M178 1436h201l829 -1096v1094h211v-1436h-198l-830 1092v-1090h-213v1436zM2071 1450q172 0 290.5 -116.5t118.5 -286.5t-118.5 -287t-290.5 -117q-170 0 -289 117t-119 287t119 286.5t289 116.5zM2071 801q98 0 163.5 68.5t65.5 177t-64.5 176t-164.5 67.5 q-96 0 -161 -67.5t-65 -176t65 -177t161 -68.5zM1726 346v154h705v-154h-705z" glyph-name="afii61352" horiz-adv-x="2553" unicode="№"/><glyph d="M860 1456q311 0 528.5 -215t217.5 -524t-217.5 -524.5t-528.5 -215.5t-528 215.5t-217 524.5t217 524t528 215zM860 135q244 0 411 168t167 414t-167 413.5t-411 167.5t-409.5 -167.5t-165.5 -413.5t165.5 -414t409.5 -168zM754 725h164q147 0 147 115q0 113 -147 112 h-164v-227zM754 580v-242h-164v760h348q139 0 215 -71t76 -187q0 -119 -76 -189.5t-215 -70.5h-184z" glyph-name="uni2117" horiz-adv-x="1720" unicode="℗"/><glyph d="M762 1434h147l213 -369l215 369h146v-631h-137v428l-181 -307h-88l-176 299v-420h-139v631zM360 905q135 0 136 76q0 37 -26 55.5t-87 26.5l-94 12q-197 31 -197 180q0 88 73 139.5t185 51.5q127 0 192.5 -54.5t73.5 -136.5h-133q-10 76 -131 76q-123 0 -123 -71 q0 -37 29 -53.5t88 -24.5l92 -13q195 -27 195 -186q0 -90 -75 -140t-200 -50t-197.5 54t-80.5 140h135q8 -82 145 -82z" glyph-name="uni2120" horiz-adv-x="1591" unicode="℠"/><glyph d="M719 1434h149l213 -369l215 369h146v-631h-137v428l-181 -307h-88l-178 301v-422h-139v631zM598 1434v-127h-201v-504h-141v504h-201v127h543z" glyph-name="trademark" horiz-adv-x="1548" unicode="™"/><glyph d="M843.5 1456q323.5 0 527.5 -190.5t204 -479.5q0 -197 -88 -355.5t-219 -246.5h268v-184h-551v141q367 264 367 594q0 225 -139.5 371.5t-369 146.5t-367.5 -146t-138 -372q0 -330 367 -594v-141h-551v184h268q-131 88 -219 247t-88 355q0 289 202.5 479.5t526 190.5z" glyph-name="uni2126" horiz-adv-x="1689" unicode="Ω"/><glyph d="M860 1372q-274 0 -459 -194v-420h928v409q-188 205 -469 205zM1382 289l72 -53q-242 -256 -586 -256q-313 0 -529 214t-216 523t214 523t523 214q307 0 522 -214t215 -523q0 -8 -1 -20.5t-1 -20.5h-1194v-420q184 -195 467 -195q317 1 514 228z" glyph-name="estimated" horiz-adv-x="1720" unicode="℮"/><glyph d="M551 0h-193l881 1434h193zM1786 629l-346 -629h-193l336 610h-405v148h608v-129zM391 676v586l-201 -64l-45 141l275 97h135v-760h-164z" glyph-name="uni2150" horiz-adv-x="1888" unicode="⅐"/><glyph d="M563 0h-192l880 1434h193zM1427 252q-125 0 -205.5 71.5t-80.5 182.5q0 119 88 193.5t225 74.5q154 0 249 -92t95 -266q0 -209 -91 -320.5t-263 -111.5q-123 0 -195.5 60t-89.5 155h154q16 -78 131 -78q174 0 184 205q-62 -74 -201 -74zM1460.5 635q-71.5 0 -116 -35 t-44.5 -94.5t43 -93t117 -33.5q72 0 115 33.5t43 93t-43 94.5t-114.5 35zM391 676v586l-201 -64l-45 141l275 97h135v-760h-164z" glyph-name="uni2151" horiz-adv-x="1888" unicode="⅑"/><glyph d="M391 676v586l-201 -64l-45 141l275 97h135v-760h-164zM547 0h-193l881 1434h192zM1411 0v586l-201 -64l-45 142l275 96h135v-760h-164zM2107.5 774q157.5 0 258 -111.5t100.5 -283.5t-100.5 -283.5t-258 -111.5t-257 111.5t-99.5 283.5t99.5 283.5t257 111.5zM2107 133 q84 0 136.5 68.5t52.5 177t-52.5 177.5t-136.5 69t-136 -69t-52 -177.5t52 -177t136 -68.5z" glyph-name="uni2152" horiz-adv-x="2512" unicode="⅒"/><glyph d="M563 0h-192l880 1434h193zM1475 629q-147 0 -154 -121h-158q6 125 88 195.5t230 70.5q129 0 213 -58.5t84 -166.5q0 -57 -27 -97t-68 -53q117 -35 117 -176q0 -109 -88 -174t-225 -65q-313 0 -334 266h160q10 -121 166 -121q154 0 153 107q0 92 -123 92h-82v127h82 q104 0 105 77q0 97 -139 97zM391 676v586l-201 -64l-45 141l275 97h135v-760h-164z" glyph-name="onethird" horiz-adv-x="1888" unicode="⅓"/><glyph d="M399 1300q-141 0 -151 -135h-160q6 129 85 207t233 78q139 0 217.5 -68.5t78.5 -177.5q0 -145 -176 -272l-143 -109h338v-147h-621v117l299 221q76 57 107 96t31 86t-37.5 75.5t-100.5 28.5zM645 0h-192l880 1434h193zM1475 629q-147 0 -154 -121h-158q6 125 88 195.5 t230 70.5q129 0 213 -58.5t84 -166.5q0 -57 -27 -97t-68 -53q117 -35 117 -176q0 -109 -88 -174t-225 -65q-313 0 -334 266h160q10 -121 166 -121q154 0 153 107q0 92 -123 92h-82v127h82q104 0 105 77q0 97 -139 97z" glyph-name="twothirds" horiz-adv-x="1888" unicode="⅔"/><glyph d="M553 0h-193l881 1434h193zM1489 129q70 0 108.5 30.5t38.5 86.5q0 123 -155 123q-90 0 -142 -39l-143 30l25 398h534v-148h-395l-10 -153q63 35 163 35q139 0 215 -68t76 -178q0 -125 -86 -193.5t-229 -68.5q-150 0 -228.5 66.5t-84.5 185.5h155q11 -107 158 -107z M391 676v586l-201 -64l-45 141l275 97h135v-760h-164z" glyph-name="uni2155" horiz-adv-x="1888" unicode="⅕"/><glyph d="M399 1300q-141 0 -151 -135h-160q6 129 85 207t233 78q139 0 217.5 -68.5t78.5 -177.5q0 -145 -176 -272l-143 -109h338v-147h-621v117l299 221q76 57 107 96t31 86t-37.5 75.5t-100.5 28.5zM635 0h-193l881 1434h193zM1489 129q70 0 108.5 30.5t38.5 86.5 q0 123 -155 123q-90 0 -142 -39l-143 30l25 398h534v-148h-395l-10 -153q63 35 163 35q139 0 215 -68t76 -178q0 -125 -86 -193.5t-229 -68.5q-150 0 -228.5 66.5t-84.5 185.5h155q11 -107 158 -107z" glyph-name="uni2156" horiz-adv-x="1888" unicode="⅖"/><glyph d="M395 1305q-147 0 -153 -121h-158q6 125 88 195.5t229 70.5q129 0 213 -58.5t84 -166.5q0 -57 -26.5 -97.5t-67.5 -52.5q117 -35 117 -176q0 -109 -88 -174.5t-225 -65.5q-313 0 -334 267h159q10 -121 166 -121q154 0 154 106q0 92 -123 93h-82v126h82q104 0 105 78 q-1 97 -140 97zM580 0h-193l881 1434h192zM1489 129q70 0 108.5 30.5t38.5 86.5q0 123 -155 123q-90 0 -142 -39l-143 30l25 398h534v-148h-395l-10 -153q63 35 163 35q139 0 215 -68t76 -178q0 -125 -86 -193.5t-229 -68.5q-150 0 -228.5 66.5t-84.5 185.5h155 q11 -107 158 -107z" glyph-name="uni2157" horiz-adv-x="1888" unicode="⅗"/><glyph d="M643 1436v-461h121v-144h-121v-155h-164v155h-418v123l441 482h141zM246 975h235v254zM598 0h-192l880 1434h193zM1489 129q70 0 108.5 30.5t38.5 86.5q0 123 -155 123q-90 0 -142 -39l-143 30l25 398h534v-148h-395l-10 -153q63 35 163 35q139 0 215 -68t76 -178 q0 -125 -86 -193.5t-229 -68.5q-150 0 -228.5 66.5t-84.5 185.5h155q11 -107 158 -107z" glyph-name="uni2158" horiz-adv-x="1888" unicode="⅘"/><glyph d="M586 0h-193l881 1434h192zM1540 506q125 0 206 -72t81 -182q0 -119 -88 -193.5t-228 -74.5q-152 0 -247 92t-95 266q0 209 90.5 320.5t262.5 111.5q125 0 197.5 -60.5t88.5 -154.5h-155q-16 78 -129 78q-172 0 -187 -205q64 74 203 74zM1507.5 123q71.5 0 114.5 35t43 94 t-42 93t-115.5 34t-116.5 -34t-43 -93t44 -94t115.5 -35zM391 676v586l-201 -64l-45 141l275 97h135v-760h-164z" glyph-name="uni2159" horiz-adv-x="1888" unicode="⅙"/><glyph d="M616 0h-192l881 1434h192zM410 805q70 0 108.5 30.5t38.5 86.5q0 123 -156 122q-90 0 -141 -38l-143 30l24 398h535v-148h-395l-11 -153q63 35 164 34q139 0 215 -67.5t76 -177.5q0 -125 -86 -194t-229 -69q-150 0 -229 67t-85 185h156q11 -106 158 -106zM1540 506 q125 0 206 -72t81 -182q0 -119 -88 -193.5t-228 -74.5q-152 0 -247 92t-95 266q0 209 90.5 320.5t262.5 111.5q125 0 197.5 -60.5t88.5 -154.5h-155q-16 78 -129 78q-172 0 -187 -205q64 74 203 74zM1507.5 123q71.5 0 114.5 35t43 94t-42 93t-115.5 34t-116.5 -34t-43 -93 t44 -94t115.5 -35z" glyph-name="uni215A" horiz-adv-x="1888" unicode="⅚"/><glyph d="M578 0h-193l881 1434h192zM1482.5 774q145.5 0 228.5 -59.5t83 -157.5q0 -121 -117 -164q57 -18 98.5 -66t41.5 -114q0 -106 -90.5 -167.5t-244 -61.5t-243.5 61t-90 168q0 66 41 114t100 66q-117 41 -116 164q0 98 81.5 157.5t227 59.5zM1483 125q168 0 168 98.5 t-168 98.5t-168 -98.5t168 -98.5zM1483 446q70 0 108.5 26t38.5 69q0 92 -147 92q-145 0 -146 -92q0 -43 39 -69t107 -26zM391 676v586l-201 -64l-45 141l275 97h135v-760h-164z" glyph-name="oneeighth" horiz-adv-x="1888" unicode="⅛"/><glyph d="M395 1305q-147 0 -153 -121h-158q6 125 88 195.5t229 70.5q129 0 213 -58.5t84 -166.5q0 -57 -26.5 -97.5t-67.5 -52.5q117 -35 117 -176q0 -109 -88 -174.5t-225 -65.5q-313 0 -334 267h159q10 -121 166 -121q154 0 154 106q0 92 -123 93h-82v126h82q104 0 105 78 q-1 97 -140 97zM600 0h-192l880 1434h193zM1482.5 774q145.5 0 228.5 -59.5t83 -157.5q0 -121 -117 -164q57 -18 98.5 -66t41.5 -114q0 -106 -90.5 -167.5t-244 -61.5t-243.5 61t-90 168q0 66 41 114t100 66q-117 41 -116 164q0 98 81.5 157.5t227 59.5zM1483 125 q168 0 168 98.5t-168 98.5t-168 -98.5t168 -98.5zM1483 446q70 0 108.5 26t38.5 69q0 92 -147 92q-145 0 -146 -92q0 -43 39 -69t107 -26z" glyph-name="threeeighths" horiz-adv-x="1888" unicode="⅜"/><glyph d="M410 805q70 0 108.5 30.5t38.5 86.5q0 123 -156 122q-90 0 -141 -38l-143 30l24 398h535v-148h-395l-11 -153q63 35 164 34q139 0 215 -67.5t76 -177.5q0 -125 -86 -194t-229 -69q-150 0 -229 67t-85 185h156q11 -106 158 -106zM600 0h-192l880 1434h193zM1482.5 774 q145.5 0 228.5 -59.5t83 -157.5q0 -121 -117 -164q57 -18 98.5 -66t41.5 -114q0 -106 -90.5 -167.5t-244 -61.5t-243.5 61t-90 168q0 66 41 114t100 66q-117 41 -116 164q0 98 81.5 157.5t227 59.5zM1483 125q168 0 168 98.5t-168 98.5t-168 -98.5t168 -98.5zM1483 446 q70 0 108.5 26t38.5 69q0 92 -147 92q-145 0 -146 -92q0 -43 39 -69t107 -26z" glyph-name="fiveeighths" horiz-adv-x="1888" unicode="⅝"/><glyph d="M707 1305l-347 -629h-192l336 610h-406v148h609v-129zM524 0h-192l880 1434h193zM1482.5 774q145.5 0 228.5 -59.5t83 -157.5q0 -121 -117 -164q57 -18 98.5 -66t41.5 -114q0 -106 -90.5 -167.5t-244 -61.5t-243.5 61t-90 168q0 66 41 114t100 66q-117 41 -116 164 q0 98 81.5 157.5t227 59.5zM1483 125q168 0 168 98.5t-168 98.5t-168 -98.5t168 -98.5zM1483 446q70 0 108.5 26t38.5 69q0 92 -147 92q-145 0 -146 -92q0 -43 39 -69t107 -26z" glyph-name="seveneighths" horiz-adv-x="1888" unicode="⅞"/><glyph d="M72 496l475 477l69 -37l-120 -352l804 6v-187l-806 5l122 -353l-69 -35z" glyph-name="arrowleft" horiz-adv-x="1382" unicode="←"/><glyph d="M723 1167l477 -475l-35 -69l-354 122l6 -747h-186l6 747l-354 -122l-35 69z" glyph-name="arrowup" horiz-adv-x="1447" unicode="↑"/><glyph d="M836 973l475 -477l-475 -476l-70 35l121 353l-805 -5v187l805 -6l-121 352z" glyph-name="arrowright" horiz-adv-x="1382" unicode="→"/><glyph d="M725 -164l-477 475l35 70l352 -123l-4 748h186l-6 -750l354 125l35 -70z" glyph-name="arrowdown" horiz-adv-x="1447" unicode="↓"/><glyph d="M72 481l475 475l69 -34l-120 -353h757l-120 353l69 34l477 -475l-477 -477l-69 37l120 352h-757l120 -352l-69 -37z" glyph-name="arrowboth" horiz-adv-x="1748" unicode="↔"/><glyph d="M723 -276l-475 477l35 69l352 -123l-2 682l-350 -120l-35 69l475 477l477 -477l-35 -69l-352 120v-682l352 123l35 -69z" glyph-name="arrowupdn" horiz-adv-x="1447" unicode="↕"/><glyph d="M242 938h673l25 -76l-336 -162l576 -567l-133 -131l-568 573l-162 -333l-75 22v674z" glyph-name="uni2196" horiz-adv-x="1382" unicode="↖"/><glyph d="M467 938h674v-674l-76 -22l-164 333l-565 -573l-133 131l575 567l-336 162z" glyph-name="uni2197" horiz-adv-x="1382" unicode="↗"/><glyph d="M1141 8h-674l-25 76l336 162l-575 567l133 131l565 -575l164 336l76 -23v-674z" glyph-name="uni2198" horiz-adv-x="1382" unicode="↘"/><glyph d="M915 8h-673v674l75 23l162 -336l568 575l133 -131l-576 -567l336 -162z" glyph-name="uni2199" horiz-adv-x="1382" unicode="↙"/><glyph d="M604 944q125 0 220.5 -47t144.5 -133v29q0 135 -27 238.5t-96.5 175t-175.5 71.5q-78 0 -139.5 -39t-81.5 -104h-203q33 133 148.5 227t283.5 94q133 0 231.5 -53t154.5 -148.5t84 -213t28 -257.5q0 -150 -31 -283.5t-95.5 -255.5t-185.5 -195t-284 -73 q-213 0 -350.5 128t-137.5 331q0 205 148.5 356.5t363.5 151.5zM590 160q129 0 233.5 94t104.5 238q0 123 -84 202.5t-211 79.5q-135 0 -234.5 -95t-99.5 -235q2 -125 83 -204.5t208 -79.5z" glyph-name="partialdiff" horiz-adv-x="1282" unicode="∂"/><glyph d="M1124 186l-401 942l-401 -942h802zM1370 0h-1294v90l598 1366h98l598 -1366v-90z" glyph-name="uni2206" horiz-adv-x="1445" unicode="∆"/><glyph d="M72 1237v197h1398v-197h-249v-1237h-217v1237h-467v-1237h-215v1237h-250z" glyph-name="product" horiz-adv-x="1542" unicode="∏"/><glyph d="M664 723l-517 563v148h1096v-195h-788l411 -451v-129l-428 -464h819v-195h-1126v147z" glyph-name="summation" horiz-adv-x="1370" unicode="∑"/><glyph d="M1049 590v-170h-840v170h840z" glyph-name="minus" horiz-adv-x="1255" unicode="−"/><glyph d="M111 549v168h321l227 -608l420 1476h203l-512 -1753h-192l-287 717h-180z" glyph-name="radical" horiz-adv-x="1327" unicode="√"/><glyph d="M1528 672q0 -139 -94.5 -230.5t-243.5 -91.5q-111 0 -194 48t-191 167q-106 -119 -186 -167t-189 -48q-152 0 -245 91t-93 232.5t94.5 231.5t243.5 90q111 0 191.5 -49t189.5 -170q109 121 189.5 170t189.5 49q152 0 245 -91t93 -232zM1356 676q0 82 -47 128t-133 46 q-72 0 -128.5 -37t-144.5 -137q94 -102 147.5 -138t125.5 -36q86 0 133 46t47 128zM442 496q72 0 129.5 35.5t145.5 136.5q-94 104 -148.5 140t-126.5 36q-86 0 -132 -47t-46 -127q0 -82 46 -128t132 -46z" glyph-name="infinity" horiz-adv-x="1619" unicode="∞"/><glyph d="M365 170q0 137 -37 415.5t-37 426.5q0 530 309 530q74 0 139 -16v-170q-66 8 -88 8q-164 0 -164 -369q0 -139 37 -417.5t37 -425.5q0 -528 -309 -529q-74 0 -139 17v170q66 -8 88 -9q164 0 164 369z" glyph-name="integral" horiz-adv-x="851" unicode="∫"/><glyph d="M924 449l139 -19q-39 -254 -242 -254q-74 0 -193.5 55.5t-170.5 55.5q-98 0 -125 -107l-139 19q39 254 241 254q74 0 195 -55.5t170 -55.5q100 1 125 107zM924 838l139 -17q-39 -256 -242 -256q-74 0 -193.5 56.5t-170.5 56.5q-96 0 -125 -107l-139 17q39 256 241 256 q74 0 195 -56.5t170 -56.5q100 1 125 107z" glyph-name="approxequal" horiz-adv-x="1255" unicode="≈"/><glyph d="M1012 989l-121 -201h180v-170h-283l-135 -227h418v-170h-520l-160 -266l-147 78l112 188h-172v170h273l137 227h-410v170h512l168 281z" glyph-name="notequal" horiz-adv-x="1255" unicode="≠"/><glyph d="M211 563v170l823 350v-206l-596 -230l596 -229v-207zM1034 160v-160h-823v160h823z" glyph-name="lessequal" horiz-adv-x="1255" unicode="≤"/><glyph d="M1044 733v-170l-823 -352v207l596 229l-596 230v206zM221 0v160h823v-160h-823z" glyph-name="greaterequal" horiz-adv-x="1255" unicode="≥"/><glyph d="M950 203h-764l383 651z" glyph-name="triagup" horiz-adv-x="1136" unicode="▲"/><glyph d="M276 150v747l685 -373z" glyph-name="triagrt" horiz-adv-x="1136" unicode="►"/><glyph d="M186 848h764l-381 -649z" glyph-name="triagdn" horiz-adv-x="1136" unicode="▼"/><glyph d="M860 897v-747l-684 372z" glyph-name="triaglf" horiz-adv-x="1136" unicode="◄"/><glyph d="M1176 717l-471 -740h-101l-471 740l471 739h101zM969 717l-314 502l-315 -502l315 -502z" glyph-name="lozenge" horiz-adv-x="1308" unicode="◊"/><glyph d="M870 193h-704l704 704v-704z" glyph-name="uni25E2" horiz-adv-x="1136" unicode="◢"/><glyph d="M971 193h-705v704z" glyph-name="uni25E3" horiz-adv-x="1136" unicode="◣"/><glyph d="M266 893h705l-705 -705v705z" glyph-name="uni25E4" horiz-adv-x="1136" unicode="◤"/><glyph d="M166 893h704v-705z" glyph-name="uni25E5" horiz-adv-x="1136" unicode="◥"/><glyph glyph-name="uniE000" horiz-adv-x="0" unicode=""/><glyph d="M522 754q-174 0 -200 -111h-191q12 119 115.5 198t281.5 79q199 0 299.5 -96.5t100.5 -248.5v-575h-195v117q-104 -133 -327 -133q-135 0 -229.5 66.5t-94.5 201.5q0 125 89 193.5t255 68.5h307v29q0 211 -211 211zM449 141q133 0 208.5 53.5t75.5 155.5v21h-270 q-188 0 -188 -115t174 -115z" glyph-name="uniE001" horiz-adv-x="1056" unicode=""/><glyph d="M522 922q70 0 142 -23l368 2v-160h-158q53 -86 54 -174q0 -152 -114 -254t-292 -102q-100 0 -188 39q-53 -23 -53 -80q0 -86 133 -86h264q152 0 231.5 -63.5t79.5 -182.5q0 -147 -123 -230t-340 -83q-213 0 -329.5 71.5t-116.5 200.5q0 66 32.5 117t88.5 72 q-102 45 -103 159q0 127 121 185q-102 102 -102 237q0 150 113.5 252.5t291.5 102.5zM522.5 371q98.5 0 158.5 54t60 142t-60 142.5t-158.5 54.5t-159 -54.5t-60.5 -142.5t60.5 -142t159 -54zM635 -66h-236q-137 0 -137 -114q0 -141 272.5 -141.5t272.5 145.5 q0 110 -172 110z" glyph-name="uniE002" horiz-adv-x="1062" unicode=""/><glyph d="M522 754q-174 0 -200 -111h-191q12 119 115.5 198t281.5 79q199 0 299.5 -96.5t100.5 -248.5v-575h-195v117q-104 -133 -327 -133q-135 0 -229.5 66.5t-94.5 201.5q0 125 89 193.5t255 68.5h307v29q0 211 -211 211zM449 141q133 0 208.5 53.5t75.5 155.5v21h-270 q-188 0 -188 -115t174 -115zM719 1440l139 -144l-326 -256l-90 90z" glyph-name="uniE003" horiz-adv-x="1056" unicode=""/><glyph d="M522 754q-174 0 -200 -111h-191q12 119 115.5 198t281.5 79q199 0 299.5 -96.5t100.5 -248.5v-575h-195v117q-104 -133 -327 -133q-135 0 -229.5 66.5t-94.5 201.5q0 125 89 193.5t255 68.5h307v29q0 211 -211 211zM449 141q133 0 208.5 53.5t75.5 155.5v21h-270 q-188 0 -188 -115t174 -115zM205 1296l139 144l277 -310l-91 -90z" glyph-name="uniE004" horiz-adv-x="1056" unicode=""/><glyph d="M522 754q-174 0 -200 -111h-191q12 119 115.5 198t281.5 79q199 0 299.5 -96.5t100.5 -248.5v-575h-195v117q-104 -133 -327 -133q-135 0 -229.5 66.5t-94.5 201.5q0 125 89 193.5t255 68.5h307v29q0 211 -211 211zM426 1362h209l246 -305h-191l-160 166l-159 -166h-191z M449 141q133 0 208.5 53.5t75.5 155.5v21h-270q-188 0 -188 -115t174 -115z" glyph-name="uniE005" horiz-adv-x="1056" unicode=""/><glyph d="M522 754q-174 0 -200 -111h-191q12 119 115.5 198t281.5 79q199 0 299.5 -96.5t100.5 -248.5v-575h-195v117q-104 -133 -327 -133q-135 0 -229.5 66.5t-94.5 201.5q0 125 89 193.5t255 68.5h307v29q0 211 -211 211zM449 141q133 0 208.5 53.5t75.5 155.5v21h-270 q-188 0 -188 -115t174 -115zM201 1184q0 53 33.5 88t89 35t90.5 -35t35 -88q0 -55 -35 -90t-90.5 -35t-89 35t-33.5 90zM612 1184q0 53 35 88t90.5 35t89 -35t33.5 -88q0 -55 -33.5 -90t-89 -35t-90.5 35t-35 90z" glyph-name="uniE006" horiz-adv-x="1056" unicode=""/><glyph d="M522 754q-174 0 -200 -111h-191q12 119 115.5 198t281.5 79q199 0 299.5 -96.5t100.5 -248.5v-575h-195v117q-104 -133 -327 -133q-135 0 -229.5 66.5t-94.5 201.5q0 125 89 193.5t255 68.5h307v29q0 211 -211 211zM870 1268q-45 -219 -202 -219q-51 0 -138.5 40.5 t-123.5 40.5q-63 0 -89 -75l-127 20q45 217 203 217q51 0 138 -41t124 -41q63 0 88 76zM449 141q133 0 208.5 53.5t75.5 155.5v21h-270q-188 0 -188 -115t174 -115z" glyph-name="uniE007" horiz-adv-x="1056" unicode=""/><glyph d="M522 754q-174 0 -200 -111h-191q12 119 115.5 198t281.5 79q199 0 299.5 -96.5t100.5 -248.5v-575h-195v117q-104 -133 -327 -133q-135 0 -229.5 66.5t-94.5 201.5q0 125 89 193.5t255 68.5h307v29q0 211 -211 211zM530 1032q-94 0 -158.5 62.5t-64.5 154.5t64.5 154.5 t158.5 62.5q96 0 160 -62.5t64 -154.5t-64 -154.5t-160 -62.5zM449 141q133 0 208.5 53.5t75.5 155.5v21h-270q-188 0 -188 -115t174 -115zM530.5 1141q47.5 0 78 30.5t30.5 77.5t-30.5 78t-78 31t-78 -31t-30.5 -78t30.5 -77.5t78 -30.5z" glyph-name="uniE008" horiz-adv-x="1056" unicode=""/><glyph d="M522 754q-174 0 -200 -111h-191q12 119 115.5 198t281.5 79q199 0 299.5 -96.5t100.5 -248.5v-575h-195v117q-104 -133 -327 -133q-135 0 -229.5 66.5t-94.5 201.5q0 125 89 193.5t255 68.5h307v29q0 211 -211 211zM856 1243v-160h-651v160h651zM449 141 q133 0 208.5 53.5t75.5 155.5v21h-270q-188 0 -188 -115t174 -115z" glyph-name="uniE009" horiz-adv-x="1056" unicode=""/><glyph d="M522 754q-174 0 -200 -111h-191q12 119 115.5 198t281.5 79q199 0 299.5 -96.5t100.5 -248.5v-575h-195v117q-104 -133 -327 -133q-135 0 -229.5 66.5t-94.5 201.5q0 125 89 193.5t255 68.5h307v29q0 211 -211 211zM530.5 1051q-159.5 0 -243.5 88t-101 209h168 q8 -61 55.5 -101.5t121 -40.5t120.5 40t56 102h167q-16 -121 -100 -209t-243.5 -88zM449 141q133 0 208.5 53.5t75.5 155.5v21h-270q-188 0 -188 -115t174 -115z" glyph-name="uniE00A" horiz-adv-x="1056" unicode=""/><glyph d="M926 -213l51 -109q-84 -72 -211 -71q-92 0 -152.5 43t-60.5 121q0 135 180 235v111q-104 -133 -327 -133q-135 0 -229.5 66.5t-94.5 201.5q0 125 89 193.5t255 68.5h307v29q0 211 -211 211q-174 0 -200 -111h-191q12 119 115.5 198t281.5 79q199 0 299.5 -96.5 t100.5 -248.5v-575h-13q-184 -86 -184 -182q0 -61 82 -62q58 0 113 31zM449 141q133 0 208.5 53.5t75.5 155.5v21h-270q-188 0 -188 -115t174 -115z" glyph-name="uniE00B" horiz-adv-x="1056" unicode=""/><glyph d="M522 754q-174 0 -200 -111h-191q12 119 115.5 198t281.5 79q199 0 299.5 -96.5t100.5 -248.5v-575h-195v117q-104 -133 -327 -133q-135 0 -229.5 66.5t-94.5 201.5q0 125 89 193.5t255 68.5h307v29q0 211 -211 211zM530 1026q-94 0 -158.5 62.5t-64.5 154.5t64.5 154.5 t158.5 62.5q96 0 160 -62.5t64 -154.5t-64 -154.5t-160 -62.5zM449 141q133 0 208.5 53.5t75.5 155.5v21h-270q-188 0 -188 -115t174 -115zM719 1931l139 -143l-326 -256l-90 90zM530.5 1135q47.5 0 78 30.5t30.5 77.5t-30.5 78t-78 31t-78 -31t-30.5 -78t30.5 -77.5 t78 -30.5z" glyph-name="uniE00C" horiz-adv-x="1056" unicode=""/><glyph d="M522 922q70 0 142 -23l368 2v-160h-158q53 -86 54 -174q0 -152 -114 -254t-292 -102q-100 0 -188 39q-53 -23 -53 -80q0 -86 133 -86h264q152 0 231.5 -63.5t79.5 -182.5q0 -147 -123 -230t-340 -83q-213 0 -329.5 71.5t-116.5 200.5q0 66 32.5 117t88.5 72 q-102 45 -103 159q0 127 121 185q-102 102 -102 237q0 150 113.5 252.5t291.5 102.5zM522.5 371q98.5 0 158.5 54t60 142t-60 142.5t-158.5 54.5t-159 -54.5t-60.5 -142.5t60.5 -142t159 -54zM635 -66h-236q-137 0 -137 -114q0 -141 272.5 -141.5t272.5 145.5 q0 110 -172 110zM426 1362h209l246 -305h-191l-160 166l-159 -166h-191z" glyph-name="uniE00D" horiz-adv-x="1062" unicode=""/><glyph d="M522 922q70 0 142 -23l368 2v-160h-158q53 -86 54 -174q0 -152 -114 -254t-292 -102q-100 0 -188 39q-53 -23 -53 -80q0 -86 133 -86h264q152 0 231.5 -63.5t79.5 -182.5q0 -147 -123 -230t-340 -83q-213 0 -329.5 71.5t-116.5 200.5q0 66 32.5 117t88.5 72 q-102 45 -103 159q0 127 121 185q-102 102 -102 237q0 150 113.5 252.5t291.5 102.5zM522.5 371q98.5 0 158.5 54t60 142t-60 142.5t-158.5 54.5t-159 -54.5t-60.5 -142.5t60.5 -142t159 -54zM530.5 1051q-159.5 0 -243.5 88t-101 209h168q8 -61 55.5 -101.5t121 -40.5 t120.5 40t56 102h167q-16 -121 -100 -209t-243.5 -88zM635 -66h-236q-137 0 -137 -114q0 -141 272.5 -141.5t272.5 145.5q0 110 -172 110z" glyph-name="uniE00E" horiz-adv-x="1062" unicode=""/><glyph d="M522 922q70 0 142 -23l368 2v-160h-158q53 -86 54 -174q0 -152 -114 -254t-292 -102q-100 0 -188 39q-53 -23 -53 -80q0 -86 133 -86h264q152 0 231.5 -63.5t79.5 -182.5q0 -147 -123 -230t-340 -83q-213 0 -329.5 71.5t-116.5 200.5q0 66 32.5 117t88.5 72 q-102 45 -103 159q0 127 121 185q-102 102 -102 237q0 150 113.5 252.5t291.5 102.5zM522.5 371q98.5 0 158.5 54t60 142t-60 142.5t-158.5 54.5t-159 -54.5t-60.5 -142.5t60.5 -142t159 -54zM635 -66h-236q-137 0 -137 -114q0 -141 272.5 -141.5t272.5 145.5 q0 110 -172 110zM406 1192q0 55 34.5 90t90 35t90 -35t34.5 -90q0 -53 -34.5 -89t-90 -36t-90 36t-34.5 89z" glyph-name="uniE00F" horiz-adv-x="1062" unicode=""/><glyph d="M522 922q70 0 142 -23l368 2v-160h-158q53 -86 54 -174q0 -152 -114 -254t-292 -102q-100 0 -188 39q-53 -23 -53 -80q0 -86 133 -86h264q152 0 231.5 -63.5t79.5 -182.5q0 -147 -123 -230t-340 -83q-213 0 -329.5 71.5t-116.5 200.5q0 66 32.5 117t88.5 72 q-102 45 -103 159q0 127 121 185q-102 102 -102 237q0 150 113.5 252.5t291.5 102.5zM522.5 371q98.5 0 158.5 54t60 142t-60 142.5t-158.5 54.5t-159 -54.5t-60.5 -142.5t60.5 -142t159 -54zM635 -66h-236q-137 0 -137 -114q0 -141 272.5 -141.5t272.5 145.5 q0 110 -172 110zM426 1059l86 360h162l-45 -360h-203z" glyph-name="uniE010" horiz-adv-x="1062" unicode=""/><glyph d="M229 1769l140 148l262 -285l-90 -92z" glyph-name="uniE011" unicode=""/><glyph d="M655 1917l140 -148l-312 -229l-90 92z" glyph-name="uniE012" unicode=""/><glyph d="M164 1667q0 53 34.5 89t90 36t91.5 -36t36 -89q0 -55 -35 -91t-92 -36q-55 0 -90 36t-35 91zM608 1667q0 53 36 89t91.5 36t90 -36t34.5 -89q0 -55 -34.5 -91t-90.5 -36q-57 0 -92 36t-35 91z" glyph-name="uniE013" unicode=""/><glyph d="M408 1847h208l252 -299h-192l-164 156l-164 -156h-192z" glyph-name="uniE014" unicode=""/><glyph d="M731 1778l129 -23q-45 -215 -207 -215q-55 0 -143 40t-127 40q-66 0 -90 -76l-129 21q45 217 207 217q55 0 143 -40t127 -40q65 0 90 76z" glyph-name="uniE015" unicode=""/><glyph d="M848 1708v-160h-672v160h672z" glyph-name="uniE016" unicode=""/><glyph d="M512 1540q-160 0 -246 86t-104 205h170q8 -59 56 -96t124 -37q78 0 125 37t55 96h170q-18 -119 -104 -205t-246 -86z" glyph-name="uniE017" unicode=""/><glyph d="M383 1669q0 57 36 94t93 37t93 -37t36 -94q0 -55 -36 -92t-93 -37t-93 37t-36 92z" glyph-name="uniE018" unicode=""/><glyph d="M512 1649q47 0 78 30.5t31 77.5t-31 78t-78 31t-76.5 -31t-29.5 -78t29.5 -77.5t76.5 -30.5zM512 1540q-96 0 -160.5 62.5t-64.5 154.5q0 94 64.5 156.5t160.5 62.5t160.5 -62.5t64.5 -156.5q0 -92 -64.5 -154.5t-160.5 -62.5z" glyph-name="uniE019" unicode=""/><glyph d="M547 -336h-209l129 340h180z" glyph-name="uniE01A" unicode=""/><glyph d="M492 1827l-216 -287l-114 64l157 325zM883 1827l-215 -287l-115 64l158 325z" glyph-name="uniE01B" unicode=""/><glyph d="M674 -215l51 -109q-86 -74 -217 -73q-96 0 -157.5 43t-61.5 125q0 98 88 167.5t235 127.5l45 -66q-190 -82 -190 -180q0 -63 88 -64q66 0 119 29z" glyph-name="uniE01C" unicode=""/><glyph d="M616 1548h-208l-252 299h192l164 -155l164 155h192z" glyph-name="uniE01D" unicode=""/><glyph d="M641 -88l-90 -369h-168l45 369h213z" glyph-name="uniE01E" unicode=""/><glyph d="M885 1239v-162h-746v162h746z" glyph-name="uniE01F" unicode=""/><glyph d="M197 1184q0 53 34.5 88t90 35t89 -35t33.5 -88q0 -55 -33.5 -90t-89 -35t-90 35t-34.5 90zM580 1184q0 53 33.5 88t89 35t90 -35t34.5 -88q0 -55 -34.5 -90t-90 -35t-89 35t-33.5 90z" glyph-name="uniE020" unicode=""/><glyph d="M410 1362h204l220 -303h-187l-135 166l-135 -166h-187z" glyph-name="uniE021" unicode=""/><glyph d="M829 1268q-45 -215 -194 -215q-45 0 -123 36.5t-111 36.5q-53 0 -77 -71l-129 20q45 213 194 213q45 0 124 -37t110 -37q53 0 79 72z" glyph-name="uniE022" unicode=""/><glyph d="M801 1249v-157h-578v157h578z" glyph-name="uniE023" unicode=""/><glyph d="M512 1051q-145 0 -226 89t-91 208h167q4 -59 44 -100.5t106 -41.5t105.5 41t44.5 101h167q-10 -119 -91 -208t-226 -89z" glyph-name="uniE024" unicode=""/><glyph d="M870 -303q-100 -86 -233 -86q-109 0 -177.5 55t-68.5 141q0 100 84 169t232 126l32 -61q-92 -47 -135 -90t-43 -98q0 -45 33 -69t82 -24q70 0 125 43z" glyph-name="uniE025" unicode=""/><glyph d="M717 -215l51 -102q-84 -76 -205 -76q-94 0 -153.5 47t-59.5 129q0 90 76 163.5t182 123.5l49 -70q-137 -68 -137 -166q0 -78 88 -78q64 0 109 29z" glyph-name="uniE026" unicode=""/><glyph d="M408 1010l14 424h207l-70 -424h-151z" glyph-name="uniE027" unicode=""/><glyph d="M879 1227v-158h-734v158h734z" glyph-name="uniE028" unicode=""/><glyph d="M879 1227v-158h-734v158h734z" glyph-name="uniE029" unicode=""/><glyph d="M389 1059l86 360h162l-45 -360h-203z" glyph-name="uniE02A" unicode=""/><glyph d="M678 -213l51 -106q-94 -78 -221 -78q-98 0 -159.5 48t-61.5 136q0 197 336 319l49 -67q-92 -37 -148.5 -92.5t-56.5 -110.5q0 -80 88 -80q62 0 123 31z" glyph-name="uniE02B" unicode=""/><glyph d="M676 -219l51 -109q-88 -70 -211 -69q-96 0 -157.5 45t-61.5 127q0 178 293 291l47 -66q-160 -70 -160 -176q0 -68 86 -68q64 0 113 25z" glyph-name="uniE02C" unicode=""/><glyph d="M406 1004l14 430h211l-72 -430h-153z" glyph-name="uniE02D" unicode=""/><glyph glyph-name="uniE02E" horiz-adv-x="116" unicode=""/><glyph glyph-name="uniE02F" horiz-adv-x="235" unicode=""/><glyph d="M643 1014q219 0 371.5 -148.5t152.5 -367.5t-152.5 -368.5t-371.5 -149.5q-221 0 -373.5 149.5t-152.5 368.5t152.5 367.5t373.5 148.5zM643 162q135 0 225 94t90 242q0 145 -90 239t-225 94t-226 -94t-91 -239q0 -147 91 -241.5t226 -94.5z" glyph-name="uniE030" horiz-adv-x="1284" unicode=""/><glyph d="M129 176h293v617l-248 -74l-51 160l330 116h172v-819h280v-176h-776v176z" glyph-name="uniE031" horiz-adv-x="980" unicode=""/><glyph d="M522 836q-217 0 -231 -189h-197q10 166 115.5 266.5t314.5 100.5q199 0 304.5 -88t105.5 -228q0 -123 -62.5 -199.5t-207.5 -174.5l-218 -148h517v-176h-854v154l405 270q113 76 163 133t50 125q0 70 -51.5 112t-153.5 42z" glyph-name="uniE032" horiz-adv-x="1052" unicode=""/><glyph d="M612 825q-135 0 -206.5 -65.5t-79.5 -167.5h-207q12 182 139 303t358 121q197 0 333 -103.5t136 -279.5q0 -117 -51 -196t-139 -109q111 -25 183.5 -117t72.5 -231q0 -203 -151.5 -324t-378.5 -121q-250 0 -387.5 121t-151.5 319h207q10 -117 94 -183t238 -66 q145 0 229 69.5t84 194.5q0 117 -77 174t-212 57h-145v176h127q242 0 241 219q0 100 -70.5 154.5t-185.5 54.5z" glyph-name="uniE033" horiz-adv-x="1247" unicode=""/><glyph d="M1028 993v-815h275v-178h-275v-440h-213v440h-737v158l749 835h201zM319 178h496v551z" glyph-name="uniE034" horiz-adv-x="1353" unicode=""/><glyph d="M141 303l35 690h866v-188h-671l-23 -379q43 29 128 49.5t171 20.5q229 0 366.5 -130t137.5 -335q0 -221 -152.5 -358.5t-377.5 -137.5q-252 0 -387.5 121t-147.5 319h207q10 -115 93 -184.5t230 -69.5q141 0 231.5 86.5t90.5 219.5q0 129 -84 213t-242 84 q-182 0 -286 -78z" glyph-name="uniE035" horiz-adv-x="1245" unicode=""/><glyph d="M709 938q209 0 348 -134t139 -331q0 -219 -142.5 -357.5t-365.5 -138.5q-248 0 -407.5 171t-159.5 524q0 154 30.5 288t96 248.5t183.5 181t276 66.5q190 0 311 -104.5t143 -247.5h-207q-16 78 -81.5 125t-167.5 47q-346 0 -371 -514q57 80 156.5 128t218.5 48zM678 164 q139 0 222 85t83 222q0 127 -84 211t-221 84q-135 0 -228.5 -85t-93.5 -210q0 -131 93.5 -219t228.5 -88z" glyph-name="uniE036" horiz-adv-x="1290" unicode=""/><glyph d="M1063 840l-643 -1280h-238l633 1247h-729v186h977v-153z" glyph-name="uniE037" horiz-adv-x="1155" unicode=""/><glyph d="M653.5 1456q229.5 0 366.5 -110.5t137 -286.5q0 -106 -60.5 -194.5t-166.5 -127.5q127 -39 197.5 -130t70.5 -220q0 -188 -149.5 -299t-395.5 -111q-244 0 -393 111t-149 299q0 129 70.5 220t197.5 130q-106 39 -167.5 127t-61.5 195q0 176 137 286.5t366.5 110.5z M653.5 162q153.5 0 243.5 61.5t90 172t-91 178t-242.5 67.5t-241.5 -67.5t-90 -178t89 -172t242.5 -61.5zM653 1276q-131 0 -213 -61.5t-82 -172.5q0 -100 80 -165.5t215 -65.5q137 0 217 65.5t80 165.5q0 111 -83 172.5t-214 61.5z" glyph-name="uniE038" horiz-adv-x="1308" unicode=""/><glyph d="M586 55q-209 0 -348.5 134.5t-139.5 330.5q0 219 142.5 357.5t365.5 138.5q248 0 409 -171t161 -523q0 -121 -18.5 -230.5t-62.5 -213t-109.5 -178.5t-168 -120t-229.5 -45q-190 0 -311 104.5t-144 247.5h207q16 -76 82.5 -123t169.5 -47q98 0 171 43t112.5 119t60 161 t25.5 187q-57 -78 -156.5 -125t-218.5 -47zM618 829q-139 0 -223 -85t-84 -222q0 -129 85 -213t222 -84q133 0 226.5 86t93.5 211q0 129 -93.5 218t-226.5 89z" glyph-name="uniE039" horiz-adv-x="1288" unicode=""/><glyph d="M1219 717q0 -340 -157 -540t-411 -200q-256 0 -412.5 200t-156.5 540t156.5 539.5t412.5 199.5q254 0 411 -199.5t157 -539.5zM999 717q0 256 -95 400.5t-253 144.5q-160 0 -255 -144.5t-95 -400.5t95.5 -400.5t254.5 -144.5q158 0 253 144.5t95 400.5z" glyph-name="uniE03A" horiz-adv-x="1300" unicode=""/><glyph d="M662 0v1229l-377 -115l-62 172l467 154h187v-1440h-215z" glyph-name="uniE03B" horiz-adv-x="1300" unicode=""/><glyph d="M643 1266q-289 0 -309 -275h-213q12 209 142 337t384 128q233 0 367.5 -122t134.5 -312q0 -156 -79 -266.5t-253 -257.5l-352 -305h711v-193h-1043v154l520 450q152 133 215.5 219t63.5 195q0 113 -77 180.5t-212 67.5z" glyph-name="uniE03C" horiz-adv-x="1300" unicode=""/><glyph d="M645 1266q-147 0 -225 -66.5t-86 -183.5h-211q14 199 147 319.5t379 120.5q207 0 353.5 -103.5t146.5 -283.5q0 -123 -55.5 -204t-145.5 -111q109 -23 176.5 -111t67.5 -227q0 -203 -152.5 -321t-386.5 -118q-260 0 -397 120t-152 321h209q23 -250 338 -250 q152 0 238 66.5t86 189.5q0 227 -283 227h-160v176h142q258 0 258 226q0 100 -82 156.5t-205 56.5z" glyph-name="uniE03D" horiz-adv-x="1300" unicode=""/><glyph d="M1044 1436v-906h230v-188h-230v-342h-213v342h-782v164l795 930h200zM299 530h532v623z" glyph-name="uniE03E" horiz-adv-x="1300" unicode=""/><glyph d="M655 168q139 0 228.5 81t89.5 208q0 121 -84 200.5t-240 79.5q-184 0 -291 -78l-184 58l33 717h885v-193h-691l-18 -397q43 29 128 49t173 20q229 0 367.5 -125.5t138.5 -326.5q0 -217 -152.5 -350.5t-380.5 -133.5q-250 0 -388 121t-150 316h207q12 -109 97 -177.5 t232 -68.5z" glyph-name="uniE03F" horiz-adv-x="1300" unicode=""/><glyph d="M719 946q215 0 358.5 -136t143.5 -335q0 -221 -147.5 -359.5t-377.5 -138.5q-252 0 -413.5 174.5t-161.5 524.5q0 123 18.5 231.5t61.5 211t108.5 176t167 117.5t230.5 44q193 0 320.5 -105.5t148.5 -248.5h-207q-16 76 -89 123t-178 47q-340 0 -364 -496 q125 170 381 170zM686 164q145 0 233.5 84t88.5 223q0 131 -89.5 214t-232.5 83q-139 0 -234.5 -84t-95.5 -211q0 -133 96.5 -221t233.5 -88z" glyph-name="uniE040" horiz-adv-x="1300" unicode=""/><glyph d="M1155 1278l-643 -1278h-229l626 1241h-772v193h1018v-156z" glyph-name="uniE041" horiz-adv-x="1300" unicode=""/><glyph d="M651 -23q-252 0 -407.5 112t-155.5 298q0 129 72.5 221t201.5 127q-109 35 -170 122t-61 200q0 176 142.5 287.5t377.5 111.5q238 0 380.5 -111.5t142.5 -287.5q0 -113 -61.5 -200t-172.5 -122q129 -35 203 -127t74 -221q0 -186 -157 -298t-409 -112zM651.5 637 q-159.5 0 -254 -66.5t-94.5 -173.5q0 -111 93 -173t255 -62t255 62.5t93 172.5q0 106 -94 173t-253.5 67zM651 813q143 0 225 64.5t82 164.5q0 109 -85 170.5t-222 61.5t-222 -61.5t-85 -170.5q0 -100 83 -164.5t224 -64.5z" glyph-name="uniE042" horiz-adv-x="1300" unicode=""/><glyph d="M588 487q-213 0 -356.5 136.5t-143.5 334.5q0 221 146.5 359.5t375.5 138.5q252 0 415 -174t163 -524q0 -154 -31 -287t-96.5 -247.5t-183 -180.5t-277.5 -66q-193 0 -319.5 105.5t-147.5 249.5h205q16 -76 89 -123t177 -47q338 0 367 497q-127 -172 -383 -172zM621 1270 q-145 0 -233.5 -84t-88.5 -223q0 -131 89 -214t233 -83q139 0 235 84t96 211q0 133 -96 221t-235 88z" glyph-name="uniE043" horiz-adv-x="1300" unicode=""/><glyph d="M651 1014q219 0 372 -148.5t153 -367.5t-153 -368.5t-372 -149.5q-221 0 -373.5 149.5t-152.5 368.5t152.5 367.5t373.5 148.5zM651 162q135 0 225.5 94t90.5 242q0 145 -90.5 239t-225.5 94t-226 -94t-91 -239q0 -147 91 -241.5t226 -94.5z" glyph-name="uniE044" horiz-adv-x="1300" unicode=""/><glyph d="M270 176h334v617l-293 -82l-51 159l373 125h174v-819h321v-176h-858v176z" glyph-name="uniE045" horiz-adv-x="1300" unicode=""/><glyph d="M645 836q-217 0 -231 -189h-197q10 166 115.5 266.5t314.5 100.5q199 0 304.5 -88t105.5 -228q0 -123 -62.5 -199.5t-208.5 -174.5l-217 -148h516v-176h-854v154l406 270q113 76 163 133t50 125q0 70 -51.5 112t-153.5 42z" glyph-name="uniE046" horiz-adv-x="1300" unicode=""/><glyph d="M647 825q-135 0 -206.5 -65.5t-80.5 -167.5h-206q12 182 139 303t358 121q197 0 333 -103.5t136 -279.5q0 -117 -51 -196t-139 -109q111 -25 183.5 -117t72.5 -231q0 -203 -151.5 -324t-379.5 -121q-250 0 -387 121t-151 319h207q10 -117 94 -183t237 -66 q145 0 229.5 69.5t84.5 194.5q0 117 -77 174t-212 57h-145v176h127q242 0 241 219q0 100 -70.5 154.5t-185.5 54.5z" glyph-name="uniE047" horiz-adv-x="1300" unicode=""/><glyph d="M1001 993v-815h275v-178h-275v-440h-213v440h-737v158l750 835h200zM293 178h495v551z" glyph-name="uniE048" horiz-adv-x="1300" unicode=""/><glyph d="M182 303l35 690h866v-188h-671l-23 -379q43 29 128 49.5t171 20.5q229 0 366.5 -130t137.5 -335q0 -221 -152.5 -358.5t-377.5 -137.5q-252 0 -387.5 121t-147.5 319h207q10 -115 93 -184.5t230 -69.5q141 0 231.5 86.5t90.5 219.5q0 129 -84 213t-242 84 q-182 0 -286 -78z" glyph-name="uniE049" horiz-adv-x="1300" unicode=""/><glyph d="M723 938q209 0 348 -134t139 -331q0 -219 -142 -357.5t-366 -138.5q-248 0 -407.5 171t-159.5 524q0 154 31 288t96.5 248.5t183 181t275.5 66.5q190 0 311 -104.5t144 -247.5h-207q-16 78 -82 125t-168 47q-346 0 -371 -514q57 80 156.5 128t218.5 48zM692 164 q139 0 222 85t83 222q0 127 -84 211t-221 84q-135 0 -228 -85t-93 -210q0 -131 93 -219t228 -88z" glyph-name="uniE04A" horiz-adv-x="1300" unicode=""/><glyph d="M1139 840l-643 -1280h-238l633 1247h-729v186h977v-153z" glyph-name="uniE04B" horiz-adv-x="1300" unicode=""/><glyph d="M649.5 1456q229.5 0 366.5 -110.5t137 -286.5q0 -106 -60.5 -194.5t-166.5 -127.5q127 -39 197.5 -130t70.5 -220q0 -188 -149.5 -299t-395.5 -111q-244 0 -393.5 111t-149.5 299q0 129 71 220t198 130q-106 39 -168 127t-62 195q0 176 137.5 286.5t367 110.5zM649.5 162 q153.5 0 243.5 61.5t90 172t-91 178t-242.5 67.5t-242 -67.5t-90.5 -178t89.5 -172t243 -61.5zM649 1276q-131 0 -213 -61.5t-82 -172.5q0 -100 80 -165.5t215 -65.5q137 0 217 65.5t80 165.5q0 111 -83 172.5t-214 61.5z" glyph-name="uniE04C" horiz-adv-x="1300" unicode=""/><glyph d="M588 55q-209 0 -348.5 134.5t-139.5 330.5q0 219 142.5 357.5t365.5 138.5q248 0 409 -171t161 -523q0 -121 -18.5 -230.5t-62.5 -213t-109.5 -178.5t-168 -120t-229.5 -45q-190 0 -311 104.5t-144 247.5h207q16 -76 83 -123t169 -47q98 0 171 43t113 119t60 161t25 187 q-57 -78 -156.5 -125t-218.5 -47zM621 829q-139 0 -223.5 -85t-84.5 -222q0 -129 85 -213t223 -84q133 0 226 86t93 211q0 129 -93 218t-226 89z" glyph-name="uniE04D" horiz-adv-x="1300" unicode=""/><glyph d="M-66 0h-192l881 1434h192z" glyph-name="uniE04E" horiz-adv-x="557" unicode=""/><glyph d="M483 487v-100q215 -33 236 -219h-158q-6 59 -78 78v-185l31 -6q223 -43 223 -219q0 -96 -66.5 -153.5t-187.5 -71.5v-98h-137v98q-125 12 -196.5 72.5t-81.5 160.5h157q14 -82 121 -96v195l-16 2q-125 25 -186.5 76t-61.5 147q0 201 264 223v96h137zM250 172 q0 -59 96 -82v162q-96 -12 -96 -80zM569 -168q0 57 -86 82v-164q86 14 86 82z" glyph-name="uniE050" horiz-adv-x="806" unicode=""/><glyph d="M485 487v-98q125 -18 203 -100t88 -185h-174q-16 96 -117 127v-462q98 31 119 129h172q-10 -104 -88 -186.5t-203 -100.5v-98h-135v98q-137 25 -229 134.5t-92 254.5t92 255t229 134v98h135zM203 0q0 -84 40 -145.5t107 -83.5v458q-68 -23 -107.5 -84t-39.5 -145z" glyph-name="uniE051" horiz-adv-x="806" unicode=""/><glyph d="M55 51h95v35q0 139 82.5 224t228.5 85q137 0 210.5 -71.5t84.5 -184.5h-160q-8 113 -129 113q-152 0 -152 -178v-23h248v-131h-248v-158h441v-141h-701v141h95v158h-95v131z" glyph-name="uniE052" horiz-adv-x="806" unicode=""/><glyph d="M104 -127h215v16l-34 56h-181v116h111l-192 318h186l194 -342l195 342h186l-190 -318h106v-116h-178l-33 -56v-16h211v-117h-211v-135h-170v135h-215v117z" glyph-name="uniE053" horiz-adv-x="806" unicode=""/><glyph d="M109 0v29h-76v112h98q41 117 142.5 185.5t242.5 68.5q145 0 260 -69l-65 -123q-82 51 -183 51q-147 0 -213 -113h303v-112h-335q-2 -10 -2 -28.5t2 -29.5h258v-112h-226q66 -113 213 -113q98 0 183 49l65 -121q-115 -70 -260 -69q-141 0 -242.5 68.5t-142.5 185.5h-98 v112h76v29z" glyph-name="uniE054" horiz-adv-x="806" unicode=""/><glyph d="M72 -518l55 323h188l-104 -323h-139z" glyph-name="uniE055" horiz-adv-x="405" unicode=""/><glyph d="M203 -385q-53 0 -86 33t-33 80t33 79.5t86 32.5t86 -32.5t33 -79.5t-33 -80t-86 -33z" glyph-name="uniE056" horiz-adv-x="405" unicode=""/><glyph d="M53 -78v156h416v-156h-416z" glyph-name="uniE057" horiz-adv-x="522" unicode=""/><glyph d="M483 1921v-100q215 -33 236 -219h-158q-6 59 -78 77v-184l31 -6q223 -43 223 -219q0 -98 -66.5 -155.5t-187.5 -70.5v-98h-137v96q-125 12 -196.5 74t-81.5 162h157q14 -84 121 -98v194l-16 4q-125 25 -186.5 76t-61.5 148q0 201 264 223v96h137zM250 1606q0 -59 96 -82 v162q-96 -12 -96 -80zM569 1266q0 57 -86 80v-162q86 16 86 82z" glyph-name="uniE058" horiz-adv-x="806" unicode=""/><glyph d="M485 1921v-98q125 -18 203 -100.5t88 -184.5h-174q-16 96 -117 127v-465q98 31 119 131h172q-10 -104 -88 -187t-203 -102v-96h-135v98q-137 23 -229 132.5t-92 257.5q0 145 92 254.5t229 134.5v98h135zM203 1434q0 -84 40 -146.5t107 -85.5v461q-68 -23 -107.5 -84 t-39.5 -145z" glyph-name="uniE059" horiz-adv-x="806" unicode=""/><glyph d="M55 1485h95v35q0 139 82.5 224t228.5 85q137 0 210.5 -71.5t84.5 -184.5h-160q-8 113 -129 113q-152 0 -152 -179v-22h248v-131h-248v-158h441v-141h-701v141h95v158h-95v131z" glyph-name="uniE05A" horiz-adv-x="806" unicode=""/><glyph d="M104 1307h215v16l-34 55h-181v117h111l-192 317h186l194 -342l195 342h186l-190 -317h106v-117h-178l-33 -55v-16h211v-117h-211v-135h-170v135h-215v117z" glyph-name="uniE05B" horiz-adv-x="806" unicode=""/><glyph d="M109 1434v28h-76v113h98q41 117 142.5 185.5t242.5 68.5q145 0 260 -70l-65 -123q-82 51 -183 52q-147 0 -213 -113h303v-113h-335q-2 -10 -2 -28q0 -20 2 -29h258v-113h-226q66 -113 213 -112q98 0 183 49l65 -121q-115 -70 -260 -70q-141 0 -242.5 69t-142.5 185h-98 v113h76v29z" glyph-name="uniE05C" horiz-adv-x="806" unicode=""/><glyph d="M72 915l55 324h188l-104 -324h-139z" glyph-name="uniE05D" horiz-adv-x="405" unicode=""/><glyph d="M203 1049q-53 0 -86 32.5t-33 79.5t33 80t86 33t86 -33t33 -80t-33 -79.5t-86 -32.5z" glyph-name="uniE05E" horiz-adv-x="405" unicode=""/><glyph d="M53 1356v155h416v-155h-416z" glyph-name="uniE05F" horiz-adv-x="522" unicode=""/><glyph d="M403.5 774q157.5 0 258 -111.5t100.5 -283.5t-100.5 -283.5t-258 -111.5t-257 111.5t-99.5 283.5t99.5 283.5t257 111.5zM403 133q84 0 136.5 68.5t52.5 177t-52.5 177.5t-136.5 69t-136 -69t-52 -177.5t52 -177t136 -68.5z" glyph-name="uniE060" horiz-adv-x="806" unicode=""/><glyph d="M391 0v586l-201 -64l-45 142l275 96h135v-760h-164z" glyph-name="uniE061" horiz-adv-x="806" unicode=""/><glyph d="M399 625q-141 0 -151 -136h-160q6 129 85 207t233 78q139 0 217.5 -68.5t78.5 -177.5q0 -145 -176 -272l-143 -109h338v-147h-621v117l299 221q76 57 107 96t31 86t-37.5 76t-100.5 29z" glyph-name="uniE062" horiz-adv-x="806" unicode=""/><glyph d="M395 629q-147 0 -153 -121h-158q6 125 88 195.5t229 70.5q129 0 213 -58.5t84 -166.5q0 -57 -26.5 -97t-67.5 -53q117 -35 117 -176q0 -109 -88 -174t-225 -65q-313 0 -334 266h159q10 -121 166 -121q154 0 154 107q0 92 -123 92h-82v127h82q104 0 105 77q-1 97 -140 97z " glyph-name="uniE063" horiz-adv-x="806" unicode=""/><glyph d="M643 760v-461h121v-143h-121v-156h-164v156h-418v123l441 481h141zM246 299h235v254z" glyph-name="uniE064" horiz-adv-x="806" unicode=""/><glyph d="M410 129q70 0 108.5 30.5t38.5 86.5q0 123 -156 123q-90 0 -141 -39l-143 30l24 398h535v-148h-395l-11 -153q63 35 164 35q139 0 215 -68t76 -178q0 -125 -86 -193.5t-229 -68.5q-150 0 -229 66.5t-85 185.5h156q11 -107 158 -107z" glyph-name="uniE065" horiz-adv-x="806" unicode=""/><glyph d="M461 506q125 0 206 -72t81 -182q0 -119 -88.5 -193.5t-227.5 -74.5q-152 0 -247 92t-95 266q0 209 90 320.5t262 111.5q125 0 198 -60.5t89 -154.5h-156q-16 78 -129 78q-172 0 -186 -205q64 74 203 74zM428 123q72 0 115 35t43 94t-42 93t-116 34t-117 -34t-43 -93 t44 -94t116 -35z" glyph-name="uniE066" horiz-adv-x="806" unicode=""/><glyph d="M707 629l-347 -629h-192l336 610h-406v148h609v-129z" glyph-name="uniE067" horiz-adv-x="806" unicode=""/><glyph d="M403.5 774q145.5 0 228.5 -59.5t83 -157.5q0 -121 -117 -164q57 -18 98 -66t41 -114q0 -106 -90 -167.5t-243.5 -61.5t-243.5 61t-90 168q0 66 41 114t100 66q-117 41 -117 164q0 98 82 157.5t227.5 59.5zM403.5 125q167.5 0 167.5 98.5t-167.5 98.5t-167.5 -98.5 t167.5 -98.5zM403 446q70 0 109 26t39 69q0 92 -148 92q-145 0 -145 -92q0 -43 38.5 -69t106.5 -26z" glyph-name="uniE068" horiz-adv-x="806" unicode=""/><glyph d="M348 252q-125 0 -206 71.5t-81 182.5q0 119 88.5 193.5t225.5 74.5q154 0 249 -92t95 -266q0 -209 -91 -320.5t-263 -111.5q-123 0 -196 60t-89 155h153q16 -78 132 -78q174 0 184 205q-62 -74 -201 -74zM381 635q-72 0 -116 -35t-44 -94.5t43 -93t117 -33.5 q72 0 115 33.5t43 93t-43 94.5t-115 35z" glyph-name="uniE069" horiz-adv-x="806" unicode=""/><glyph d="M102 379q0 182 115 324.5t301 179.5v-148q-113 -27 -179.5 -124t-66.5 -232t67 -232.5t179 -123.5v-148q-186 37 -301 179.5t-115 324.5z" glyph-name="uniE06A" horiz-adv-x="579" unicode=""/><glyph d="M477 379q0 -182 -114.5 -324.5t-301.5 -179.5v148q113 27 179.5 124t66.5 232t-66.5 232.5t-179.5 123.5v148q186 -37 301 -179.5t115 -324.5z" glyph-name="uniE06B" horiz-adv-x="579" unicode=""/><glyph d="M483 866v-100q215 -33 236 -219h-158q-6 59 -78 78v-185l31 -6q223 -43 223 -219q0 -98 -66.5 -155.5t-187.5 -69.5v-99h-137v99q-125 10 -196.5 71.5t-81.5 161.5h157q14 -84 121 -98v194l-16 5q-125 25 -186.5 76t-61.5 147q0 201 264 223v96h137zM250 551 q0 -59 96 -82v162q-96 -12 -96 -80zM569 211q0 59 -86 80v-162q86 14 86 82z" glyph-name="uniE06C" horiz-adv-x="806" unicode=""/><glyph d="M485 866v-98q125 -18 203 -100t88 -185h-174q-16 96 -117 127v-465q98 31 119 131h172q-10 -104 -88 -186t-203 -100v-99h-135v99q-137 23 -229 132t-92 257q0 145 92 254.5t229 134.5v98h135zM203 379q0 -84 40 -146.5t107 -85.5v461q-68 -23 -107.5 -84t-39.5 -145z " glyph-name="uniE06D" horiz-adv-x="806" unicode=""/><glyph d="M55 430h95v35q0 139 82.5 224t228.5 85q137 0 210.5 -71.5t84.5 -184.5h-160q-8 113 -129 113q-152 0 -152 -178v-23h248v-131h-248v-158h441v-141h-701v141h95v158h-95v131z" glyph-name="uniE06E" horiz-adv-x="806" unicode=""/><glyph d="M104 252h215v16l-34 56h-181v116h111l-192 318h186l194 -342l195 342h186l-190 -318h106v-116h-178l-33 -56v-16h211v-117h-211v-135h-170v135h-215v117z" glyph-name="uniE06F" horiz-adv-x="806" unicode=""/><glyph d="M109 379v29h-76v112h98q41 117 142.5 185.5t242.5 68.5q145 0 260 -69l-65 -123q-82 51 -183 51q-147 0 -213 -113h303v-112h-335q-2 -10 -2 -29q0 -20 2 -29h258v-112h-226q66 -113 213 -113q98 0 183 49l65 -121q-115 -70 -260 -69q-141 0 -242.5 68.5t-142.5 185.5 h-98v112h76v29z" glyph-name="uniE070" horiz-adv-x="806" unicode=""/><glyph d="M72 -139l55 323h188l-104 -323h-139z" glyph-name="uniE071" horiz-adv-x="405" unicode=""/><glyph d="M203 -6q-53 0 -86 32.5t-33 80t33 80t86 32.5t86 -32.5t33 -80t-33 -80t-86 -32.5z" glyph-name="uniE072" horiz-adv-x="405" unicode=""/><glyph d="M53 301v156h416v-156h-416z" glyph-name="uniE073" horiz-adv-x="522" unicode=""/><glyph d="M403.5 1450q157.5 0 258 -111.5t100.5 -283.5t-100.5 -284t-258 -112t-257 112t-99.5 284t99.5 283.5t257 111.5zM403 809q84 0 136.5 68.5t52.5 177t-52.5 177t-136.5 68.5t-136 -68.5t-52 -177t52 -177t136 -68.5z" glyph-name="uniE074" horiz-adv-x="806" unicode=""/><glyph d="M391 676v586l-201 -64l-45 141l275 97h135v-760h-164z" glyph-name="uniE075" horiz-adv-x="806" unicode=""/><glyph d="M399 1300q-141 0 -151 -135h-160q6 129 85 207t233 78q139 0 217.5 -68.5t78.5 -177.5q0 -145 -176 -272l-143 -109h338v-147h-621v117l299 221q76 57 107 96t31 86t-37.5 75.5t-100.5 28.5z" glyph-name="uniE076" horiz-adv-x="806" unicode=""/><glyph d="M395 1305q-147 0 -153 -121h-158q6 125 88 195.5t229 70.5q129 0 213 -58.5t84 -166.5q0 -57 -26.5 -97.5t-67.5 -52.5q117 -35 117 -176q0 -109 -88 -174.5t-225 -65.5q-313 0 -334 267h159q10 -121 166 -121q154 0 154 106q0 92 -123 93h-82v126h82q104 0 105 78 q-1 97 -140 97z" glyph-name="uniE077" horiz-adv-x="806" unicode=""/><glyph d="M643 1436v-461h121v-144h-121v-155h-164v155h-418v123l441 482h141zM246 975h235v254z" glyph-name="uniE078" horiz-adv-x="806" unicode=""/><glyph d="M410 805q70 0 108.5 30.5t38.5 86.5q0 123 -156 122q-90 0 -141 -38l-143 30l24 398h535v-148h-395l-11 -153q63 35 164 34q139 0 215 -67.5t76 -177.5q0 -125 -86 -194t-229 -69q-150 0 -229 67t-85 185h156q11 -106 158 -106z" glyph-name="uniE079" horiz-adv-x="806" unicode=""/><glyph d="M461 1182q125 0 206 -72t81 -182q0 -119 -88.5 -194t-227.5 -75q-152 0 -247 92.5t-95 266.5q0 209 90 320.5t262 111.5q125 0 198 -60.5t89 -154.5h-156q-16 78 -129 78q-172 0 -186 -205q64 74 203 74zM428 799q72 0 115 34.5t43 94t-42 93.5t-116 34t-117 -34 t-43 -93.5t44 -94t116 -34.5z" glyph-name="uniE07A" horiz-adv-x="806" unicode=""/><glyph d="M707 1305l-347 -629h-192l336 610h-406v148h609v-129z" glyph-name="uniE07B" horiz-adv-x="806" unicode=""/><glyph d="M403.5 1450q145.5 0 228.5 -59.5t83 -157.5q0 -121 -117 -164q57 -18 98 -66.5t41 -113.5q0 -106 -90 -168t-243.5 -62t-243.5 61.5t-90 168.5q0 66 41 114t100 66q-117 41 -117 164q0 98 82 157.5t227.5 59.5zM403.5 801q167.5 0 167.5 98t-167.5 98t-167.5 -98 t167.5 -98zM403 1122q70 0 109 26t39 69q0 92 -148 92q-145 0 -145 -92q0 -43 38.5 -69t106.5 -26z" glyph-name="uniE07C" horiz-adv-x="806" unicode=""/><glyph d="M348 928q-125 0 -206 71.5t-81 182.5q0 119 88.5 193.5t225.5 74.5q154 0 249 -92t95 -266q0 -209 -91 -321t-263 -112q-123 0 -196 60.5t-89 154.5h153q16 -78 132 -77q174 0 184 204q-62 -73 -201 -73zM381 1311q-72 0 -116 -35t-44 -94.5t43 -93t117 -33.5 q72 0 115 33.5t43 93t-43 94.5t-115 35z" glyph-name="uniE07D" horiz-adv-x="806" unicode=""/><glyph d="M102 1054.5q0 182.5 115 325t301 179.5v-148q-113 -27 -179.5 -124t-66.5 -232t67 -232.5t179 -124.5v-147q-186 37 -301 179t-115 324.5z" glyph-name="uniE07E" horiz-adv-x="579" unicode=""/><glyph d="M477 1054.5q0 -182.5 -114.5 -324.5t-301.5 -179v147q113 27 179.5 124.5t66.5 232.5t-66.5 232t-179.5 124v148q186 -37 301 -179.5t115 -325z" glyph-name="uniE07F" horiz-adv-x="579" unicode=""/><glyph d="M483 1542v-100q215 -33 236 -219h-158q-6 59 -78 77v-184l31 -6q223 -43 223 -219q0 -98 -66.5 -155.5t-187.5 -69.5v-99h-137v97q-125 12 -196.5 73.5t-81.5 161.5h157q14 -84 121 -98v194l-16 4q-125 25 -186.5 76t-61.5 148q0 201 264 223v96h137zM250 1227 q0 -59 96 -82v162q-96 -12 -96 -80zM569 887q0 59 -86 80v-162q86 16 86 82z" glyph-name="uniE080" horiz-adv-x="806" unicode=""/><glyph d="M485 1542v-98q125 -18 203 -100t88 -185h-174q-16 96 -117 127v-465q98 31 119 131h172q-10 -104 -88 -187t-203 -101v-97h-135v99q-137 23 -229 132t-92 257q0 145 92 254.5t229 134.5v98h135zM203 1055q0 -84 40 -146.5t107 -85.5v461q-68 -23 -107.5 -84t-39.5 -145z " glyph-name="uniE081" horiz-adv-x="806" unicode=""/><glyph d="M55 1106h95v35q0 139 82.5 224t228.5 85q137 0 210.5 -71.5t84.5 -184.5h-160q-8 113 -129 113q-152 0 -152 -179v-22h248v-131h-248v-158h441v-141h-701v141h95v158h-95v131z" glyph-name="uniE082" horiz-adv-x="806" unicode=""/><glyph d="M104 928h215v16l-34 55h-181v117h111l-192 318h186l194 -342l195 342h186l-190 -318h106v-117h-178l-33 -55v-16h211v-117h-211v-135h-170v135h-215v117z" glyph-name="uniE083" horiz-adv-x="806" unicode=""/><glyph d="M109 1055v28h-76v113h98q41 117 142.5 185.5t242.5 68.5q145 0 260 -70l-65 -123q-82 51 -183 52q-147 0 -213 -113h303v-113h-335q-2 -10 -2 -28q0 -20 2 -29h258v-113h-224q66 -113 211 -112q98 0 183 49l65 -121q-115 -70 -260 -70q-141 0 -242.5 69t-142.5 185h-98 v113h76v29z" glyph-name="uniE084" horiz-adv-x="806" unicode=""/><glyph d="M72 537l55 323h188l-104 -323h-139z" glyph-name="uniE085" horiz-adv-x="405" unicode=""/><glyph d="M203 670q-53 0 -86 32.5t-33 79.5t33 80t86 33t86 -33t33 -80t-33 -79.5t-86 -32.5z" glyph-name="uniE086" horiz-adv-x="405" unicode=""/><glyph d="M53 977v156h416v-156h-416z" glyph-name="uniE087" horiz-adv-x="522" unicode=""/><glyph d="M1393 109v-154q-168 -76 -404 -76q-373 0 -616.5 238.5t-243.5 591.5q0 365 247 605t630 240q379 0 615.5 -222t236.5 -572q0 -209 -98.5 -334t-258.5 -125q-176 0 -235 162q-111 -160 -295 -160q-166 0 -278.5 118t-112.5 296q0 174 113.5 292.5t277.5 118.5 q156 0 260 -118v104h166v-471q0 -102 26.5 -147t85.5 -45q78 0 125 80.5t47 228.5q0 293 -185 466t-490 173q-309 0 -505 -192.5t-196 -497.5q0 -291 192.5 -482.5t491.5 -191.5q224 0 404 74zM760 714.5q0 -114.5 64.5 -185t170.5 -70.5q98 0 167 71.5t69 184t-68.5 184.5 t-167.5 72q-106 0 -170.5 -71t-64.5 -185.5z" glyph-name="uniE088" horiz-adv-x="1986" unicode=""/><glyph d="M141 717q0 289 168 494.5t436 261.5v-197q-172 -47 -276 -190.5t-104 -368.5t104 -368.5t276 -190.5v-197q-268 55 -436 261t-168 495z" glyph-name="uniE089" horiz-adv-x="819" unicode=""/><glyph d="M678 717q0 -289 -167 -495t-435 -261v197q172 47 275.5 190.5t103.5 368.5t-103.5 368.5t-275.5 190.5v197q268 -55 435 -261t167 -495z" glyph-name="uniE08A" horiz-adv-x="819" unicode=""/><glyph d="M184 1434h535v-189h-320v-1057h320v-188h-535v1434z" glyph-name="uniE08B" horiz-adv-x="792" unicode=""/><glyph d="M76 1434h534v-1434h-534v188h319v1057h-319v189z" glyph-name="uniE08C" horiz-adv-x="792" unicode=""/><glyph d="M113 623v188q109 0 168 52t51 147l-6 86q-12 170 66.5 254t293.5 84h105v-189h-78q-106 0 -141 -39t-31 -129l4 -86q10 -219 -185 -274q195 -55 185 -275l-4 -86q-4 -90 30.5 -129t141.5 -39h78v-188h-105q-215 0 -294 84t-66 254l6 86q8 94 -51 146.5t-168 52.5z" glyph-name="uniE08D" horiz-adv-x="866" unicode=""/><glyph d="M754 811v-188q-109 0 -168.5 -52.5t-50.5 -146.5l8 -86q12 -170 -68 -254t-293 -84h-106v188h80q106 0 141 39t31 129l-4 86q-14 217 182 275q-197 57 -182 274l4 86q4 90 -31 129t-141 39h-80v189h106q213 0 293 -84t68 -254l-8 -86q-8 -94 51 -146.5t168 -52.5z" glyph-name="uniE08E" horiz-adv-x="866" unicode=""/><glyph d="M717 295h-178v336h-336v170h336v338h178v-338h336v-170h-336v-336z" glyph-name="uniE08F" horiz-adv-x="1255" unicode=""/><glyph d="M1049 801v-170h-840v170h840z" glyph-name="uniE090" horiz-adv-x="1255" unicode=""/><glyph d="M250 971l123 123l254 -256l256 256l125 -123l-256 -256l256 -254l-125 -123l-256 254l-254 -254l-123 123l254 254z" glyph-name="uniE091" horiz-adv-x="1255" unicode=""/><glyph d="M1049 801v-170h-840v170h840zM487 1075.5q0 59.5 40 99t102 39.5q59 0 99 -39.5t40 -99t-40 -99.5t-99 -40q-61 0 -101.5 40t-40.5 99.5zM487 356.5q0 59.5 40 100.5t102 41q59 0 99 -41t40 -100.5t-40 -99.5t-99 -40q-61 0 -101.5 40t-40.5 99.5z" glyph-name="uniE092" horiz-adv-x="1255" unicode=""/><glyph d="M1049 999v-170h-840v170h840zM1049 602v-170h-840v170h840z" glyph-name="uniE093" horiz-adv-x="1255" unicode=""/><glyph d="M1012 1200l-121 -201h180v-170h-283l-135 -227h418v-170h-520l-160 -266l-147 78l112 188h-172v170h273l137 227h-410v170h512l168 281z" glyph-name="uniE094" horiz-adv-x="1255" unicode=""/><glyph d="M934 655l139 -18q-39 -254 -242 -254q-74 0 -193.5 55.5t-170.5 55.5q-98 0 -125 -107l-139 19q39 254 241 253q76 0 195 -55t170 -55q100 0 125 106zM934 1044l139 -16q-39 -256 -242 -256q-74 0 -193.5 56.5t-170.5 56.5q-96 0 -125 -107l-139 17q39 256 241 256 q76 0 195 -56.5t170 -56.5q100 0 125 106z" glyph-name="uniE095" horiz-adv-x="1255" unicode=""/><glyph d="M1528 717q0 -139 -94.5 -230.5t-243.5 -91.5q-111 0 -194 48.5t-191 166.5q-106 -119 -186 -167t-189 -48q-152 0 -245 91.5t-93 232.5t94.5 231t243.5 90q111 0 191.5 -49t189.5 -170q109 121 189.5 170t189.5 49q152 0 245 -91t93 -232zM1356 721q0 82 -47 128t-133 46 q-72 0 -128.5 -37t-144.5 -137q94 -102 147.5 -138t125.5 -36q86 0 133 46t47 128zM442 541q72 0 129.5 35.5t145.5 136.5q-94 104 -148.5 140t-126.5 36q-86 0 -132 -47t-46 -127q0 -82 46 -128t132 -46z" glyph-name="uniE096" horiz-adv-x="1619" unicode=""/><glyph d="M211 631v170l823 403v-211l-596 -276l596 -279v-211z" glyph-name="uniE097" horiz-adv-x="1255" unicode=""/><glyph d="M1044 801v-170l-823 -404v211l596 279l-596 276v211z" glyph-name="uniE098" horiz-adv-x="1255" unicode=""/><glyph d="M516 1096l-223 -379l223 -377h-207l-225 377l225 379h207z" glyph-name="uniE099" horiz-adv-x="606" unicode=""/><glyph d="M90 340l223 377l-223 379h207l223 -379l-223 -377h-207z" glyph-name="uniE09A" horiz-adv-x="606" unicode=""/><glyph d="M516 1096l-223 -379l223 -377h-207l-225 377l225 379h207zM936 1096l-223 -379l223 -377h-207l-225 377l225 379h207z" glyph-name="uniE09B" horiz-adv-x="1026" unicode=""/><glyph d="M90 340l223 377l-223 379h207l223 -379l-223 -377h-207zM510 340l223 377l-223 379h207l223 -379l-223 -377h-207z" glyph-name="uniE09C" horiz-adv-x="1026" unicode=""/><glyph d="M451 1769v-2105h-205v2105h205z" glyph-name="uniE09D" horiz-adv-x="694" unicode=""/><glyph d="M451 1769v-880h-205v880h205zM451 545v-881h-205v881h205z" glyph-name="uniE09E" horiz-adv-x="694" unicode=""/><glyph d="M774 846l129 -19q-16 -104 -70.5 -170.5t-144.5 -66.5q-66 0 -180 49q-109 47 -146 47q-86 0 -110 -98l-129 18q16 104 70.5 171t144.5 67q66 0 180 -49q109 -47 146 -47q85 0 110 98z" glyph-name="uniE09F" horiz-adv-x="1026" unicode=""/><glyph d="M324 557q-88 57 -88 164q0 57 30 102q55 84 160 84q59 0 109 -30q88 -59 88 -164q0 -57 -31 -103q-57 -86 -160 -86q-61 0 -108 33z" glyph-name="uniE0A0" horiz-adv-x="858" unicode=""/><glyph d="M119 716.5q0 59.5 40 99.5t101.5 40t101 -40t39.5 -99.5t-39.5 -100.5t-101 -41t-101.5 41t-40 100.5z" glyph-name="uniE0A1" horiz-adv-x="520" unicode=""/><glyph d="M92 629v176h633v-176h-633z" glyph-name="uniE0A2" horiz-adv-x="813" unicode=""/><glyph d="M57 631v172h861v-172h-861z" glyph-name="uniE0A3" horiz-adv-x="972" unicode=""/><glyph d="M31 631v172h1136v-172h-1136z" glyph-name="uniE0A4" horiz-adv-x="1198" unicode=""/><glyph d="M113 399q0 82 35.5 154t96 123t120 86t127.5 61l16 174h162l20 -262q-72 -27 -127 -53.5t-112.5 -65t-89 -90t-31.5 -112.5q0 -113 75.5 -178.5t219.5 -65.5q299 0 319 272h211q-12 -207 -144 -336t-390 -129q-238 0 -373 119t-135 303zM449 1304.5q0 59.5 39.5 100.5 t103.5 41q61 0 101 -41t40 -100.5t-40 -100.5t-101 -41q-63 0 -103 41t-40 100.5z" glyph-name="uniE0A5" horiz-adv-x="1226" unicode=""/><glyph d="M223 997h146q41 -416 41 -847v-150h-230v150q0 411 43 847zM154 1304.5q0 59.5 39.5 100.5t101 41t101.5 -41t40 -100.5t-40 -100.5t-101.5 -41t-101 41t-39.5 100.5z" glyph-name="uniE0A6" horiz-adv-x="591" unicode=""/><glyph d="M860 1456q311 0 528.5 -215t217.5 -524t-217.5 -524.5t-528.5 -215.5t-528 215.5t-217 524.5t217 524t528 215zM860 135q244 0 411 168t167 414t-167 413.5t-411 167.5t-409.5 -167.5t-165.5 -413.5t165.5 -414t409.5 -168zM739 592v-254h-161v760h350q135 0 213 -71 t78 -183q0 -188 -185 -240l180 -266h-176l-170 254h-129zM739 731h172q143 0 144 113q0 115 -144 114h-172v-227z" glyph-name="uniE0A7" horiz-adv-x="1720" unicode=""/><glyph d="M72 717l475 477l69 -37l-120 -352l804 6v-186l-806 4l122 -353l-69 -34z" glyph-name="uniE0A8" horiz-adv-x="1382" unicode=""/><glyph d="M723 1389l477 -476l-35 -69l-354 123l6 -748h-186l6 748l-354 -123l-35 69z" glyph-name="uniE0A9" horiz-adv-x="1447" unicode=""/><glyph d="M836 1194l475 -477l-475 -475l-70 34l121 353l-805 -4v186l805 -6l-121 352z" glyph-name="uniE0AA" horiz-adv-x="1382" unicode=""/><glyph d="M725 0l-477 475l35 70l352 -123l-4 747h186l-6 -749l354 125l35 -70z" glyph-name="uniE0AB" horiz-adv-x="1447" unicode=""/><glyph d="M72 702l475 476l69 -35l-120 -352h757l-120 352l69 35l477 -476l-477 -477l-69 37l120 352h-757l120 -352l-69 -37z" glyph-name="uniE0AC" horiz-adv-x="1748" unicode=""/><glyph d="M723 -55l-475 477l35 70l352 -123l-2 682l-350 -121l-35 69l475 478l477 -478l-35 -69l-352 121v-682l352 123l35 -70z" glyph-name="uniE0AD" horiz-adv-x="1447" unicode=""/><glyph d="M242 1159h673l25 -76l-336 -161l576 -568l-133 -131l-568 574l-162 -334l-75 22v674z" glyph-name="uniE0AE" horiz-adv-x="1382" unicode=""/><glyph d="M489 1159h674v-674l-76 -22l-163 334l-566 -574l-133 131l576 568l-336 161z" glyph-name="uniE0AF" horiz-adv-x="1382" unicode=""/><glyph d="M1163 233h-674l-24 76l336 162l-576 567l133 131l566 -575l163 336l76 -23v-674z" glyph-name="uniE0B0" horiz-adv-x="1382" unicode=""/><glyph d="M915 233h-673v674l75 23l162 -336l568 575l133 -131l-576 -567l336 -162z" glyph-name="uniE0B1" horiz-adv-x="1382" unicode=""/><glyph d="M950 424h-764l383 651z" glyph-name="uniE0B2" horiz-adv-x="1136" unicode=""/><glyph d="M276 371v747l685 -373z" glyph-name="uniE0B3" horiz-adv-x="1136" unicode=""/><glyph d="M186 1069h764l-381 -649z" glyph-name="uniE0B4" horiz-adv-x="1136" unicode=""/><glyph d="M860 1118v-747l-684 372z" glyph-name="uniE0B5" horiz-adv-x="1136" unicode=""/><glyph d="M870 414h-704l704 704v-704z" glyph-name="uniE0B6" horiz-adv-x="1136" unicode=""/><glyph d="M971 414h-705v704z" glyph-name="uniE0B7" horiz-adv-x="1136" unicode=""/><glyph d="M266 1118h705l-705 -704v704z" glyph-name="uniE0B8" horiz-adv-x="1136" unicode=""/><glyph d="M166 1118h704v-704z" glyph-name="uniE0B9" horiz-adv-x="1136" unicode=""/><glyph d="M637 -88l-88 -361h-162l45 361h205z" glyph-name="uniF6C3" unicode=""/><glyph d="M346 383h-160q-23 254 -22 516v156h205v-156q0 -219 -23 -516zM125 129q0 59 40 100t101.5 41t101.5 -41t40 -100t-40 -100t-101.5 -41t-101.5 41t-40 100z" glyph-name="uniF720" horiz-adv-x="532" unicode=""/><glyph d="M172 657v154h184l50 244h178l-49 -244h266l49 244h178l-49 -244h158v-154h-187l-51 -260h156v-153h-187l-47 -244h-176l47 244h-270l-47 -244h-178l47 244h-154v153h184l52 260h-154zM504 657l-51 -260h268l51 260h-268z" glyph-name="uniF721" horiz-adv-x="1226" unicode=""/><glyph d="M485 -205v189q-170 14 -270 94t-115 215h197q14 -117 188 -137v301h-2q-174 25 -268 103.5t-94 205.5q0 133 97 214t267 93v187h158v-191q150 -20 236 -99t96 -190h-193q-18 92 -139 117v-289l41 -6q328 -43 328 -301q0 -137 -100.5 -219t-268.5 -98v-189h-158zM809 291 q0 111 -166 141v-276q166 22 166 135zM324 772q0 -102 161 -139v268q-161 -16 -161 -129z" glyph-name="uniF722" horiz-adv-x="1112" unicode=""/><glyph d="M584 0h-185l693 1055h186zM395 1065q131 0 218 -84t87 -211q0 -125 -87 -210t-218 -85t-217 85t-86 210q0 127 86 211t217 84zM395.5 621q65.5 0 107.5 42t42 107.5t-42 108.5t-107.5 43t-107.5 -43t-42 -108.5t42 -107.5t107.5 -42zM1274 580q131 0 218 -85t87 -210 t-87 -210t-218 -85q-129 0 -216 85t-87 210t87 210t216 85zM1274 133q68 0 108.5 43t40.5 108.5t-41 108.5t-108 43q-66 0 -107 -43t-41 -108.5t41 -108.5t107 -43z" glyph-name="uniF723" horiz-adv-x="1671" unicode=""/><glyph d="M995 555l129 -109q-111 -137 -198 -225l207 -221h-213l-113 117q-176 -137 -356 -137q-152 0 -251.5 77.5t-99.5 216.5q0 61 16.5 108.5t55.5 86.5t67.5 60.5t86.5 58.5l22 14q-57 59 -87 111.5t-30 120.5q0 113 75 175t202 62q121 0 195.5 -59.5t74.5 -167.5 q0 -88 -41 -143.5t-125 -110.5l-20 -15l219 -231q67 70 184 211zM461 154q117 0 231 84l-233 247l-17 -10q-4 -2 -24.5 -16.5t-23.5 -16.5t-20.5 -14t-20.5 -16t-16 -16.5t-16.5 -18.5t-11.5 -18.5t-10 -21.5t-4 -22.5t-2 -27.5q0 -61 46 -97t122 -36zM412 829 q0 -59 71 -137l19 13q6 4 23.5 16t22.5 15t17.5 13.5t16.5 15.5t12 14t10 17.5t4 19.5t2 24q0 39 -25.5 60.5t-70.5 21.5q-102 -1 -102 -93z" glyph-name="uniF724" horiz-adv-x="1163" unicode=""/><glyph d="M125 528q0 266 149.5 468t397.5 251v-174q-158 -39 -249 -186.5t-91 -358.5t91 -359.5t249 -186.5v-175q-250 49 -398.5 251t-148.5 470z" glyph-name="uniF725" horiz-adv-x="759" unicode=""/><glyph d="M635 528q0 -268 -149.5 -469.5t-399.5 -251.5v175q160 39 251 187t91 359t-91 358.5t-251 186.5v174q250 -49 399.5 -251t149.5 -468z" glyph-name="uniF726" horiz-adv-x="759" unicode=""/><glyph d="M457 1055l-19 -191l187 80l45 -141l-203 -41l141 -133l-112 -97l-115 162l-115 -162l-114 97l143 133l-203 41l45 141l187 -80l-21 191h154z" glyph-name="uniF727" horiz-adv-x="761" unicode=""/><glyph d="M887 1198l-678 -1341h-197l680 1341h195z" glyph-name="uniF728" horiz-adv-x="901" unicode=""/><glyph d="M557 1075q209 0 344 -149.5t135 -397.5q0 -250 -135 -399t-344 -149t-344 149.5t-135 398.5q0 248 135 397.5t344 149.5zM557 164q123 0 198.5 95t75.5 269q0 172 -75.5 267.5t-198.5 95.5t-198.5 -95.5t-75.5 -267.5q0 -174 75.5 -269t198.5 -95z" glyph-name="uniF729" horiz-adv-x="1114" unicode=""/><glyph d="M561 0v854l-289 -98l-57 151l385 152h162v-1059h-201z" glyph-name="uniF72A" horiz-adv-x="1114" unicode=""/><glyph d="M553 889q-221 0 -227 -193h-201q8 166 116.5 272.5t315.5 106.5q197 0 303.5 -95t106.5 -245q0 -117 -58.5 -198.5t-187.5 -178.5l-240 -174h506v-184h-848v150l422 313q106 82 154.5 139t48.5 127q0 74 -56.5 117t-154.5 43z" glyph-name="uniF72B" horiz-adv-x="1114" unicode=""/><glyph d="M541 893q-106 0 -160.5 -44t-58.5 -124h-199q10 158 117.5 254t306.5 96q172 0 288.5 -78.5t116.5 -224.5q0 -84 -37.5 -141.5t-97.5 -75.5q74 -16 123 -77.5t49 -153.5q0 -162 -120.5 -253t-307.5 -91q-217 0 -329.5 93t-122.5 257h200q12 -168 248 -168q106 0 166.5 42 t60.5 124q0 131 -194 131h-119v164h102q176 0 177 127q0 72 -57.5 107.5t-151.5 35.5z" glyph-name="uniF72C" horiz-adv-x="1114" unicode=""/><glyph d="M877 1057v-639h174v-182h-174v-236h-201v236h-588v165l610 656h179zM315 418h361v389z" glyph-name="uniF72D" horiz-adv-x="1114" unicode=""/><glyph d="M573 164q100 0 160 47t60 133q0 180 -232 180q-137 0 -221 -53l-168 49l25 535h731v-183h-553l-10 -237q76 49 229 49q193 0 298 -92t105 -250q0 -168 -119.5 -265t-302.5 -97q-205 0 -315 93t-119 246h203q10 -155 229 -155z" glyph-name="uniF72E" horiz-adv-x="1114" unicode=""/><glyph d="M631 698q166 0 273.5 -96t107.5 -252q0 -162 -119 -266t-303 -104q-201 0 -327 130t-126 386q0 250 115 414.5t354 164.5q156 0 256.5 -81t118.5 -199h-190q-10 49 -57.5 76.5t-123.5 27.5q-240 0 -266 -301q107 100 287 100zM586 156q109 0 169 54t60 140 q0 92 -60.5 141.5t-168.5 49.5q-100 0 -166 -51.5t-66 -137.5q0 -88 66 -142t166 -54z" glyph-name="uniF72F" horiz-adv-x="1114" unicode=""/><glyph d="M965 905l-480 -905h-225l465 872h-573v183h813v-150z" glyph-name="uniF730" horiz-adv-x="1114" unicode=""/><glyph d="M557.5 1075q192.5 0 304 -83t111.5 -216q0 -84 -46 -149.5t-130 -89.5q90 -18 148.5 -86t58.5 -156q0 -150 -121 -232.5t-326 -82.5t-325.5 82.5t-120.5 232.5q0 88 58 155.5t148 86.5q-84 25 -130 90t-46 149q0 133 112 216t304.5 83zM557 156q111 0 176.5 38.5 t65.5 108.5q0 68 -64.5 108t-177.5 40t-177.5 -40t-64.5 -108q0 -70 65.5 -108.5t176.5 -38.5zM557 612q98 0 155.5 40t57.5 100q0 72 -58.5 109.5t-154.5 37.5t-154.5 -38t-58.5 -109q0 -59 57.5 -99.5t155.5 -40.5z" glyph-name="uniF731" horiz-adv-x="1114" unicode=""/><glyph d="M483 356q-166 0 -273.5 97.5t-107.5 253.5q0 162 119 265t303 103q201 0 327 -130t126 -386q0 -250 -114.5 -414.5t-354.5 -164.5q-156 0 -256 80.5t-119 201.5h191q10 -49 57 -77.5t123 -28.5q236 0 266 301q-111 -101 -287 -101zM528 899q-109 0 -169 -53t-60 -139 q0 -92 60.5 -141.5t168.5 -49.5q100 0 166 50t66 136q0 88 -66 142.5t-166 54.5z" glyph-name="uniF732" horiz-adv-x="1114" unicode=""/><glyph d="M915 780q0 -203 -294 -311l-11 -86h-161l-9 160q55 18 93 33.5t83.5 41t69 59.5t23.5 75q0 150 -213 149q-219 0 -230 -182h-188q4 162 107.5 259t320.5 97q197 0 303 -81t106 -214zM383 129q0 59 40 100t103 41q61 0 101.5 -41t40.5 -100t-40 -100t-102 -41 q-63 0 -103 41t-40 100z" glyph-name="uniF733" horiz-adv-x="1019" unicode=""/><glyph d="M444 528.5q0 118.5 79 199.5t198 81q96 0 176 -66v56h133v-330q0 -115 76 -115q113 0 113 199t-129 311.5t-345 112.5q-213 0 -347 -126t-134 -326.5t132 -323.5t349 -123q168 0 283 43v-117q-100 -43 -287 -43q-272 0 -442 156.5t-170 406.5q0 246 172 409t444.5 163 t440.5 -148.5t168 -390.5q0 -145 -66.5 -234.5t-183.5 -89.5q-137 0 -184 109q-80 -96 -199 -96t-198 82t-79 200.5zM586 528.5q0 -69.5 44 -114.5t111 -45q66 0 111 46t45 113q0 66 -45 112t-111 46q-68 0 -111.5 -44t-43.5 -113.5z" glyph-name="uniF734" horiz-adv-x="1484" unicode=""/><glyph d="M176 1247h449v-170h-250v-1097h250v-173h-449v1440z" glyph-name="uniF735" horiz-adv-x="712" unicode=""/><glyph d="M692 -143l-680 1341h197l678 -1341h-195z" glyph-name="uniF736" horiz-adv-x="901" unicode=""/><glyph d="M86 1247h451v-1440h-451v173h252v1097h-252v170z" glyph-name="uniF737" horiz-adv-x="712" unicode=""/><glyph d="M100 449v157q100 6 144.5 52.5t36.5 142.5l-9 121q-10 168 65 246.5t261 78.5h111v-170h-99q-88 0 -117.5 -36.5t-23.5 -122.5l8 -115q18 -233 -145 -275q164 -43 145 -276l-8 -113q-6 -86 23.5 -122.5t117.5 -36.5h99v-173h-111q-186 0 -261 80t-65 248l9 119 q8 96 -36.5 142.5t-144.5 52.5z" glyph-name="uniF738" horiz-adv-x="794" unicode=""/><glyph d="M694 606v-157q-100 -6 -144 -52.5t-36 -142.5l8 -119q10 -168 -64.5 -248t-260.5 -80h-111v173h98q88 0 118 36.5t24 122.5l-9 113q-18 233 146 276q-164 41 -146 275l9 115q6 86 -24 122.5t-118 36.5h-98v170h111q186 0 260.5 -78.5t64.5 -246.5l-8 -121 q-8 -96 36 -142.5t144 -52.5z" glyph-name="uniF739" horiz-adv-x="794" unicode=""/><glyph d="M295 997l119 -120q117 80 252 79q137 0 249 -79l121 120l101 -100l-121 -121q80 -109 80 -248q0 -141 -80 -249l121 -119l-101 -101l-121 119q-111 -78 -250 -78t-251 78l-119 -119l-100 101l118 119q-78 111 -77 249q0 137 77 248l-118 121zM666 219q125 0 208.5 88 t83.5 221.5t-83.5 221.5t-208.5 88t-209 -88t-84 -221.5t84 -221.5t209 -88z" glyph-name="uniF73A" horiz-adv-x="1331" unicode=""/><glyph d="M508 -205v189q-178 23 -296 154.5t-118 312t117 310.5t297 154v191h158v-193q158 -25 254 -121t108 -219h-201q-25 121 -161 156v-559q137 37 161 160h201q-12 -125 -108.5 -222.5t-253.5 -119.5v-193h-158zM295 450.5q0 -108.5 57.5 -183t155.5 -97.5v561 q-98 -23 -155.5 -97.5t-57.5 -183z" glyph-name="uniF73B" horiz-adv-x="1112" unicode=""/><glyph d="M100 584h127v63q0 188 104.5 308t309.5 120q186 0 288.5 -101.5t108.5 -252.5h-196q-4 76 -53.5 122t-147.5 46q-213 0 -213 -258v-47h334v-166h-334v-234h612v-184h-940v184h127v234h-127v166z" glyph-name="uniF73C" horiz-adv-x="1112" unicode=""/><glyph d="M158 340h297v51l-33 49h-264v146h170l-303 469h227l307 -482l307 482h221l-305 -469h172v-146h-266l-31 -49v-51h297v-143h-297v-197h-202v197h-297v143z" glyph-name="uniF73D" horiz-adv-x="1112" unicode=""/><glyph d="M152 528q0 29 2 43h-109v144h137q57 162 201.5 261t335.5 99q197 0 346 -100l-84 -150q-106 66 -254 66q-109 0 -191.5 -47t-127.5 -129h462v-144h-505q-2 -14 -3 -43q0 -31 3 -45h378v-143h-335q96 -174 319 -174q152 0 254 63l84 -149q-156 -100 -346.5 -100t-333.5 99 t-201 261h-139v143h109q-2 14 -2 45z" glyph-name="uniF73E" horiz-adv-x="1112" unicode=""/><glyph d="M317 545h156l29 213q23 162 98.5 236.5t224.5 74.5q100 0 154 -16l-18 -160q-49 6 -111 6q-78 0 -110.5 -36t-45.5 -128l-24 -190h235l-20 -176h-238l-55 -426q-35 -276 -285 -277q-66 0 -117 10l21 164q45 -4 63 -4q61 0 88 34t37 105l52 394h-156z" glyph-name="uniF73F" horiz-adv-x="1112" unicode=""/><glyph d="M543 -113q94 0 146 31t52 84q0 45 -36.5 70.5t-118.5 44.5l-137 33q-285 70 -285 251q0 145 147 217q-82 70 -82 191q0 125 94.5 195.5t272.5 70.5q322 0 350 -248h-172q-10 51 -49 76t-129 25q-186 0 -186 -115q0 -51 36.5 -81t118.5 -48l140 -33q133 -31 192 -84 t59 -155q0 -139 -143 -213q109 -61 109 -187q0 -131 -103.5 -201.5t-277.5 -70.5q-176 0 -278.5 69.5t-112.5 190.5h178q12 -113 215 -113zM346 420q0 -55 40 -81t134 -48l113 -27q68 18 104.5 54t36.5 81t-28.5 69t-110.5 42l-141 33q-8 0 -21 4q-127 -31 -127 -127z" glyph-name="uniF740" horiz-adv-x="1112" unicode=""/><glyph d="M680 1075q238 0 400.5 -160.5t162.5 -386.5q0 -227 -161.5 -387.5t-401.5 -160.5q-238 0 -399.5 160.5t-161.5 387.5q0 225 161.5 386t399.5 161zM680 96q190 0 315 123t125 309q0 184 -125 307t-315 123q-188 0 -313 -122.5t-125 -307.5q0 -186 125 -309t313 -123z M596 420v-172h-145v561h272q119 0 179.5 -51t60.5 -144q0 -143 -134 -182l127 -184h-153l-117 172h-90zM594 543h117q57 0 80.5 15t23.5 56q0 39 -23.5 54.5t-80.5 15.5h-117v-141z" glyph-name="uniF741" horiz-adv-x="1361" unicode=""/><glyph d="M680 1075q238 0 400.5 -160.5t162.5 -386.5q0 -227 -161.5 -387.5t-401.5 -160.5q-238 0 -399.5 160.5t-161.5 387.5q0 225 161.5 386t399.5 161zM680 96q190 0 315 123t125 309q0 184 -125 307t-315 123q-188 0 -313 -122.5t-125 -307.5q0 -186 125 -309t313 -123z M391 528q0 125 87 209t214 84q123 0 200 -66.5t85 -162.5h-148q-6 37 -40.5 63.5t-94.5 26.5q-68 0 -109.5 -42t-41.5 -111.5t42 -112.5t109 -43q59 0 94 27.5t41 64.5h148q-8 -96 -85 -164t-200 -68q-127 0 -214 85t-87 210z" glyph-name="uniF742" horiz-adv-x="1361" unicode=""/><glyph d="M502 1057l334 -729h-164l-74 161h-336l-72 -161h-161l333 729h140zM428 862l-106 -239h215z" glyph-name="uniF743" horiz-adv-x="862" unicode=""/><glyph d="M477 461q96 0 159.5 64.5t63.5 167t-63.5 167t-159.5 64.5t-160.5 -64.5t-64.5 -167t64.5 -167t160.5 -64.5zM477 313q-166 0 -277.5 107.5t-111.5 271.5t111.5 271.5t277.5 107.5t276.5 -107.5t110.5 -271.5t-110.5 -271.5t-276.5 -107.5z" glyph-name="uniF744" horiz-adv-x="954" unicode=""/><glyph d="M684 1075q258 0 415.5 -142t157.5 -355q0 -258 -233 -416h203v-162h-457v133q281 174 281 406q0 166 -99.5 260t-267.5 94t-267.5 -94t-99.5 -260q0 -229 279 -406v-133h-455v162h201q-233 160 -233 416q0 213 158.5 355t416.5 142z" glyph-name="uniF745" horiz-adv-x="1368" unicode=""/><glyph d="M104 274q0 201 295 312l11 86h161l9 -160q-78 -27 -126 -47.5t-95.5 -64.5t-47.5 -97q0 -150 213 -149q223 0 230 182h190q-4 -164 -108.5 -260t-321.5 -96q-197 0 -303.5 80.5t-106.5 213.5zM637 923.5q0 -59.5 -40 -99.5t-101.5 -40t-101.5 40t-40 99.5t40 100.5 t101.5 41t101.5 -41t40 -100.5z" glyph-name="uniF746" horiz-adv-x="1019" unicode=""/><glyph d="M186 672h160q23 -293 23 -516v-156h-205v156q-1 264 22 516zM408 925.5q0 -59.5 -40 -100.5t-101.5 -41t-101.5 41t-40 100.5t40 100.5t101.5 41t101.5 -41t40 -100.5z" glyph-name="uniF747" horiz-adv-x="532" unicode=""/><glyph d="M893 750v-170h-305v-785h-193v785h-303v170h303v305h193v-305h305z" glyph-name="uniF748" horiz-adv-x="985" unicode=""/><glyph d="M893 244v-172h-305v-277h-193v277h-303v172h303v362h-303v172h303v277h193v-277h305v-172h-305v-362h305z" glyph-name="uniF749" horiz-adv-x="985" unicode=""/><glyph d="M385 1069l-74 -467h-225l131 467h168z" glyph-name="uniF74A" horiz-adv-x="475" unicode=""/><glyph d="M88 602l76 467h225l-131 -467h-170z" glyph-name="uniF74B" horiz-adv-x="475" unicode=""/><glyph d="M88 -250l76 467h225l-131 -467h-170z" glyph-name="uniF74C" horiz-adv-x="475" unicode=""/><glyph d="M385 1069l-74 -467h-225l131 467h168zM770 1069l-74 -467h-225l131 467h168z" glyph-name="uniF74D" horiz-adv-x="860" unicode=""/><glyph d="M88 602l76 467h225l-131 -467h-170zM473 602l76 467h225l-131 -467h-170z" glyph-name="uniF74E" horiz-adv-x="860" unicode=""/><glyph d="M88 -250l76 467h225l-131 -467h-170zM473 -250l76 467h225l-131 -467h-170z" glyph-name="uniF74F" horiz-adv-x="860" unicode=""/><glyph d="M584 0h-185l693 1055h186zM395 1065q131 0 218 -84t87 -211q0 -125 -87 -210t-218 -85t-217 85t-86 210q0 127 86 211t217 84zM395.5 621q65.5 0 107.5 42t42 107.5t-42 108.5t-107.5 43t-107.5 -43t-42 -108.5t42 -107.5t107.5 -42zM1274 580q131 0 218 -85t87 -210 t-87 -210t-218 -85q-129 0 -216 85t-87 210t87 210t216 85zM1274 133q68 0 108.5 43t40.5 108.5t-41 108.5t-108 43q-66 0 -107 -43t-41 -108.5t41 -108.5t107 -43zM2003 580q131 0 218 -85t87 -210t-87 -210t-218 -85t-217 85t-86 210t86 210t217 85zM2002.5 133 q65.5 0 107.5 43t42 108.5t-42 108.5t-107.5 43t-107.5 -43t-42 -108.5t42 -108.5t107.5 -43z" glyph-name="uniF750" horiz-adv-x="2398" unicode=""/><glyph d="M324 369q-88 57 -88 163q0 57 30 103q55 84 160 84q59 0 109 -31q88 -59 88 -164q0 -55 -31 -102q-57 -86 -160 -86q-61 0 -108 33z" glyph-name="uniF751" horiz-adv-x="858" unicode=""/><glyph d="M119 526.5q0 59.5 40 100.5t101.5 41t101 -41t39.5 -100.5t-39.5 -100.5t-101 -41t-101.5 41t-40 100.5z" glyph-name="uniF752" horiz-adv-x="520" unicode=""/><glyph d="M90 440v176h633v-176h-633z" glyph-name="uniF753" horiz-adv-x="811" unicode=""/><glyph d="M57 442v172h861v-172h-861z" glyph-name="uniF754" horiz-adv-x="972" unicode=""/><glyph d="M31 442v172h1136v-172h-1136z" glyph-name="uniF755" horiz-adv-x="1198" unicode=""/><glyph d="M717 106h-178v336h-336v170h336v338h178v-338h336v-170h-336v-336z" glyph-name="uniF756" horiz-adv-x="1255" unicode=""/><glyph d="M1049 612v-170h-840v170h840z" glyph-name="uniF757" horiz-adv-x="1255" unicode=""/><glyph d="M250 782l123 123l254 -256l256 256l125 -123l-256 -256l256 -254l-125 -122l-256 253l-254 -253l-123 122l254 254z" glyph-name="uniF758" horiz-adv-x="1255" unicode=""/><glyph d="M1049 612v-170h-840v170h840zM487 886.5q0 59.5 40 99.5t102 40q59 0 99 -40t40 -99.5t-40 -99t-99 -39.5q-61 0 -101.5 39.5t-40.5 99zM487 168q0 59 40 100t102 41q59 0 99 -41t40 -100t-40 -99t-99 -40q-61 0 -101.5 40t-40.5 99z" glyph-name="uniF759" horiz-adv-x="1255" unicode=""/><glyph d="M1049 811v-170h-840v170h840zM1049 414v-170h-840v170h840z" glyph-name="uniF75A" horiz-adv-x="1255" unicode=""/><glyph d="M1012 1012l-121 -201h180v-170h-283l-135 -227h418v-170h-520l-160 -267l-147 78l112 189h-172v170h273l137 227h-410v170h512l168 281z" glyph-name="uniF75B" horiz-adv-x="1255" unicode=""/><glyph d="M934 467l139 -18q-39 -254 -242 -254q-74 0 -193.5 55t-170.5 55q-98 0 -125 -106l-139 18q39 254 241 254q76 0 195 -55.5t170 -55.5q100 1 125 107zM934 856l139 -16q-39 -256 -242 -256q-74 0 -193.5 56t-170.5 56q-96 0 -125 -106l-139 16q39 256 241 256 q76 0 195 -56t170 -56q100 0 125 106z" glyph-name="uniF75C" horiz-adv-x="1255" unicode=""/><glyph d="M211 442v170l823 404v-211l-596 -277l596 -278v-211z" glyph-name="uniF75D" horiz-adv-x="1255" unicode=""/><glyph d="M1044 612v-170l-823 -403v211l596 278l-596 277v211z" glyph-name="uniF75E" horiz-adv-x="1255" unicode=""/><glyph d="M516 905l-223 -379l223 -376h-207l-225 376l225 379h207z" glyph-name="uniF75F" horiz-adv-x="606" unicode=""/><glyph d="M90 150l223 376l-223 379h207l223 -379l-223 -376h-207z" glyph-name="uniF760" horiz-adv-x="606" unicode=""/><glyph d="M516 905l-223 -379l223 -376h-207l-225 376l225 379h207zM936 905l-223 -379l223 -376h-207l-225 376l225 379h207z" glyph-name="uniF761" horiz-adv-x="1026" unicode=""/><glyph d="M90 150l223 376l-223 379h207l223 -379l-223 -376h-207zM510 150l223 376l-223 379h207l223 -379l-223 -376h-207z" glyph-name="uniF762" horiz-adv-x="1026" unicode=""/><glyph d="M698 1057l494 -1057h-205l-113 248h-522l-112 -248h-203l493 1057h168zM612 821l-180 -395h361z" glyph-name="uniF763" horiz-adv-x="1230" unicode=""/><glyph d="M160 1055h491q182 0 287.5 -76t105.5 -209q0 -178 -151 -229q84 -14 136 -80t52 -160q0 -143 -109.5 -222t-305.5 -79h-506v1055zM360 446v-270h297q113 0 166.5 32t53.5 103.5t-54.5 103t-175.5 31.5h-287zM360 879v-263h267q109 0 162 29t53 107q0 68 -49.5 97.5 t-153.5 29.5h-279z" glyph-name="uniF764" horiz-adv-x="1173" unicode=""/><glyph d="M102 528.5q0 231.5 164 389t400 157.5q217 0 363.5 -120.5t168.5 -282.5h-207q-18 84 -106 147.5t-219 63.5q-154 0 -254.5 -100.5t-100.5 -254.5q0 -156 101.5 -255t255.5 -99q129 0 218 63.5t109 147.5h205q-20 -162 -168.5 -283.5t-363.5 -121.5q-238 0 -402 158.5 t-164 390z" glyph-name="uniF765" horiz-adv-x="1296" unicode=""/><glyph d="M950 530q0 150 -101 243t-280 93h-209v-678h209q180 0 280.5 94t100.5 248zM1159 530q0 -231 -164 -380.5t-424 -149.5h-411v1055h411q260 0 424 -149t164 -376z" glyph-name="uniF766" horiz-adv-x="1261" unicode=""/><glyph d="M995 0h-835v1055h829v-181h-629v-253h582v-183h-582v-258h635v-180z" glyph-name="uniF767" horiz-adv-x="1099" unicode=""/><glyph d="M360 0h-200v1055h817v-185h-617v-299h572v-186h-572v-385z" glyph-name="uniF768" horiz-adv-x="1075" unicode=""/><glyph d="M1190 713h-211q-25 74 -105.5 124t-199.5 50q-158 0 -260.5 -101.5t-102.5 -257.5q0 -158 103.5 -259t265.5 -101q133 0 220 66.5t101 181.5h-329v172h536q6 -51 6 -88q0 -236 -152.5 -378t-387.5 -142q-242 0 -407 158.5t-165 390t165 389t405 157.5q203 0 343 -106 t175 -256z" glyph-name="uniF769" horiz-adv-x="1314" unicode=""/><glyph d="M360 623h572v432h201v-1055h-201v436h-572v-436h-200v1055h200v-432z" glyph-name="uniF76A" horiz-adv-x="1292" unicode=""/><glyph d="M367 1055v-1055h-203v1055h203z" glyph-name="uniF76B" horiz-adv-x="530" unicode=""/><glyph d="M887 1055v-676q0 -197 -111.5 -298t-298.5 -101q-190 0 -291.5 96t-115.5 248h196q25 -150 203 -150q217 0 217 227v654h201z" glyph-name="uniF76C" horiz-adv-x="1038" unicode=""/><glyph d="M1147 1055l-471 -471l489 -584h-250l-374 449l-181 -183v-266h-200v1055h200v-523l521 523h266z" glyph-name="uniF76D" horiz-adv-x="1183" unicode=""/><glyph d="M961 0h-801v1055h200v-869h601v-186z" glyph-name="uniF76E" horiz-adv-x="1009" unicode=""/><glyph d="M160 1055h194l432 -627l439 627h190v-1055h-201v731l-358 -516h-137l-359 516v-731h-200v1055z" glyph-name="uniF76F" horiz-adv-x="1574" unicode=""/><glyph d="M975 0l-615 745v-745h-200v1055h184l614 -746v746h201v-1055h-184z" glyph-name="uniF770" horiz-adv-x="1318" unicode=""/><glyph d="M666 1075q238 0 400.5 -157.5t162.5 -389t-163 -390t-400 -158.5q-236 0 -400 158.5t-164 390t164 389t400 157.5zM665.5 170q153.5 0 254 101.5t100.5 257t-100.5 256t-254 100.5t-254 -100.5t-100.5 -256t100.5 -257t254 -101.5z" glyph-name="uniF771" horiz-adv-x="1331" unicode=""/><glyph d="M360 535h256q229 0 230 167q0 170 -230 170h-256v-337zM360 350v-350h-200v1055h479q195 0 303.5 -96.5t108.5 -256t-108.5 -256t-303.5 -96.5h-279z" glyph-name="uniF772" horiz-adv-x="1132" unicode=""/><glyph d="M666 0q-236 0 -400 157.5t-164 381t164 380t399.5 156.5t399.5 -155.5t164 -380.5q0 -207 -170 -359h194v-180h-587zM665.5 190q151.5 0 253 100.5t101.5 248t-101.5 247t-253 99.5t-253 -99.5t-101.5 -247t101.5 -248t253 -100.5z" glyph-name="uniF773" horiz-adv-x="1335" unicode=""/><glyph d="M360 354v-354h-200v1055h493q195 0 305.5 -95.5t110.5 -254.5q0 -129 -74.5 -218.5t-210.5 -119.5l295 -367h-225l-283 354h-211zM360 537h271q233 0 233 168q0 170 -233 169h-271v-337z" glyph-name="uniF774" horiz-adv-x="1161" unicode=""/><glyph d="M537 152q109 0 172 37.5t63 101.5q0 59 -43 95t-147 50l-125 19q-172 25 -263.5 104.5t-91.5 206.5q0 139 114 224t302 85q184 0 296 -84t124 -211h-193q-10 57 -67 91t-156 34q-102 0 -159.5 -33.5t-57.5 -99.5q0 -63 52.5 -98t170.5 -51l129 -19q317 -45 318 -303 q0 -147 -123 -234t-317 -87q-193 0 -316 83.5t-137 229.5h197q10 -70 78.5 -105.5t179.5 -35.5z" glyph-name="uniF775" horiz-adv-x="1058" unicode=""/><glyph d="M967 1055v-187h-361v-868h-200v868h-361v187h922z" glyph-name="uniF776" horiz-adv-x="1011" unicode=""/><glyph d="M639 174q281 0 281 285v596h202v-619q0 -221 -132 -338.5t-353 -117.5t-353 117.5t-132 338.5v619h204v-596q0 -285 283 -285z" glyph-name="uniF777" horiz-adv-x="1273" unicode=""/><glyph d="M518 -2l-481 1057h215l352 -795l352 795h213l-483 -1057h-168z" glyph-name="uniF778" horiz-adv-x="1206" unicode=""/><glyph d="M1016 1055l295 -770l288 770h207l-409 -1057h-172l-295 758l-293 -758h-174l-406 1057h211l289 -774l297 774h162z" glyph-name="uniF779" horiz-adv-x="1863" unicode=""/><glyph d="M1143 1055l-422 -520l430 -535h-246l-311 389l-311 -389h-240l430 530l-422 525h246l301 -379l305 379h240z" glyph-name="uniF77A" horiz-adv-x="1193" unicode=""/><glyph d="M246 1055l321 -477l320 477h221l-442 -654v-401h-203v401l-443 654h226z" glyph-name="uniF77B" horiz-adv-x="1128" unicode=""/><glyph d="M1020 182v-182h-911v152l614 720h-606v183h887v-152l-613 -721h629z" glyph-name="uniF77C" horiz-adv-x="1130" unicode=""/><glyph d="M887 1055v-676q0 -197 -111.5 -298t-298.5 -101q-190 0 -291.5 96t-115.5 248h196q25 -150 203 -150q217 0 217 227v654h201z" glyph-name="uniF77D" horiz-adv-x="1038" unicode=""/><glyph d="M219 1415l139 146l269 -295l-84 -92z" glyph-name="uniF77E" unicode=""/><glyph d="M666 1561l139 -146l-324 -241l-84 92z" glyph-name="uniF77F" unicode=""/><glyph d="M303 1176q-53 0 -88 34.5t-35 88t35 89t88 35.5q55 0 90 -35.5t35 -89t-35 -88t-90 -34.5zM721 1176q-55 0 -90 34.5t-35 88t35 89t90 35.5q53 0 88 -35.5t35 -89t-35 -88t-88 -34.5z" glyph-name="uniF780" unicode=""/><glyph d="M616 1479l248 -299h-190l-162 159l-162 -159h-190l248 299h208z" glyph-name="uniF781" unicode=""/><glyph d="M639 1333q61 0 88 80l129 -20q-20 -96 -71.5 -156.5t-133.5 -60.5q-53 0 -141 42t-125 42q-61 0 -88 -80l-129 22q20 96 71.5 156.5t133.5 60.5q53 0 141 -43t125 -43z" glyph-name="uniF782" unicode=""/><glyph d="M838 1341v-159h-652v159h652z" glyph-name="uniF783" unicode=""/><glyph d="M512 1329q76 0 122 38t50 97h168q-10 -117 -95 -203.5t-245 -86.5t-245 87t-95 203h168q4 -59 50 -97t122 -38z" glyph-name="uniF784" unicode=""/><glyph d="M512 1174q-55 0 -91 35.5t-36 90.5q0 53 36 89t91 36t91 -35.5t36 -89.5q0 -55 -36 -90.5t-91 -35.5z" glyph-name="uniF785" unicode=""/><glyph d="M512 1595q94 0 156.5 -61t62.5 -151.5t-62.5 -152t-156.5 -61.5t-156.5 61.5t-62.5 152t62.5 151.5t156.5 61zM512 1276q45 0 75.5 29.5t30.5 77t-30.5 77t-75.5 29.5t-74.5 -29.5t-29.5 -77t29.5 -77t74.5 -29.5z" glyph-name="uniF786" unicode=""/><glyph d="M549 -334h-205l131 338h172z" glyph-name="uniF787" unicode=""/><glyph d="M348 1571l168 -98l-217 -295l-109 63zM731 1571l166 -98l-217 -295l-109 63z" glyph-name="uniF788" unicode=""/><glyph d="M674 -215l51 -111q-86 -70 -207 -69q-98 0 -159.5 43t-61.5 123q0 174 311 292l51 -63q-184 -78 -184 -178q0 -66 88 -66q60 0 111 29z" glyph-name="uniF789" unicode=""/><glyph d="M864 1479l-248 -299h-208l-248 299h190l162 -160l162 160h190z" glyph-name="uniF78A" unicode=""/><glyph d="M641 -86l-92 -365h-164l47 365h209z" glyph-name="uniF78B" unicode=""/><glyph d="M834 1343v-159h-644v159h644z" glyph-name="uniF78C" unicode=""/><glyph d="M537 152q109 0 172 37.5t63 101.5q0 59 -43 95t-147 50l-125 19q-172 25 -263.5 104.5t-91.5 206.5q0 139 114 224t302 85q184 0 296 -84t124 -211h-193q-10 57 -67 91t-156 34q-102 0 -159.5 -33.5t-57.5 -99.5q0 -63 52.5 -98t170.5 -51l129 -19q317 -45 318 -303 q0 -147 -123 -234t-317 -87q-193 0 -316 83.5t-137 229.5h197q10 -70 78.5 -105.5t179.5 -35.5zM1579 152q109 0 172.5 37.5t63.5 101.5q0 59 -43 95t-148 50l-125 19q-172 25 -263 104.5t-91 206.5q0 139 113.5 224t302.5 85q184 0 295.5 -84t123.5 -211h-192 q-10 57 -67.5 91t-155.5 34q-102 0 -159.5 -33.5t-57.5 -99.5q0 -63 52 -98t171 -51l129 -19q317 -45 317 -303q0 -147 -122.5 -234t-317.5 -87q-193 0 -315.5 83.5t-137.5 229.5h197q22 -141 258 -141z" glyph-name="uniF78D" horiz-adv-x="2101" unicode=""/><glyph d="M698 1057l494 -1057h-205l-113 248h-522l-112 -248h-203l493 1057h168zM612 821l-180 -395h361zM797 1561l139 -146l-324 -241l-84 92z" glyph-name="uniF78E" horiz-adv-x="1230" unicode=""/><glyph d="M698 1057l494 -1057h-205l-113 248h-522l-112 -248h-203l493 1057h168zM612 821l-180 -395h361zM289 1415l139 146l268 -295l-84 -92z" glyph-name="uniF78F" horiz-adv-x="1230" unicode=""/><glyph d="M698 1057l494 -1057h-205l-113 248h-522l-112 -248h-203l493 1057h168zM717 1479l248 -299h-191l-162 159l-161 -159h-191l248 299h209zM612 821l-180 -395h361z" glyph-name="uniF790" horiz-adv-x="1230" unicode=""/><glyph d="M698 1057l494 -1057h-205l-113 248h-522l-112 -248h-203l493 1057h168zM612 821l-180 -395h361zM403 1176q-53 0 -87.5 34.5t-34.5 88t34.5 89t87.5 35.5q55 0 90 -35.5t35 -89t-35 -88t-90 -34.5zM821 1176q-55 0 -90 34.5t-35 88t35 89t90 35.5q53 0 88 -35.5t35 -89 t-35 -88t-88 -34.5z" glyph-name="uniF791" horiz-adv-x="1230" unicode=""/><glyph d="M698 1057l494 -1057h-205l-113 248h-522l-112 -248h-203l493 1057h168zM739 1333q61 0 88 80l129 -20q-20 -96 -71 -156.5t-133 -60.5q-53 0 -141.5 42t-125.5 42q-61 0 -88 -80l-129 22q20 96 71.5 156.5t133.5 60.5q55 0 143 -43t123 -43zM612 821l-180 -395h361z" glyph-name="uniF792" horiz-adv-x="1230" unicode=""/><glyph d="M698 1057l494 -1057h-205l-113 248h-522l-112 -248h-203l493 1057h168zM612.5 1593q94.5 0 156.5 -61.5t62 -151.5t-62 -151.5t-156.5 -61.5t-157 61.5t-62.5 151.5t62.5 151.5t157 61.5zM612 821l-180 -395h361zM612 1274q47 0 77 30.5t30 75.5t-30 76t-77 31 q-45 0 -74.5 -30t-29.5 -77t29.5 -76.5t74.5 -29.5z" glyph-name="uniF793" horiz-adv-x="1230" unicode=""/><glyph d="M698 1057l494 -1057h-205l-113 248h-522l-112 -248h-203l493 1057h168zM938 1341v-159h-651v159h651zM612 821l-180 -395h361z" glyph-name="uniF794" horiz-adv-x="1230" unicode=""/><glyph d="M698 1057l494 -1057h-205l-113 248h-522l-112 -248h-203l493 1057h168zM612.5 1327q75.5 0 121.5 38t50 97h168q-10 -117 -95 -204t-244.5 -87t-244.5 87.5t-96 203.5h168q4 -59 50.5 -97t122 -38zM612 821l-180 -395h361z" glyph-name="uniF795" horiz-adv-x="1230" unicode=""/><glyph d="M1206 -215l51 -111q-86 -70 -206 -69q-98 0 -160 43t-62 123q0 133 172 229h-14l-113 248h-522l-112 -248h-203l493 1057h168l494 -1057q-184 -78 -184 -178q0 -66 88 -66q59 0 110 29zM612 821l-180 -395h361z" glyph-name="uniF796" horiz-adv-x="1230" unicode=""/><glyph d="M698 1057l494 -1057h-205l-113 248h-522l-112 -248h-203l493 1057h168zM612.5 1583q94.5 0 156.5 -61.5t62 -151.5t-62 -151.5t-156.5 -61.5t-157 61.5t-62.5 151.5t62.5 151.5t157 61.5zM612 821l-180 -395h361zM797 2036l139 -146l-324 -241l-84 92zM612 1264 q47 0 77 29.5t30 76.5t-30 77t-77 30q-45 0 -74.5 -30t-29.5 -77t29.5 -76.5t74.5 -29.5z" glyph-name="uniF797" horiz-adv-x="1230" unicode=""/><glyph d="M1737 0h-836v221h-481l-170 -221h-238l824 1055h895v-181h-629v-253h584v-183h-584v-258h635v-180zM557 397h344v443z" glyph-name="uniF798" horiz-adv-x="1841" unicode=""/><glyph d="M1737 0h-836v221h-481l-170 -221h-238l824 1055h895v-181h-629v-253h584v-183h-584v-258h635v-180zM557 397h344v443zM1145 1561l139 -146l-323 -241l-84 92z" glyph-name="uniF799" horiz-adv-x="1841" unicode=""/><glyph d="M668 -338h-205l125 324q-209 27 -347.5 179t-138.5 363q0 231 164 389t400 158q217 0 363.5 -120.5t168.5 -282.5h-207q-18 84 -106 147.5t-219 63.5q-154 0 -254.5 -100.5t-100.5 -254.5q0 -156 101.5 -255t255.5 -99q129 0 218 63.5t109 147.5h205q-18 -143 -138 -258 t-300 -139z" glyph-name="uniF79A" horiz-adv-x="1296" unicode=""/><glyph d="M102 528.5q0 231.5 164 389t400 157.5q217 0 363.5 -120.5t168.5 -282.5h-207q-18 84 -106 147.5t-219 63.5q-154 0 -254.5 -100.5t-100.5 -254.5q0 -156 101.5 -255t255.5 -99q129 0 218 63.5t109 147.5h205q-20 -162 -168.5 -283.5t-363.5 -121.5q-238 0 -402 158.5 t-164 390zM854 1563l139 -146l-323 -241l-84 92z" glyph-name="uniF79B" horiz-adv-x="1296" unicode=""/><glyph d="M102 528.5q0 231.5 164 389t400 157.5q217 0 363.5 -120.5t168.5 -282.5h-207q-18 84 -106 147.5t-219 63.5q-154 0 -254.5 -100.5t-100.5 -254.5q0 -156 101.5 -255t255.5 -99q129 0 218 63.5t109 147.5h205q-20 -162 -168.5 -283.5t-363.5 -121.5q-238 0 -402 158.5 t-164 390zM774 1481l248 -299h-191l-161 159l-162 -159h-191l248 299h209z" glyph-name="uniF79C" horiz-adv-x="1296" unicode=""/><glyph d="M102 528.5q0 231.5 164 389t400 157.5q217 0 363.5 -120.5t168.5 -282.5h-207q-18 84 -106 147.5t-219 63.5q-154 0 -254.5 -100.5t-100.5 -254.5q0 -156 101.5 -255t255.5 -99q129 0 218 63.5t109 147.5h205q-20 -162 -168.5 -283.5t-363.5 -121.5q-238 0 -402 158.5 t-164 390zM669.5 1174q-55.5 0 -91 35.5t-35.5 90.5q0 53 35.5 89t91 36t91.5 -35.5t36 -89.5q0 -55 -36 -90.5t-91.5 -35.5z" glyph-name="uniF79D" horiz-adv-x="1296" unicode=""/><glyph d="M102 528.5q0 231.5 164 389t400 157.5q217 0 363.5 -120.5t168.5 -282.5h-207q-18 84 -106 147.5t-219 63.5q-154 0 -254.5 -100.5t-100.5 -254.5q0 -156 101.5 -255t255.5 -99q129 0 218 63.5t109 147.5h205q-20 -162 -168.5 -283.5t-363.5 -121.5q-238 0 -402 158.5 t-164 390zM1022 1481l-248 -299h-209l-248 299h191l162 -160l161 160h191z" glyph-name="uniF79E" horiz-adv-x="1296" unicode=""/><glyph d="M1163 530q0 -231 -163.5 -380.5t-424.5 -149.5h-411v446h-131v160h131v449h411q260 0 424 -149t164 -376zM676 606v-160h-311v-258h208q180 0 280.5 94.5t100.5 247.5q0 150 -101 243t-280 93h-208v-260h311z" glyph-name="uniF79F" horiz-adv-x="1267" unicode=""/><glyph d="M950 530q0 150 -101 243t-280 93h-209v-678h209q180 0 280.5 94t100.5 248zM1159 530q0 -231 -164 -380.5t-424 -149.5h-411v1055h411q260 0 424 -149t164 -376zM999 1481l-247 -299h-209l-248 299h190l162 -160l162 160h190z" glyph-name="uniF7A0" horiz-adv-x="1261" unicode=""/><glyph d="M1163 530q0 -231 -163.5 -380.5t-424.5 -149.5h-411v446h-131v160h131v449h411q260 0 424 -149t164 -376zM676 606v-160h-311v-258h208q180 0 280.5 94.5t100.5 247.5q0 150 -101 243t-280 93h-208v-260h311z" glyph-name="uniF7A1" horiz-adv-x="1267" unicode=""/><glyph d="M995 0h-835v1055h829v-181h-629v-253h582v-183h-582v-258h635v-180zM770 1561l139 -146l-323 -241l-84 92z" glyph-name="uniF7A2" horiz-adv-x="1099" unicode=""/><glyph d="M995 0h-835v1055h829v-181h-629v-253h582v-183h-582v-258h635v-180zM262 1415l139 146l269 -295l-84 -92z" glyph-name="uniF7A3" horiz-adv-x="1099" unicode=""/><glyph d="M995 0h-835v1055h829v-181h-629v-253h582v-183h-582v-258h635v-180zM690 1479l248 -299h-190l-162 159l-162 -159h-191l248 299h209z" glyph-name="uniF7A4" horiz-adv-x="1099" unicode=""/><glyph d="M995 0h-835v1055h829v-181h-629v-253h582v-183h-582v-258h635v-180zM377 1176q-53 0 -88 34.5t-35 88t35 89t88 35.5q55 0 90 -35.5t35 -89t-35 -88t-90 -34.5zM795 1176q-55 0 -90 34.5t-35 88t34.5 89t90.5 35.5q53 0 88 -35.5t35 -89t-35 -88t-88 -34.5z" glyph-name="uniF7A5" horiz-adv-x="1099" unicode=""/><glyph d="M995 0h-835v1055h829v-181h-629v-253h582v-183h-582v-258h635v-180zM911 1341v-159h-651v159h651z" glyph-name="uniF7A6" horiz-adv-x="1099" unicode=""/><glyph d="M995 0h-835v1055h829v-181h-629v-253h582v-183h-582v-258h635v-180zM586 1327q76 0 122 38t50 97h168q-10 -117 -95.5 -204t-245 -87t-244.5 87.5t-95 203.5h168q4 -59 50 -97t122 -38z" glyph-name="uniF7A7" horiz-adv-x="1099" unicode=""/><glyph d="M995 0h-835v1055h829v-181h-629v-253h582v-183h-582v-258h635v-180zM585.5 1171q-55.5 0 -91 36t-35.5 91q0 53 35.5 89t91 36t91.5 -35.5t36 -89.5q0 -55 -36 -91t-91.5 -36z" glyph-name="uniF7A8" horiz-adv-x="1099" unicode=""/><glyph d="M940 -215l51 -111q-86 -70 -207 -69q-98 0 -159.5 43t-61.5 123q0 133 172 229h-575v1055h829v-181h-629v-253h582v-183h-582v-258h635v-180h-69q-184 -78 -185 -178q0 -66 88 -66q60 0 111 29z" glyph-name="uniF7A9" horiz-adv-x="1099" unicode=""/><glyph d="M995 0h-835v1055h829v-181h-629v-253h582v-183h-582v-258h635v-180zM938 1479l-248 -299h-209l-248 299h191l162 -160l162 160h190z" glyph-name="uniF7AA" horiz-adv-x="1099" unicode=""/><glyph d="M1190 713h-211q-25 74 -105.5 124t-199.5 50q-158 0 -260.5 -101.5t-102.5 -257.5q0 -158 103.5 -259t265.5 -101q133 0 220 66.5t101 181.5h-329v172h536q6 -51 6 -88q0 -236 -152.5 -378t-387.5 -142q-242 0 -407 158.5t-165 390t165 389t405 157.5q203 0 343 -106 t175 -256zM776 1479l248 -299h-190l-162 159l-162 -159h-191l248 299h209z" glyph-name="uniF7AB" horiz-adv-x="1314" unicode=""/><glyph d="M1190 713h-211q-25 74 -105.5 124t-199.5 50q-158 0 -260.5 -101.5t-102.5 -257.5q0 -158 103.5 -259t265.5 -101q133 0 220 66.5t101 181.5h-329v172h536q6 -51 6 -88q0 -236 -152.5 -378t-387.5 -142q-242 0 -407 158.5t-165 390t165 389t405 157.5q203 0 343 -106 t175 -256zM672 1327q76 0 122 38t50 97h168q-10 -117 -95.5 -204t-245 -87t-244.5 87.5t-95 203.5h168q4 -59 50 -97t122 -38z" glyph-name="uniF7AC" horiz-adv-x="1314" unicode=""/><glyph d="M1190 713h-211q-25 74 -105.5 124t-199.5 50q-158 0 -260.5 -101.5t-102.5 -257.5q0 -158 103.5 -259t265.5 -101q133 0 220 66.5t101 181.5h-329v172h536q6 -51 6 -88q0 -236 -152.5 -378t-387.5 -142q-242 0 -407 158.5t-165 390t165 389t405 157.5q203 0 343 -106 t175 -256zM671.5 1171q-55.5 0 -91 36t-35.5 91q0 53 35.5 89t91 36t91.5 -35.5t36 -89.5q0 -55 -36 -91t-91.5 -36z" glyph-name="uniF7AD" horiz-adv-x="1314" unicode=""/><glyph d="M1190 713h-211q-25 74 -105.5 124t-199.5 50q-158 0 -260.5 -101.5t-102.5 -257.5q0 -158 103.5 -259t265.5 -101q133 0 220 66.5t101 181.5h-329v172h536q6 -51 6 -88q0 -236 -152.5 -378t-387.5 -142q-242 0 -407 158.5t-165 390t165 389t405 157.5q203 0 343 -106 t175 -256zM780 -86l-92 -365h-164l47 365h209z" glyph-name="uniF7AE" horiz-adv-x="1314" unicode=""/><glyph d="M360 623h572v432h201v-1055h-201v436h-572v-436h-200v1055h200v-432zM750 1479l247 -299h-190l-162 159l-162 -159h-190l248 299h209z" glyph-name="uniF7AF" horiz-adv-x="1292" unicode=""/><glyph d="M1255 915v-147h-118v-768h-201v436h-571v-436h-201v768h-119v147h119v140h201v-140h571v140h201v-140h118zM365 623h571v145h-571v-145z" glyph-name="uniF7B0" horiz-adv-x="1300" unicode=""/><glyph d="M367 1055v-1055h-203v1055h203zM449 1561l139 -146l-324 -241l-84 92z" glyph-name="uniF7B1" horiz-adv-x="530" unicode=""/><glyph d="M367 1055v-1055h-203v1055h203zM-57 1415l139 146l268 -295l-84 -92z" glyph-name="uniF7B2" horiz-adv-x="530" unicode=""/><glyph d="M367 1055v-1055h-203v1055h203zM371 1479l247 -299h-190l-162 159l-162 -159h-190l248 299h209z" glyph-name="uniF7B3" horiz-adv-x="530" unicode=""/><glyph d="M367 1055v-1055h-203v1055h203zM57 1176q-53 0 -88 34.5t-35 88t35 89t88 35.5q55 0 90 -35.5t35 -89t-35 -88t-90 -34.5zM475 1176q-55 0 -90 34.5t-35 88t35 89t90 35.5q53 0 88 -35.5t35 -89t-35 -88t-88 -34.5z" glyph-name="uniF7B4" horiz-adv-x="530" unicode=""/><glyph d="M367 1055v-1055h-203v1055h203zM393 1333q61 0 88 80l129 -20q-20 -96 -71.5 -156.5t-132.5 -60.5q-53 0 -141.5 42t-125.5 42q-61 0 -88 -80l-129 22q20 96 71.5 156.5t133.5 60.5q55 0 142 -43t124 -43z" glyph-name="uniF7B5" horiz-adv-x="530" unicode=""/><glyph d="M367 1055v-1055h-203v1055h203zM592 1341v-159h-651v159h651z" glyph-name="uniF7B6" horiz-adv-x="530" unicode=""/><glyph d="M367 1055v-1055h-203v1055h203zM266 1327q76 0 122 38t50 97h168q-10 -117 -95 -204t-245 -87t-244.5 87.5t-95.5 203.5h168q4 -59 50 -97t122 -38z" glyph-name="uniF7B7" horiz-adv-x="530" unicode=""/><glyph d="M381 -215l51 -111q-86 -70 -207 -69q-98 0 -159.5 43t-61.5 123q0 133 172 229h-12v1055h203v-1055q-184 -78 -185 -178q0 -66 88 -66q60 0 111 29z" glyph-name="uniF7B8" horiz-adv-x="530" unicode=""/><glyph d="M367 1055v-1055h-203v1055h203z" glyph-name="uniF7B9" horiz-adv-x="530" unicode=""/><glyph d="M367 1055v-1055h-203v1055h203zM1417 1055v-676q0 -197 -111.5 -298t-297.5 -101q-190 0 -292 96t-116 248h197q25 -150 202 -150q217 0 218 227v654h200z" glyph-name="uniF7BA" horiz-adv-x="1568" unicode=""/><glyph d="M887 1055v-676q0 -197 -111.5 -298t-298.5 -101q-190 0 -291.5 96t-115.5 248h196q25 -150 203 -150q217 0 217 227v654h201zM891 1479l248 -299h-191l-162 159l-161 -159h-191l248 299h209z" glyph-name="uniF7BB" horiz-adv-x="1038" unicode=""/><glyph d="M1147 1055l-471 -471l489 -584h-250l-374 449l-181 -183v-266h-200v1055h200v-523l521 523h266zM760 -86l-92 -365h-164l47 365h209z" glyph-name="uniF7BC" horiz-adv-x="1183" unicode=""/><glyph d="M1147 1055l-471 -471l489 -584h-250l-374 449l-181 -183v-266h-200v1055h200v-523l521 523h266z" glyph-name="uniF7BD" horiz-adv-x="1183" unicode=""/><glyph d="M961 0h-801v1055h200v-869h601v-186zM444 1561l140 -146l-324 -241l-84 92z" glyph-name="uniF7BE" horiz-adv-x="1009" unicode=""/><glyph d="M961 0h-801v1055h200v-869h601v-186zM696 -86l-92 -365h-164l47 365h209z" glyph-name="uniF7BF" horiz-adv-x="1009" unicode=""/><glyph d="M961 0h-801v1055h200v-869h601v-186zM516 604l76 467h225l-131 -467h-170z" glyph-name="uniF7C0" horiz-adv-x="1009" unicode=""/><glyph d="M961 0h-801v1055h200v-869h601v-186zM547 551q0 59 39 97t98 38t99 -39t40 -96q0 -59 -40 -98t-99 -39t-98 39t-39 98z" glyph-name="uniF7C1" horiz-adv-x="1009" unicode=""/><glyph d="M641 823l80 -137l-356 -207v-293h600v-186h-801v365l-86 -50l-82 138l168 96v506h201v-391z" glyph-name="uniF7C2" horiz-adv-x="1013" unicode=""/><glyph d="M975 0l-615 745v-745h-200v1055h184l614 -746v746h201v-1055h-184zM786 1333q61 0 88 80l130 -20q-20 -96 -71.5 -156.5t-133.5 -60.5q-53 0 -141.5 42t-125.5 42q-61 0 -88 -80l-129 22q20 96 71.5 156.5t133.5 60.5q53 0 141 -43t125 -43z" glyph-name="uniF7C3" horiz-adv-x="1318" unicode=""/><glyph d="M975 0l-615 745v-745h-200v1055h184l614 -746v746h201v-1055h-184zM844 1561l139 -146l-324 -241l-84 92z" glyph-name="uniF7C4" horiz-adv-x="1318" unicode=""/><glyph d="M975 0l-615 745v-745h-200v1055h184l614 -746v746h201v-1055h-184zM762 -86l-92 -365h-164l47 365h209z" glyph-name="uniF7C5" horiz-adv-x="1318" unicode=""/><glyph d="M975 0l-615 745v-745h-200v1055h184l614 -746v746h201v-1055h-184zM1012 1479l-248 -299h-209l-248 299h191l161 -160l162 160h191z" glyph-name="uniF7C6" horiz-adv-x="1318" unicode=""/><glyph d="M1231 0l-615 745v-745h-200v1055h184l614 -746v746h201v-1055h-184zM0 602l76 467h225l-131 -467h-170z" glyph-name="uniF7C7" horiz-adv-x="1574" unicode=""/><glyph d="M965 -94v104l-605 735v-745h-200v1055h184l614 -748v748h201v-1174q0 -336 -311 -336q-115 0 -182 23v170q49 -12 129 -12q92 0 131 43t39 137z" glyph-name="uniF7C8" horiz-adv-x="1318" unicode=""/><glyph d="M666 1075q238 0 400.5 -157.5t162.5 -389t-163 -390t-400 -158.5q-236 0 -400 158.5t-164 390t164 389t400 157.5zM665.5 170q153.5 0 254 101.5t100.5 257t-100.5 256t-254 100.5t-254 -100.5t-100.5 -256t100.5 -257t254 -101.5zM850 1561l139 -146l-323 -241l-84 92z " glyph-name="uniF7C9" horiz-adv-x="1331" unicode=""/><glyph d="M666 1075q238 0 400.5 -157.5t162.5 -389t-163 -390t-400 -158.5q-236 0 -400 158.5t-164 390t164 389t400 157.5zM665.5 170q153.5 0 254 101.5t100.5 257t-100.5 256t-254 100.5t-254 -100.5t-100.5 -256t100.5 -257t254 -101.5zM342 1415l139 146l269 -295l-84 -92z " glyph-name="uniF7CA" horiz-adv-x="1331" unicode=""/><glyph d="M666 1075q238 0 400.5 -157.5t162.5 -389t-163 -390t-400 -158.5q-236 0 -400 158.5t-164 390t164 389t400 157.5zM665.5 170q153.5 0 254 101.5t100.5 257t-100.5 256t-254 100.5t-254 -100.5t-100.5 -256t100.5 -257t254 -101.5zM770 1479l248 -299h-191l-161 159 l-162 -159h-191l248 299h209z" glyph-name="uniF7CB" horiz-adv-x="1331" unicode=""/><glyph d="M666 1075q238 0 400.5 -157.5t162.5 -389t-163 -390t-400 -158.5q-236 0 -400 158.5t-164 390t164 389t400 157.5zM665.5 170q153.5 0 254 101.5t100.5 257t-100.5 256t-254 100.5t-254 -100.5t-100.5 -256t100.5 -257t254 -101.5zM457 1176q-53 0 -88 34.5t-35 88 t34.5 89t88.5 35.5q55 0 90 -35.5t35 -89t-35 -88t-90 -34.5zM874 1176q-55 0 -89.5 34.5t-34.5 88t34.5 89t89.5 35.5q53 0 88 -35.5t35 -89t-35 -88t-88 -34.5z" glyph-name="uniF7CC" horiz-adv-x="1331" unicode=""/><glyph d="M666 1075q238 0 400.5 -157.5t162.5 -389t-163 -390t-400 -158.5q-236 0 -400 158.5t-164 390t164 389t400 157.5zM665.5 170q153.5 0 254 101.5t100.5 257t-100.5 256t-254 100.5t-254 -100.5t-100.5 -256t100.5 -257t254 -101.5zM793 1333q61 0 88 80l129 -20 q-20 -96 -71.5 -156.5t-133.5 -60.5q-53 0 -141.5 42t-124.5 42q-61 0 -88 -80l-129 22q20 96 71 156.5t133 60.5q55 0 143.5 -43t123.5 -43z" glyph-name="uniF7CD" horiz-adv-x="1331" unicode=""/><glyph d="M666 1075q238 0 400.5 -157.5t162.5 -389t-163 -390t-400 -158.5q-236 0 -400 158.5t-164 390t164 389t400 157.5zM665.5 170q153.5 0 254 101.5t100.5 257t-100.5 256t-254 100.5t-254 -100.5t-100.5 -256t100.5 -257t254 -101.5zM991 1341v-159h-651v159h651z" glyph-name="uniF7CE" horiz-adv-x="1331" unicode=""/></font>
</defs>
</svg>
