<svg id="Layer_1" data-name="Layer 1" xmlns="http://www.w3.org/2000/svg" viewBox="0 0 426.24 83.52"><defs><style>.cls-1{fill:#041e41;}.cls-2{fill:#9fd5ca;}.cls-3{fill:#e5e5e9;}.cls-4{fill:#fff;}.cls-5{fill:#d0eae3;}</style></defs><title>Artboard 1re</title><path class="cls-1" d="M206.47,77h-7.28V56.49h7.28c6.35,0,10.73,4.39,10.73,10.21S212.82,77,206.47,77Zm-.09-2.87c4.8,0,7.63-3.1,7.63-7.4s-2.84-7.34-7.6-7.34h-4.15V74.1Z"/><path class="cls-1" d="M227.35,77V56.49h14.59V59.3H230.42v6h10.79V68H230.42v6.11h11.64V77Z"/><path class="cls-1" d="M255.13,56.46,267,72.11V56.49h3V77h-2.84L255.31,61.4V77h-3V56.46Z"/><path class="cls-1" d="M295.58,59.33h-6.67V77h-3.07V59.33h-6.67V56.49h16.41Z"/><path class="cls-1" d="M316.08,71.84H306L303.88,77h-3.13l9-20.53h2.75L321.43,77h-3.16ZM307.25,69h7.63l-3.8-9Z"/><path class="cls-1" d="M330.49,77V56.49h3.07V74.1h11.08V77Z"/><rect class="cls-2" x="121.17" y="65.23" width="70.31" height="3"/><rect class="cls-2" x="352.36" y="65.23" width="70.31" height="3"/><path class="cls-1" d="M190.32,23.53A17.35,17.35,0,1,1,173,6.54,17,17,0,0,1,190.32,23.53Zm-7.7,0a9.63,9.63,0,1,0-19.25,0,9.63,9.63,0,1,0,19.25,0Z"/><path class="cls-1" d="M228.43,29.73l7-22.12a.72.72,0,0,1,.69-.5h6.67a.36.36,0,0,1,.34.47L232.49,39.52a.72.72,0,0,1-.68.49h-6.92a.72.72,0,0,1-.69-.51l-6.56-22.06L211,39.5a.72.72,0,0,1-.69.51h-6.79a.72.72,0,0,1-.68-.49L192.21,7.57a.36.36,0,0,1,.34-.47h7a.72.72,0,0,1,.69.51L207,29.45,213.86,7.6a.72.72,0,0,1,.69-.5H221a.72.72,0,0,1,.69.51Z"/><path class="cls-1" d="M278,30.48c0-1.93-1.41-3.05-5.3-3.71l-3.29-.61c-7-1.17-10.09-4.69-10.09-9.76,0-5.82,4.37-9.81,12.49-9.81,7.79,0,12.14,3.76,12.78,9.31a.37.37,0,0,1-.36.41h-6.59a.36.36,0,0,1-.34-.27c-.5-1.8-2.38-2.83-5.38-2.83-3.24,0-5.07,1.13-5.07,3.24s1.74,3,5.59,3.57l3.33.61c7,1.17,9.81,4.41,9.81,9.44,0,6.85-5.16,10.42-13.19,10.42s-12.88-3.68-13.49-9.69a.37.37,0,0,1,.37-.4h6.63a.36.36,0,0,1,.35.29c.43,2,2.48,3.18,6.24,3.18C276,33.86,278,32.59,278,30.48Z"/><path class="cls-1" d="M300.2,39.24V7.82a.72.72,0,0,1,.72-.72H307a.72.72,0,0,1,.72.72V32.43a.72.72,0,0,0,.72.72h14.8a.72.72,0,0,1,.72.72v5.37a.72.72,0,0,1-.72.72H300.92A.72.72,0,0,1,300.2,39.24Z"/><path class="cls-1" d="M350.13,33.25H336.3a.36.36,0,0,0-.34.23l-2.36,6a.72.72,0,0,1-.67.46h-6.67a.36.36,0,0,1-.33-.5l13.45-32a.72.72,0,0,1,.66-.44h6.51a.72.72,0,0,1,.66.44l13.41,32a.36.36,0,0,1-.33.5h-6.76a.72.72,0,0,1-.67-.45l-2.41-6A.36.36,0,0,0,350.13,33.25Zm-11.35-6.81h8.92l-4.46-11.22Z"/><path class="cls-1" d="M380.75,21.65l13.77,17.73a.36.36,0,0,1-.28.58h-8a.72.72,0,0,1-.57-.28l-9.88-12.77-4.08,4.41v7.92A.72.72,0,0,1,371,40h-6.07a.72.72,0,0,1-.72-.72V7.82a.72.72,0,0,1,.72-.72H371a.72.72,0,0,1,.72.72V21.65L385,7.33a.72.72,0,0,1,.53-.23h8a.36.36,0,0,1,.26.61Z"/><path class="cls-1" d="M397.78,39.24V7.82a.72.72,0,0,1,.72-.72h23.25a.72.72,0,0,1,.72.72v5.32a.72.72,0,0,1-.72.72H406a.72.72,0,0,0-.72.72v4.76a.72.72,0,0,0,.72.72h14.47a.72.72,0,0,1,.72.72V26.1a.72.72,0,0,1-.72.72H406a.72.72,0,0,0-.72.72v4.94a.72.72,0,0,0,.72.72h15.93a.72.72,0,0,1,.72.72v5.32a.72.72,0,0,1-.72.72H398.5A.72.72,0,0,1,397.78,39.24Z"/><path class="cls-1" d="M248.1,12,245.46,20h1.82a7.2,7.2,0,0,0,6.85-5l2.52-7.87h-1.72A7.2,7.2,0,0,0,248.1,12Z"/><path class="cls-1" d="M134,7.1h-12.1a.72.72,0,0,0-.72.72V32.2a6.46,6.46,0,0,1,4.71-2H128a.72.72,0,0,0,.72-.72V13.91h4.93a9.22,9.22,0,0,1,9.62,9.62,9.22,9.22,0,0,1-9.62,9.62h-6a6.48,6.48,0,0,0-6.48,6.48V40H134c9.81,0,16.95-7.28,16.95-16.43S143.8,7.1,134,7.1Z"/><path class="cls-1" d="M96.12,34.22a48.1,48.1,0,0,0-13.91,2.16c.15-1.55.23-3.11.23-4.67a47.86,47.86,0,0,0-8-26.6h0a3.12,3.12,0,0,0-3.35-1.3h0a92.55,92.55,0,0,0-19,7,1.11,1.11,0,0,1-1,0,92.55,92.55,0,0,0-19-7h0a3.12,3.12,0,0,0-3.35,1.3h0a47.87,47.87,0,0,0-8,26.6c0,1.56.08,3.12.23,4.67A48.09,48.09,0,0,0,6.93,34.22H5.16A1.57,1.57,0,0,0,3.59,36l.22,1.75a48.09,48.09,0,0,0,44.54,42s2,.11,3.17.11,3.17-.11,3.17-.11a48.09,48.09,0,0,0,44.54-42L99.46,36a1.57,1.57,0,0,0-1.57-1.77Zm-69.26-2.5A41.65,41.65,0,0,1,32,11.53a1.57,1.57,0,0,1,1.81-.76,86.32,86.32,0,0,1,16.22,6.54l.41.21a2.25,2.25,0,0,0,2.1,0l.41-.21A86.35,86.35,0,0,1,69.2,10.77a1.57,1.57,0,0,1,1.81.76,41.65,41.65,0,0,1,5.19,20.18,42,42,0,0,1-.45,6.12,2.24,2.24,0,0,1-1.19,1.67,48,48,0,0,0-15,12,48.3,48.3,0,0,0-5.85-6.67l-.6-.57a2.25,2.25,0,0,0-3.09,0l-.6.57a48.33,48.33,0,0,0-5.85,6.67,48.24,48.24,0,0,0-4.9-5.08,48,48,0,0,0-10.14-7,2.24,2.24,0,0,1-1.19-1.67A42,42,0,0,1,26.85,31.71Zm-15.27,9A42,42,0,0,1,47.23,72.43a.67.67,0,0,1-.73.82A42,42,0,0,1,10.85,41.58.67.67,0,0,1,11.58,40.76ZM50.7,63.22a48.2,48.2,0,0,0-2.93-5.68,1.12,1.12,0,0,1,0-1.21,42.06,42.06,0,0,1,2.87-3.75,1.13,1.13,0,0,1,1.72,0,42,42,0,0,1,2.87,3.75,1.12,1.12,0,0,1,0,1.21,48.21,48.21,0,0,0-2.93,5.68A.9.9,0,0,1,50.7,63.22Zm5.12,9.21A42,42,0,0,1,91.46,40.76a.67.67,0,0,1,.73.82A42,42,0,0,1,56.55,73.25.67.67,0,0,1,55.82,72.43Z"/><path class="cls-3" d="M71,11.53a1.57,1.57,0,0,0-1.81-.76A86.34,86.34,0,0,0,53,17.31l-.41.21a2.25,2.25,0,0,1-1,.26V43.7a2.24,2.24,0,0,1,1.55.62l.6.57a48.31,48.31,0,0,1,5.85,6.67,48,48,0,0,1,15-12,2.24,2.24,0,0,0,1.19-1.67A41.83,41.83,0,0,0,71,11.53Z"/><path class="cls-4" d="M51.52,17.78a2.25,2.25,0,0,1-1-.26l-.41-.21a86.32,86.32,0,0,0-16.22-6.54,1.57,1.57,0,0,0-1.81.76,41.83,41.83,0,0,0-4.74,26.3,2.24,2.24,0,0,0,1.19,1.67,48,48,0,0,1,10.14,7,48.23,48.23,0,0,1,4.9,5.08,48.33,48.33,0,0,1,5.85-6.67l.6-.57a2.24,2.24,0,0,1,1.55-.62Z"/><path class="cls-2" d="M55.82,72.43A42,42,0,0,1,91.46,40.76a.67.67,0,0,1,.73.82A42,42,0,0,1,56.55,73.25.67.67,0,0,1,55.82,72.43Z"/><path class="cls-5" d="M92.07,41a.66.66,0,0,0-.6-.25A42,42,0,0,0,55.82,72.43.66.66,0,0,0,56,73Z"/><path class="cls-2" d="M11.58,40.76A42,42,0,0,1,47.23,72.43a.67.67,0,0,1-.73.82A42,42,0,0,1,10.85,41.58.67.67,0,0,1,11.58,40.76Z"/><path class="cls-5" d="M47.1,73a.66.66,0,0,0,.12-.56A42,42,0,0,0,11.58,40.76.66.66,0,0,0,11,41Z"/></svg>