<?xml version="1.0" encoding="utf-8"?>
<!-- Generator: Adobe Illustrator 19.1.0, SVG Export Plug-In . SVG Version: 6.00 Build 0)  -->
<svg version="1.1" id="Layer_1" xmlns="http://www.w3.org/2000/svg" xmlns:xlink="http://www.w3.org/1999/xlink" x="0px" y="0px"
	 viewBox="0 0 79.2 16" style="enable-background:new 0 0 79.2 16;" xml:space="preserve">
<style type="text/css">
	.st0{fill:#676767;}
</style>
<g>
	<path class="st0" d="M50.5,0.5c0.2-0.2,0.4-0.3,0.6-0.4S51.6,0,51.8,0c0.2,0,0.5,0.1,0.7,0.1c0.2,0,0.4,0.2,0.6,0.5
		c0.2,0.1,0.3,0.3,0.4,0.5c0.1,0.3,0.2,0.5,0.2,0.7c0,0.2-0.1,0.4-0.2,0.7c-0.1,0.3-0.3,0.5-0.4,0.5L40.9,15.4
		c-0.1,0-0.2,0.1-0.2,0.2c-0.1,0.1-0.2,0.2-0.3,0.2s-0.2,0-0.4,0.1c-0.1,0.1-0.3,0.1-0.4,0c-0.2,0.1-0.3,0.1-0.4,0
		c-0.1-0.1-0.2-0.1-0.3-0.1c-0.1,0-0.2-0.1-0.3-0.2s-0.2-0.2-0.3-0.2L26.1,3.1C26,3,25.8,2.9,25.7,2.6c-0.1-0.3-0.2-0.5-0.2-0.7
		c0-0.2,0.1-0.4,0.2-0.7c0.1-0.3,0.3-0.4,0.4-0.5c0.2-0.3,0.4-0.5,0.6-0.5c0.2,0,0.5-0.1,0.7-0.1c0.2,0,0.5,0,0.7,0.1
		s0.4,0.3,0.6,0.4l10.9,10.9L50.5,0.5z"/>
</g>
</svg>
